<?xml version="1.0" standalone="no"?>
<!DOCTYPE svg PUBLIC "-//W3C//DTD SVG 20010904//EN"
 "http://www.w3.org/TR/2001/REC-SVG-20010904/DTD/svg10.dtd">
 <svg xmlns="http://www.w3.org/2000/svg" xmlns:xlink="http://www.w3.org/1999/xlink" width="897.781" height="508.441" viewBox="0 0 897.781 508.441">
  <defs>
    <linearGradient id="linear-gradient" y1="0.5" x2="1" y2="0.5" gradientUnits="objectBoundingBox">
      <stop offset="0" stop-color="#fff" stop-opacity="0"/>
      <stop offset="0.242" stop-color="#fff" stop-opacity="0.227"/>
      <stop offset="0.795" stop-color="#fff" stop-opacity="0.788"/>
      <stop offset="1" stop-color="#fff"/>
    </linearGradient>
    <linearGradient id="linear-gradient-4" y1="0.5" x2="1" y2="0.5" gradientUnits="objectBoundingBox">
      <stop offset="0" stop-color="#fff"/>
      <stop offset="0.205" stop-color="#fff" stop-opacity="0.788"/>
      <stop offset="0.758" stop-color="#fff" stop-opacity="0.227"/>
      <stop offset="1" stop-color="#fff" stop-opacity="0"/>
    </linearGradient>
  </defs>
  <g id="Grupo_2981" data-name="Grupo 2981" transform="translate(-1317.721 -266.372)">
    <g id="Grupo_2951" data-name="Grupo 2951" style="mix-blend-mode: overlay;isolation: isolate">
      <path id="Trazado_9124" data-name="Trazado 9124" d="M1864.894,313.688a1.35,1.35,0,0,0,.055-.928,2.457,2.457,0,0,0-1.411-.978,2.775,2.775,0,0,0-1.468-.337,7.9,7.9,0,0,0-1.176.191q-.435.11-1.09.333a4.2,4.2,0,0,0-.4.162c-1.342.613-7.118,2.435-8.405,3.452-1.438,1.136-.076,3.877,3.819,3.536a3.925,3.925,0,0,0,1.257-.341l.263-.118c.109-.049.217-.1.32-.161.572-.322,1.081-.634,1.505-.927C1859.857,316.4,1864.764,314.112,1864.894,313.688Z" fill="#fff"/>
      <path id="Trazado_9125" data-name="Trazado 9125" d="M1839.045,325.027c-73.317,23.438-131.109,28.147-200.513,27.789-37.82-.193-67.329-3.581-87.113-10.193-14.541-4.861-23.824-11.464-27.3-19.821-6.788-16.345,4.483-24.986,14.34-26.292a17.58,17.58,0,0,1,5.762.127,13.482,13.482,0,0,1,2.7.834c6.2,2.682,7.16,9.422-.336,14.618-6.711,4.656-8.642,15.973,15.178,24.112.546.188,1.1.373,1.657.554,32.565,10.644,81.268,12.91,152.164,9.318,72.705-6.141,112.437-20.579,121.64-24.5,2.374-.614,3.4-.53,5.2.342C1844.024,322.692,1843.868,323.552,1839.045,325.027Z" fill="url(#linear-gradient)"/>
    </g>
    <g id="Grupo_2952" data-name="Grupo 2952" style="mix-blend-mode: overlay;isolation: isolate">
      <path id="Trazado_9126" data-name="Trazado 9126" d="M1841.468,356.017a1.342,1.342,0,0,0,.054-.928,2.45,2.45,0,0,0-1.41-.978,2.788,2.788,0,0,0-1.469-.338,8.042,8.042,0,0,0-1.176.192c-.289.073-.653.184-1.089.332-.136.047-.269.1-.4.163-1.342.612-7.117,2.435-8.4,3.451-1.439,1.136-.076,3.878,3.819,3.537a3.912,3.912,0,0,0,1.256-.341l.264-.118c.109-.05.217-.1.32-.161.571-.322,1.08-.634,1.505-.927C1836.43,358.725,1841.338,356.441,1841.468,356.017Z" fill="#fff"/>
      <path id="Trazado_9127" data-name="Trazado 9127" d="M1815.619,367.356c-73.318,23.438-131.109,28.147-200.513,27.789-37.82-.194-67.329-3.581-87.114-10.194-14.54-4.86-23.824-11.463-27.3-19.82-6.789-16.345,4.482-24.986,14.339-26.292a17.585,17.585,0,0,1,5.763.127,13.538,13.538,0,0,1,2.7.833c6.206,2.683,7.161,9.423-.335,14.619-6.712,4.656-8.643,15.973,15.178,24.112.546.188,1.1.373,1.657.553,32.565,10.645,81.267,12.911,152.163,9.319,72.706-6.142,112.438-20.579,121.641-24.5,2.373-.614,3.4-.53,5.2.341C1820.6,365.02,1820.442,365.881,1815.619,367.356Z" fill="url(#linear-gradient)"/>
    </g>
    <g id="Grupo_2955" data-name="Grupo 2955" opacity="0.4">
      <g id="Grupo_2953" data-name="Grupo 2953" style="mix-blend-mode: overlay;isolation: isolate">
        <path id="Trazado_9128" data-name="Trazado 9128" d="M1762.888,487.45a1.342,1.342,0,0,0,.054-.928,2.45,2.45,0,0,0-1.41-.978,2.777,2.777,0,0,0-1.468-.338,8.187,8.187,0,0,0-1.177.191c-.289.073-.653.185-1.089.333-.136.046-.269.1-.4.162-1.341.613-7.117,2.436-8.4,3.452-1.439,1.136-.076,3.878,3.819,3.537a3.927,3.927,0,0,0,1.257-.341l.263-.119c.109-.049.217-.1.32-.161.571-.321,1.081-.634,1.505-.927C1757.851,490.158,1762.758,487.874,1762.888,487.45Z" fill="#fff"/>
        <path id="Trazado_9129" data-name="Trazado 9129" d="M1737.039,498.789c-73.318,23.438-131.109,28.147-200.513,27.789-37.82-.194-67.329-3.581-87.113-10.194-14.541-4.861-23.825-11.464-27.3-19.82-6.789-16.346,4.483-24.986,14.339-26.292a17.559,17.559,0,0,1,5.763.127,13.508,13.508,0,0,1,2.7.833c6.2,2.682,7.16,9.422-.336,14.619-6.712,4.656-8.642,15.973,15.178,24.111.546.189,1.1.373,1.657.554,32.565,10.645,81.267,12.911,152.163,9.319,72.706-6.142,112.438-20.579,121.641-24.5,2.374-.614,3.4-.531,5.2.341C1742.018,496.453,1741.862,497.314,1737.039,498.789Z" fill="url(#linear-gradient)"/>
      </g>
      <g id="Grupo_2954" data-name="Grupo 2954" style="mix-blend-mode: overlay;isolation: isolate">
        <path id="Trazado_9130" data-name="Trazado 9130" d="M1772.3,479.208a1.343,1.343,0,0,0-.055.928,2.454,2.454,0,0,0,1.41.978,2.78,2.78,0,0,0,1.469.337,7.923,7.923,0,0,0,1.176-.191q.435-.109,1.09-.333a4.186,4.186,0,0,0,.4-.162c1.342-.613,7.118-2.435,8.405-3.452,1.438-1.136.076-3.877-3.82-3.536a3.918,3.918,0,0,0-1.256.341l-.263.118c-.11.049-.218.1-.32.161-.572.322-1.081.634-1.506.927C1777.332,476.5,1772.425,478.784,1772.3,479.208Z" fill="#fff"/>
        <path id="Trazado_9131" data-name="Trazado 9131" d="M1798.143,467.869c73.318-23.438,131.11-28.148,200.514-27.79,37.82.194,67.329,3.582,87.113,10.194,14.541,4.861,23.824,11.464,27.3,19.821,6.789,16.345-4.482,24.986-14.339,26.292a17.585,17.585,0,0,1-5.763-.127,13.465,13.465,0,0,1-2.7-.834c-6.206-2.682-7.16-9.422.335-14.618,6.712-4.656,8.643-15.973-15.178-24.112-.545-.188-1.1-.373-1.656-.554-32.566-10.645-81.268-12.91-152.164-9.318-72.7,6.141-112.437,20.578-121.641,24.5-2.373.613-3.4.53-5.2-.342C1793.164,470.2,1793.321,469.344,1798.143,467.869Z" fill="url(#linear-gradient-4)"/>
      </g>
    </g>
    <g id="Grupo_2958" data-name="Grupo 2958" opacity="0.6">
      <g id="Grupo_2956" data-name="Grupo 2956" style="mix-blend-mode: overlay;isolation: isolate">
        <path id="Trazado_9132" data-name="Trazado 9132" d="M1786.378,442.794a1.342,1.342,0,0,0,.054-.928,2.45,2.45,0,0,0-1.41-.978,2.79,2.79,0,0,0-1.469-.338,8.05,8.05,0,0,0-1.176.192c-.289.073-.653.184-1.089.332-.136.047-.27.1-.4.163-1.342.612-7.117,2.435-8.4,3.451-1.439,1.136-.076,3.878,3.819,3.537a3.912,3.912,0,0,0,1.256-.341l.264-.118c.109-.05.217-.1.32-.161.571-.322,1.08-.634,1.505-.927C1781.34,445.5,1786.247,443.218,1786.378,442.794Z" fill="#fff"/>
        <path id="Trazado_9133" data-name="Trazado 9133" d="M1760.529,454.133c-73.318,23.438-131.11,28.147-200.513,27.789-37.82-.194-67.329-3.581-87.114-10.194-14.541-4.86-23.824-11.463-27.3-19.82-6.789-16.345,4.482-24.986,14.339-26.292a17.585,17.585,0,0,1,5.763.127,13.542,13.542,0,0,1,2.7.833c6.206,2.683,7.161,9.423-.335,14.619-6.712,4.656-8.643,15.973,15.178,24.112.546.188,1.1.373,1.657.553,32.565,10.645,81.267,12.911,152.163,9.319,72.7-6.142,112.438-20.579,121.641-24.5,2.373-.614,3.4-.53,5.2.341C1765.508,451.8,1765.352,452.658,1760.529,454.133Z" fill="url(#linear-gradient)"/>
      </g>
      <g id="Grupo_2957" data-name="Grupo 2957" style="mix-blend-mode: overlay;isolation: isolate">
        <path id="Trazado_9134" data-name="Trazado 9134" d="M1796.577,435.085a1.342,1.342,0,0,0-.054.928,2.45,2.45,0,0,0,1.41.978,2.787,2.787,0,0,0,1.468.338,8,8,0,0,0,1.176-.192q.435-.109,1.09-.332c.136-.047.269-.1.4-.163,1.341-.612,7.117-2.435,8.4-3.451,1.439-1.136.076-3.878-3.819-3.537a3.924,3.924,0,0,0-1.257.341l-.263.118c-.109.049-.217.1-.32.161-.571.322-1.081.634-1.505.927C1801.614,432.377,1796.707,434.661,1796.577,435.085Z" fill="#fff"/>
        <path id="Trazado_9135" data-name="Trazado 9135" d="M1822.426,423.746c73.318-23.438,131.109-28.147,200.513-27.789,37.82.193,67.329,3.581,87.113,10.193,14.541,4.861,23.825,11.464,27.3,19.821,6.789,16.345-4.483,24.986-14.339,26.292a17.584,17.584,0,0,1-5.763-.127,13.547,13.547,0,0,1-2.7-.833c-6.205-2.683-7.16-9.423.336-14.619,6.712-4.656,8.642-15.973-15.178-24.112-.546-.188-1.1-.373-1.657-.554-32.565-10.644-81.268-12.91-152.163-9.318-72.706,6.141-112.438,20.579-121.641,24.5-2.374.614-3.4.53-5.2-.341C1817.447,426.081,1817.6,425.221,1822.426,423.746Z" fill="url(#linear-gradient-4)"/>
      </g>
    </g>
    <g id="Grupo_2961" data-name="Grupo 2961" opacity="0.1">
      <g id="Grupo_2959" data-name="Grupo 2959" style="mix-blend-mode: overlay;isolation: isolate">
        <path id="Trazado_9136" data-name="Trazado 9136" d="M1721.92,576.01a1.342,1.342,0,0,0,.054-.928,2.45,2.45,0,0,0-1.41-.978,2.788,2.788,0,0,0-1.469-.338,8.046,8.046,0,0,0-1.176.192c-.289.073-.653.184-1.089.332-.136.047-.269.1-.4.163-1.341.612-7.117,2.435-8.4,3.451-1.439,1.136-.076,3.878,3.819,3.537a3.911,3.911,0,0,0,1.256-.341l.264-.118c.109-.049.217-.1.32-.161.571-.322,1.08-.634,1.505-.927C1716.882,578.718,1721.79,576.434,1721.92,576.01Z" fill="#fff"/>
        <path id="Trazado_9137" data-name="Trazado 9137" d="M1696.071,587.349c-73.318,23.438-131.109,28.147-200.513,27.789-37.82-.193-67.329-3.581-87.114-10.193-14.54-4.861-23.824-11.464-27.3-19.821-6.789-16.345,4.482-24.986,14.339-26.292a17.587,17.587,0,0,1,5.763.127,13.57,13.57,0,0,1,2.7.833c6.2,2.683,7.16,9.423-.336,14.619-6.712,4.656-8.643,15.973,15.178,24.112.546.188,1.1.373,1.657.554,32.565,10.644,81.267,12.91,152.163,9.318,72.706-6.141,112.438-20.579,121.641-24.5,2.373-.614,3.4-.53,5.2.341C1701.05,585.014,1700.894,585.874,1696.071,587.349Z" fill="url(#linear-gradient)"/>
      </g>
      <g id="Grupo_2960" data-name="Grupo 2960" style="mix-blend-mode: overlay;isolation: isolate">
        <path id="Trazado_9138" data-name="Trazado 9138" d="M1731.327,567.768a1.337,1.337,0,0,0-.055.928,2.45,2.45,0,0,0,1.41.978,2.793,2.793,0,0,0,1.469.338,8.2,8.2,0,0,0,1.176-.191q.435-.111,1.09-.333c.136-.047.269-.1.4-.163,1.342-.612,7.118-2.435,8.405-3.451,1.438-1.136.075-3.878-3.82-3.537a3.92,3.92,0,0,0-1.256.341l-.264.119c-.109.049-.217.1-.319.16-.572.322-1.081.635-1.506.927C1736.364,565.06,1731.457,567.344,1731.327,567.768Z" fill="#fff"/>
        <path id="Trazado_9139" data-name="Trazado 9139" d="M1757.175,556.429c73.318-23.438,131.11-28.147,200.514-27.789,37.82.194,67.329,3.581,87.113,10.194,14.541,4.86,23.824,11.464,27.3,19.82,6.789,16.345-4.482,24.986-14.339,26.292a17.584,17.584,0,0,1-5.763-.127,13.539,13.539,0,0,1-2.7-.833c-6.206-2.683-7.16-9.423.335-14.619,6.712-4.656,8.643-15.973-15.178-24.112-.545-.188-1.1-.373-1.657-.553-32.565-10.645-81.267-12.911-152.163-9.319-72.7,6.142-112.437,20.579-121.641,24.5-2.373.614-3.4.53-5.2-.341C1752.2,558.765,1752.352,557.9,1757.175,556.429Z" fill="url(#linear-gradient-4)"/>
      </g>
    </g>
    <g id="Grupo_2964" data-name="Grupo 2964" opacity="0.2">
      <g id="Grupo_2962" data-name="Grupo 2962" style="mix-blend-mode: overlay;isolation: isolate">
        <path id="Trazado_9140" data-name="Trazado 9140" d="M1708.1,615.27a1.342,1.342,0,0,0,.054-.928,2.45,2.45,0,0,0-1.41-.978,2.776,2.776,0,0,0-1.468-.337,8.011,8.011,0,0,0-1.176.191q-.435.109-1.09.333c-.136.046-.269.1-.4.162-1.341.613-7.117,2.435-8.4,3.452-1.439,1.136-.076,3.877,3.819,3.536a3.923,3.923,0,0,0,1.257-.34l.263-.119c.109-.049.217-.1.32-.161.571-.321,1.081-.634,1.505-.927C1703.068,617.979,1707.975,615.7,1708.1,615.27Z" fill="#fff"/>
        <path id="Trazado_9141" data-name="Trazado 9141" d="M1682.256,626.61c-73.318,23.438-131.109,28.147-200.513,27.789-37.82-.194-67.329-3.582-87.113-10.194-14.541-4.861-23.825-11.464-27.3-19.821-6.789-16.345,4.483-24.985,14.339-26.292a17.557,17.557,0,0,1,5.763.128,13.422,13.422,0,0,1,2.7.833c6.2,2.682,7.16,9.422-.336,14.618-6.712,4.657-8.642,15.973,15.178,24.112.546.188,1.1.373,1.657.554,32.565,10.645,81.268,12.91,152.163,9.318,72.706-6.141,112.438-20.578,121.641-24.5,2.374-.613,3.4-.53,5.2.342C1687.235,624.274,1687.079,625.134,1682.256,626.61Z" fill="url(#linear-gradient)"/>
      </g>
      <g id="Grupo_2963" data-name="Grupo 2963" style="mix-blend-mode: overlay;isolation: isolate">
        <path id="Trazado_9142" data-name="Trazado 9142" d="M1717.512,607.028a1.344,1.344,0,0,0-.055.928,2.453,2.453,0,0,0,1.41.979,2.78,2.78,0,0,0,1.469.337,8.026,8.026,0,0,0,1.176-.191q.435-.109,1.09-.333a4.183,4.183,0,0,0,.4-.162c1.342-.613,7.118-2.436,8.405-3.452,1.438-1.136.076-3.878-3.82-3.537a3.921,3.921,0,0,0-1.256.341l-.263.119c-.109.049-.218.1-.32.161-.572.321-1.081.634-1.506.927C1722.549,604.32,1717.642,606.6,1717.512,607.028Z" fill="#fff"/>
        <path id="Trazado_9143" data-name="Trazado 9143" d="M1743.36,595.689c73.318-23.438,131.11-28.147,200.514-27.789,37.82.194,67.329,3.581,87.113,10.194,14.541,4.861,23.824,11.464,27.3,19.821,6.789,16.345-4.482,24.985-14.339,26.291a17.556,17.556,0,0,1-5.763-.127,13.47,13.47,0,0,1-2.7-.833c-6.206-2.682-7.16-9.422.335-14.618,6.712-4.657,8.643-15.974-15.177-24.112-.546-.189-1.1-.373-1.657-.554-32.566-10.645-81.268-12.91-152.164-9.318-72.705,6.141-112.437,20.578-121.641,24.5-2.373.613-3.4.53-5.2-.342C1738.381,598.025,1738.538,597.164,1743.36,595.689Z" fill="url(#linear-gradient-4)"/>
      </g>
    </g>
    <g id="Grupo_2967" data-name="Grupo 2967" opacity="0.2">
      <g id="Grupo_2965" data-name="Grupo 2965" style="mix-blend-mode: overlay;isolation: isolate">
        <path id="Trazado_9144" data-name="Trazado 9144" d="M1745.41,531.354a1.342,1.342,0,0,0,.054-.928,2.45,2.45,0,0,0-1.41-.978,2.779,2.779,0,0,0-1.469-.337,7.919,7.919,0,0,0-1.176.191c-.289.073-.653.184-1.089.333a4.114,4.114,0,0,0-.4.162c-1.342.613-7.117,2.435-8.405,3.452-1.438,1.136-.075,3.877,3.82,3.536a3.917,3.917,0,0,0,1.256-.341l.264-.118c.109-.049.217-.1.319-.161.572-.322,1.081-.634,1.506-.927C1740.372,534.063,1745.279,531.778,1745.41,531.354Z" fill="#fff"/>
        <path id="Trazado_9145" data-name="Trazado 9145" d="M1719.561,542.693c-73.318,23.438-131.11,28.148-200.514,27.79-37.819-.194-67.329-3.582-87.113-10.194-14.541-4.861-23.824-11.464-27.3-19.821-6.789-16.345,4.482-24.986,14.339-26.292a17.587,17.587,0,0,1,5.763.127,13.473,13.473,0,0,1,2.7.834c6.206,2.682,7.161,9.422-.335,14.618-6.712,4.657-8.643,15.973,15.178,24.112.545.188,1.1.373,1.657.554,32.565,10.645,81.267,12.91,152.163,9.318,72.705-6.141,112.437-20.578,121.641-24.5,2.373-.613,3.4-.53,5.2.342C1724.54,540.358,1724.384,541.218,1719.561,542.693Z" fill="url(#linear-gradient)"/>
      </g>
      <g id="Grupo_2966" data-name="Grupo 2966" style="mix-blend-mode: overlay;isolation: isolate">
        <path id="Trazado_9146" data-name="Trazado 9146" d="M1755.609,523.645a1.35,1.35,0,0,0-.055.928,2.457,2.457,0,0,0,1.411.978,2.778,2.778,0,0,0,1.468.338,8.161,8.161,0,0,0,1.176-.191c.29-.073.654-.185,1.09-.333.136-.046.269-.1.4-.162,1.341-.613,7.117-2.436,8.4-3.452,1.438-1.136.076-3.878-3.819-3.537a3.926,3.926,0,0,0-1.257.341l-.263.119c-.109.049-.217.1-.32.161-.571.321-1.081.634-1.505.926C1760.646,520.937,1755.739,523.221,1755.609,523.645Z" fill="#fff"/>
        <path id="Trazado_9147" data-name="Trazado 9147" d="M1781.458,512.306c73.317-23.438,131.109-28.147,200.513-27.789,37.82.194,67.329,3.581,87.113,10.194,14.541,4.861,23.824,11.464,27.3,19.82,6.788,16.346-4.483,24.986-14.339,26.292a17.558,17.558,0,0,1-5.763-.127,13.483,13.483,0,0,1-2.7-.833c-6.205-2.682-7.16-9.422.336-14.619,6.711-4.656,8.642-15.973-15.178-24.111-.546-.189-1.1-.373-1.657-.554-32.565-10.645-81.268-12.911-152.164-9.319-72.7,6.142-112.437,20.579-121.64,24.5-2.374.614-3.4.531-5.2-.341C1776.479,514.642,1776.635,513.781,1781.458,512.306Z" fill="url(#linear-gradient-4)"/>
      </g>
    </g>
    <g id="Grupo_2970" data-name="Grupo 2970" opacity="0.05">
      <g id="Grupo_2968" data-name="Grupo 2968" style="mix-blend-mode: overlay;isolation: isolate">
        <path id="Trazado_9148" data-name="Trazado 9148" d="M1674.377,700.792a1.342,1.342,0,0,0,.054-.928,2.45,2.45,0,0,0-1.41-.978,2.791,2.791,0,0,0-1.469-.338,8.054,8.054,0,0,0-1.176.192c-.289.073-.653.184-1.089.332-.136.047-.27.1-.4.163-1.342.612-7.117,2.435-8.4,3.451-1.439,1.136-.076,3.878,3.819,3.537a3.913,3.913,0,0,0,1.256-.341l.264-.118c.109-.05.217-.1.32-.161.571-.322,1.08-.634,1.505-.927C1669.339,703.5,1674.246,701.216,1674.377,700.792Z" fill="#fff"/>
        <path id="Trazado_9149" data-name="Trazado 9149" d="M1648.528,712.131c-73.318,23.438-131.11,28.147-200.514,27.789-37.819-.194-67.328-3.581-87.113-10.194-14.541-4.86-23.824-11.463-27.3-19.82-6.789-16.345,4.482-24.986,14.339-26.292a17.585,17.585,0,0,1,5.763.127,13.544,13.544,0,0,1,2.7.833c6.206,2.683,7.161,9.423-.335,14.619-6.712,4.656-8.643,15.973,15.178,24.112.546.188,1.1.373,1.657.553,32.565,10.645,81.267,12.911,152.163,9.319,72.7-6.142,112.438-20.579,121.641-24.5,2.373-.614,3.4-.53,5.2.341C1653.507,709.795,1653.351,710.656,1648.528,712.131Z" fill="url(#linear-gradient)"/>
      </g>
      <g id="Grupo_2969" data-name="Grupo 2969" style="mix-blend-mode: overlay;isolation: isolate">
        <path id="Trazado_9150" data-name="Trazado 9150" d="M1683.783,692.55a1.342,1.342,0,0,0-.054.928,2.45,2.45,0,0,0,1.41.978,2.79,2.79,0,0,0,1.469.338,8.046,8.046,0,0,0,1.176-.192c.289-.073.653-.184,1.089-.332.136-.047.27-.1.4-.163,1.342-.612,7.117-2.435,8.4-3.451,1.439-1.136.076-3.878-3.819-3.537a3.911,3.911,0,0,0-1.256.341l-.264.118c-.109.05-.217.1-.32.161-.571.322-1.08.634-1.505.927C1688.821,689.842,1683.914,692.126,1683.783,692.55Z" fill="#fff"/>
        <path id="Trazado_9151" data-name="Trazado 9151" d="M1709.632,681.211c73.318-23.438,131.11-28.147,200.514-27.789,37.819.194,67.328,3.581,87.113,10.194,14.541,4.86,23.824,11.463,27.3,19.82,6.789,16.345-4.482,24.986-14.339,26.292a17.587,17.587,0,0,1-5.763-.127,13.54,13.54,0,0,1-2.7-.833c-6.206-2.683-7.161-9.423.335-14.619,6.712-4.656,8.643-15.973-15.178-24.112-.546-.188-1.1-.373-1.657-.553-32.565-10.645-81.267-12.911-152.163-9.319-72.705,6.142-112.438,20.579-121.641,24.5-2.373.614-3.4.53-5.2-.341C1704.653,683.547,1704.809,682.686,1709.632,681.211Z" fill="url(#linear-gradient-4)"/>
      </g>
    </g>
    <g id="Grupo_2971" data-name="Grupo 2971" style="mix-blend-mode: overlay;isolation: isolate">
      <path id="Trazado_9152" data-name="Trazado 9152" d="M1660.562,735.666a1.344,1.344,0,0,0,.054-.929,2.45,2.45,0,0,0-1.41-.978,2.777,2.777,0,0,0-1.469-.337,8.047,8.047,0,0,0-1.176.191c-.289.073-.653.184-1.089.333-.136.046-.269.1-.4.162-1.341.613-7.117,2.435-8.4,3.452-1.439,1.136-.076,3.877,3.819,3.536a3.911,3.911,0,0,0,1.256-.34l.264-.119c.109-.049.217-.1.32-.161.571-.321,1.08-.634,1.505-.927C1655.524,738.374,1660.432,736.09,1660.562,735.666Z" fill="#fff"/>
      <path id="Trazado_9153" data-name="Trazado 9153" d="M1634.713,747.005C1561.4,770.443,1503.6,775.152,1434.2,774.794c-37.82-.194-67.329-3.582-87.114-10.194-14.54-4.861-23.824-11.464-27.3-19.821-6.789-16.345,4.482-24.985,14.339-26.292a17.584,17.584,0,0,1,5.763.128,13.441,13.441,0,0,1,2.7.833c6.205,2.682,7.16,9.422-.336,14.618-6.712,4.657-8.642,15.974,15.178,24.112.546.189,1.1.373,1.657.554,32.565,10.645,81.267,12.91,152.163,9.318,72.706-6.141,112.438-20.578,121.641-24.5,2.373-.613,3.4-.53,5.2.342C1639.692,744.669,1639.536,745.53,1634.713,747.005Z" fill="url(#linear-gradient)"/>
    </g>
    <g id="Grupo_2972" data-name="Grupo 2972" style="mix-blend-mode: overlay;isolation: isolate">
      <path id="Trazado_9154" data-name="Trazado 9154" d="M1669.969,729.777a1.338,1.338,0,0,0-.055.928,2.45,2.45,0,0,0,1.41.978,2.792,2.792,0,0,0,1.469.338,8.189,8.189,0,0,0,1.176-.191c.29-.073.653-.185,1.09-.333.136-.047.269-.1.4-.163,1.342-.612,7.118-2.435,8.405-3.451,1.438-1.136.075-3.878-3.82-3.537a3.917,3.917,0,0,0-1.256.341l-.264.119c-.109.049-.217.1-.319.16-.572.322-1.081.635-1.506.927C1675.006,727.069,1670.1,729.353,1669.969,729.777Z" fill="#fff"/>
      <path id="Trazado_9155" data-name="Trazado 9155" d="M1695.817,718.438c73.318-23.438,131.11-28.147,200.514-27.789,37.82.194,67.329,3.581,87.113,10.194,14.541,4.86,23.824,11.464,27.3,19.82,6.789,16.345-4.482,24.986-14.339,26.292a17.585,17.585,0,0,1-5.763-.127,13.535,13.535,0,0,1-2.7-.833c-6.206-2.683-7.16-9.423.335-14.619,6.712-4.656,8.643-15.973-15.178-24.112-.545-.188-1.1-.373-1.657-.553-32.565-10.645-81.267-12.911-152.163-9.319-72.7,6.142-112.437,20.579-121.641,24.5-2.373.614-3.4.53-5.2-.341C1690.838,720.774,1690.994,719.913,1695.817,718.438Z" fill="url(#linear-gradient-4)"/>
    </g>
    <g id="Grupo_2975" data-name="Grupo 2975" opacity="0.1">
      <g id="Grupo_2973" data-name="Grupo 2973" style="mix-blend-mode: overlay;isolation: isolate">
        <path id="Trazado_9156" data-name="Trazado 9156" d="M1697.866,656.136a1.343,1.343,0,0,0,.055-.928,2.454,2.454,0,0,0-1.41-.978,2.781,2.781,0,0,0-1.469-.337,7.923,7.923,0,0,0-1.176.191q-.435.109-1.09.333a4.2,4.2,0,0,0-.4.162c-1.342.613-7.118,2.435-8.405,3.452-1.438,1.136-.076,3.877,3.82,3.536a3.92,3.92,0,0,0,1.256-.341l.264-.118c.109-.049.217-.1.319-.161.572-.322,1.081-.634,1.506-.927C1692.829,658.844,1697.736,656.56,1697.866,656.136Z" fill="#fff"/>
        <path id="Trazado_9157" data-name="Trazado 9157" d="M1672.018,667.475c-73.318,23.438-131.11,28.147-200.514,27.79-37.82-.194-67.329-3.582-87.113-10.194-14.541-4.861-23.824-11.464-27.3-19.821-6.789-16.345,4.482-24.986,14.339-26.292a17.585,17.585,0,0,1,5.763.127,13.477,13.477,0,0,1,2.7.834c6.206,2.682,7.16,9.422-.335,14.618-6.712,4.656-8.643,15.973,15.178,24.112.545.188,1.1.373,1.657.554,32.565,10.645,81.267,12.91,152.163,9.318,72.7-6.141,112.437-20.579,121.641-24.5,2.373-.613,3.4-.53,5.2.342C1677,665.14,1676.84,666,1672.018,667.475Z" fill="url(#linear-gradient)"/>
      </g>
      <g id="Grupo_2974" data-name="Grupo 2974" style="mix-blend-mode: overlay;isolation: isolate">
        <path id="Trazado_9158" data-name="Trazado 9158" d="M1708.066,648.427a1.343,1.343,0,0,0-.055.928,2.457,2.457,0,0,0,1.411.978,2.787,2.787,0,0,0,1.468.338,8.172,8.172,0,0,0,1.176-.191c.29-.073.653-.185,1.09-.333a4.192,4.192,0,0,0,.4-.163c1.342-.612,7.118-2.435,8.405-3.451,1.438-1.136.076-3.878-3.819-3.537a3.925,3.925,0,0,0-1.257.341l-.263.119c-.109.049-.218.1-.32.161-.572.321-1.081.634-1.505.926C1713.1,645.719,1708.2,648,1708.066,648.427Z" fill="#fff"/>
        <path id="Trazado_9159" data-name="Trazado 9159" d="M1733.914,637.088c73.318-23.438,131.11-28.147,200.514-27.789,37.82.194,67.329,3.581,87.113,10.194,14.541,4.861,23.824,11.464,27.3,19.82,6.789,16.345-4.482,24.986-14.339,26.292a17.587,17.587,0,0,1-5.763-.127,13.5,13.5,0,0,1-2.7-.833c-6.206-2.682-7.16-9.422.335-14.619,6.712-4.656,8.643-15.973-15.177-24.112-.546-.188-1.1-.372-1.657-.553-32.566-10.645-81.268-12.911-152.164-9.319-72.7,6.142-112.437,20.579-121.64,24.5-2.374.614-3.4.53-5.2-.341C1728.935,639.424,1729.092,638.563,1733.914,637.088Z" fill="url(#linear-gradient-4)"/>
      </g>
    </g>
    <g id="Grupo_2978" data-name="Grupo 2978" opacity="0.8">
      <g id="Grupo_2976" data-name="Grupo 2976" style="mix-blend-mode: overlay;isolation: isolate">
        <path id="Trazado_9160" data-name="Trazado 9160" d="M1809.8,400.465a1.342,1.342,0,0,0,.054-.928,2.45,2.45,0,0,0-1.41-.978,2.787,2.787,0,0,0-1.468-.338,8.024,8.024,0,0,0-1.176.192q-.435.109-1.09.333c-.136.046-.269.1-.4.162-1.341.613-7.117,2.435-8.4,3.452-1.439,1.136-.076,3.877,3.819,3.536a3.925,3.925,0,0,0,1.257-.341l.263-.118c.109-.049.217-.1.32-.161.571-.322,1.081-.634,1.505-.927C1804.767,403.173,1809.674,400.889,1809.8,400.465Z" fill="#fff"/>
        <path id="Trazado_9161" data-name="Trazado 9161" d="M1783.955,411.8c-73.318,23.438-131.109,28.147-200.513,27.789-37.82-.193-67.329-3.581-87.113-10.193-14.541-4.861-23.825-11.464-27.3-19.821-6.789-16.345,4.483-24.986,14.339-26.292a17.586,17.586,0,0,1,5.763.127,13.487,13.487,0,0,1,2.7.834c6.2,2.682,7.16,9.422-.336,14.618-6.712,4.656-8.642,15.973,15.178,24.112.546.188,1.1.373,1.657.554,32.565,10.644,81.268,12.91,152.163,9.318,72.706-6.141,112.438-20.579,121.641-24.5,2.374-.614,3.4-.53,5.2.341C1788.934,409.469,1788.778,410.329,1783.955,411.8Z" fill="url(#linear-gradient)"/>
      </g>
      <g id="Grupo_2977" data-name="Grupo 2977" style="mix-blend-mode: overlay;isolation: isolate">
        <path id="Trazado_9162" data-name="Trazado 9162" d="M1820,392.756a1.342,1.342,0,0,0-.054.928,2.45,2.45,0,0,0,1.41.978,2.79,2.79,0,0,0,1.469.338,8.191,8.191,0,0,0,1.176-.191c.289-.073.653-.185,1.089-.333.136-.047.27-.1.4-.163,1.342-.612,7.117-2.435,8.4-3.451,1.439-1.136.076-3.878-3.819-3.537a3.912,3.912,0,0,0-1.256.341l-.264.119c-.109.049-.217.1-.32.16-.571.322-1.08.635-1.505.927C1825.041,390.048,1820.134,392.332,1820,392.756Z" fill="#fff"/>
        <path id="Trazado_9163" data-name="Trazado 9163" d="M1845.852,381.417c73.318-23.438,131.11-28.147,200.514-27.789,37.819.194,67.328,3.581,87.113,10.194,14.541,4.86,23.824,11.464,27.3,19.82,6.789,16.345-4.482,24.986-14.339,26.292a17.585,17.585,0,0,1-5.763-.127,13.535,13.535,0,0,1-2.7-.833c-6.206-2.683-7.161-9.423.335-14.619,6.712-4.656,8.643-15.973-15.178-24.112-.546-.188-1.1-.373-1.657-.553-32.565-10.645-81.267-12.911-152.163-9.319-72.7,6.142-112.438,20.579-121.641,24.5-2.373.614-3.4.53-5.2-.341C1840.873,383.753,1841.029,382.892,1845.852,381.417Z" fill="url(#linear-gradient-4)"/>
      </g>
    </g>
    <g id="Grupo_2979" data-name="Grupo 2979" style="mix-blend-mode: overlay;isolation: isolate">
      <path id="Trazado_9164" data-name="Trazado 9164" d="M1849.234,347.847a1.341,1.341,0,0,0-.054.928,2.455,2.455,0,0,0,1.41.979,2.786,2.786,0,0,0,1.469.337,8.189,8.189,0,0,0,1.176-.191c.289-.073.653-.185,1.089-.333.136-.046.269-.1.4-.162,1.341-.613,7.117-2.436,8.4-3.452,1.439-1.136.076-3.878-3.819-3.537a3.914,3.914,0,0,0-1.256.341l-.264.119c-.109.049-.217.1-.32.161-.571.321-1.08.634-1.505.927C1854.272,345.139,1849.364,347.423,1849.234,347.847Z" fill="#fff"/>
      <path id="Trazado_9165" data-name="Trazado 9165" d="M1875.083,336.508c73.318-23.438,131.109-28.147,200.513-27.789,37.82.194,67.329,3.581,87.114,10.194,14.54,4.861,23.824,11.464,27.3,19.82,6.789,16.346-4.482,24.986-14.339,26.292a17.558,17.558,0,0,1-5.763-.127,13.508,13.508,0,0,1-2.7-.833c-6.205-2.682-7.16-9.422.336-14.619,6.712-4.656,8.642-15.973-15.178-24.111-.546-.189-1.1-.373-1.657-.554-32.565-10.645-81.267-12.911-152.163-9.319-72.706,6.142-112.438,20.579-121.641,24.5-2.373.614-3.4.531-5.2-.341C1870.1,338.844,1870.26,337.983,1875.083,336.508Z" fill="url(#linear-gradient-4)"/>
    </g>
    <g id="Grupo_2980" data-name="Grupo 2980" style="mix-blend-mode: overlay;isolation: isolate">
      <path id="Trazado_9166" data-name="Trazado 9166" d="M1872.661,305.518a1.34,1.34,0,0,0-.055.929,2.45,2.45,0,0,0,1.41.978,2.781,2.781,0,0,0,1.469.337,8.054,8.054,0,0,0,1.176-.191q.435-.11,1.09-.333a4.2,4.2,0,0,0,.4-.162c1.342-.613,7.118-2.436,8.4-3.452,1.438-1.136.075-3.877-3.82-3.537a3.945,3.945,0,0,0-1.256.341l-.264.119c-.109.049-.217.1-.319.161-.572.321-1.081.634-1.506.927C1877.7,302.81,1872.791,305.094,1872.661,305.518Z" fill="#fff"/>
      <path id="Trazado_9167" data-name="Trazado 9167" d="M1898.509,294.179c73.318-23.438,131.11-28.147,200.514-27.789,37.82.194,67.329,3.582,87.113,10.194,14.541,4.861,23.824,11.464,27.3,19.821,6.789,16.345-4.482,24.985-14.339,26.291a17.559,17.559,0,0,1-5.763-.127,13.41,13.41,0,0,1-2.7-.833c-6.206-2.682-7.16-9.422.335-14.618,6.712-4.657,8.643-15.974-15.178-24.112-.545-.189-1.1-.373-1.657-.554-32.565-10.645-81.267-12.91-152.163-9.318-72.7,6.141-112.437,20.578-121.641,24.5-2.373.613-3.4.53-5.2-.342C1893.53,296.515,1893.686,295.654,1898.509,294.179Z" fill="url(#linear-gradient-4)"/>
    </g>
  </g>
</svg>
