<?xml version="1.0" standalone="no"?>
<!DOCTYPE svg PUBLIC "-//W3C//DTD SVG 20010904//EN"
 "http://www.w3.org/TR/2001/REC-SVG-20010904/DTD/svg10.dtd">
 <svg xmlns="http://www.w3.org/2000/svg" xmlns:xlink="http://www.w3.org/1999/xlink" width="809.391" height="361.967" viewBox="0 0 809.391 361.967">
  <defs>
    <linearGradient id="linear-gradient" y1="0.5" x2="1" y2="0.5" gradientUnits="objectBoundingBox">
      <stop offset="0" stop-color="#fff"/>
      <stop offset="0.205" stop-color="#fff" stop-opacity="0.788"/>
      <stop offset="0.758" stop-color="#fff" stop-opacity="0.227"/>
      <stop offset="1" stop-color="#fff" stop-opacity="0"/>
    </linearGradient>
    <linearGradient id="linear-gradient-8" y1="0.5" x2="1" y2="0.5" gradientUnits="objectBoundingBox">
      <stop offset="0" stop-color="#fff" stop-opacity="0"/>
      <stop offset="0.242" stop-color="#fff" stop-opacity="0.227"/>
      <stop offset="0.795" stop-color="#fff" stop-opacity="0.788"/>
      <stop offset="1" stop-color="#fff"/>
    </linearGradient>
  </defs>
  <g id="Grupo_2996" data-name="Grupo 2996" transform="translate(-1262.822 113.578)">
    <g id="Grupo_2982" data-name="Grupo 2982" style="mix-blend-mode: overlay;isolation: isolate">
      <path id="Trazado_9168" data-name="Trazado 9168" d="M1612.691,191.874a1.247,1.247,0,0,0,0,.9,2.458,2.458,0,0,0,1.461.869,2.857,2.857,0,0,0,1.485.247,8.25,8.25,0,0,0,1.164-.246q.428-.129,1.07-.379c.133-.052.263-.114.389-.178,1.306-.661,6.973-2.725,8.2-3.773,1.374-1.172-.137-3.743-4.007-3.208a4.008,4.008,0,0,0-1.236.4l-.257.129c-.106.053-.211.11-.31.172-.553.34-1.044.668-1.452.973C1617.572,188.995,1612.8,191.458,1612.691,191.874Z" fill="#fff"/>
      <path id="Trazado_9169" data-name="Trazado 9169" d="M1637.879,179.57c71.922-26.485,129.369-34.088,198.688-37.42,37.774-1.817,67.425-.114,87.542,5.214,14.786,3.916,24.418,9.792,28.344,17.666,7.676,15.4-3.1,24.33-12.875,26.112a18.231,18.231,0,0,1-5.761.183,13.9,13.9,0,0,1-2.74-.661c-6.344-2.258-7.667-8.706-.467-14.114,6.446-4.845,7.753-15.86-16.478-22.446-.556-.153-1.121-.3-1.685-.446-33.1-8.539-81.854-8.143-152.447-.923-72.259,9.774-111.14,25.8-120.114,30.071-2.336.718-3.368.692-5.21-.053C1633.035,182.086,1633.144,181.248,1637.879,179.57Z" fill="url(#linear-gradient)"/>
    </g>
    <g id="Grupo_2983" data-name="Grupo 2983" style="mix-blend-mode: overlay;isolation: isolate">
      <path id="Trazado_9170" data-name="Trazado 9170" d="M1633.76,149.816a1.256,1.256,0,0,0,0,.9,2.465,2.465,0,0,0,1.462.868,2.869,2.869,0,0,0,1.485.248,8.3,8.3,0,0,0,1.164-.247c.285-.085.642-.212,1.069-.378.134-.052.264-.114.39-.178,1.306-.662,6.973-2.725,8.2-3.774,1.374-1.171-.137-3.743-4.008-3.207a3.982,3.982,0,0,0-1.235.395l-.257.128c-.106.053-.211.111-.31.172-.553.34-1.045.669-1.453.974C1638.641,146.938,1633.867,149.4,1633.76,149.816Z" fill="#fff"/>
      <path id="Trazado_9171" data-name="Trazado 9171" d="M1658.948,137.513c71.922-26.486,129.368-34.088,198.688-37.421,37.774-1.817,67.424-.114,87.542,5.214,14.786,3.917,24.417,9.792,28.344,17.666,7.675,15.4-3.1,24.331-12.875,26.112a18.172,18.172,0,0,1-5.761.183,13.9,13.9,0,0,1-2.74-.66c-6.344-2.258-7.667-8.707-.468-14.114,6.447-4.846,7.754-15.861-16.478-22.446-.555-.153-1.12-.3-1.685-.447-33.1-8.538-81.854-8.143-152.446-.923-72.26,9.775-111.14,25.8-120.114,30.072-2.337.717-3.368.691-5.21-.054C1654.1,140.029,1654.213,139.191,1658.948,137.513Z" fill="url(#linear-gradient)"/>
    </g>
    <g id="Grupo_2984" data-name="Grupo 2984" style="mix-blend-mode: overlay;isolation: isolate">
      <path id="Trazado_9172" data-name="Trazado 9172" d="M1662.937,105.279a1.252,1.252,0,0,0,0,.9,2.462,2.462,0,0,0,1.462.869,2.865,2.865,0,0,0,1.484.248,8.384,8.384,0,0,0,1.164-.247q.428-.129,1.07-.379c.133-.052.263-.114.389-.178,1.306-.661,6.973-2.725,8.2-3.773,1.374-1.172-.137-3.743-4.008-3.208a4.041,4.041,0,0,0-1.236.395l-.256.129c-.107.053-.212.111-.311.172-.553.34-1.044.668-1.452.973C1667.818,102.4,1663.044,104.863,1662.937,105.279Z" fill="#fff"/>
      <path id="Trazado_9173" data-name="Trazado 9173" d="M1688.125,92.975c71.922-26.485,129.369-34.088,198.688-37.42,37.774-1.817,67.425-.114,87.542,5.214,14.786,3.916,24.418,9.792,28.344,17.666,7.676,15.4-3.1,24.33-12.875,26.112a18.231,18.231,0,0,1-5.761.183,13.932,13.932,0,0,1-2.74-.661c-6.343-2.258-7.666-8.706-.467-14.114,6.446-4.845,7.753-15.86-16.478-22.446-.555-.152-1.12-.3-1.685-.446-33.1-8.539-81.854-8.143-152.447-.923-72.259,9.774-111.14,25.8-120.114,30.072-2.336.717-3.367.691-5.21-.054C1683.282,95.491,1683.39,94.653,1688.125,92.975Z" fill="url(#linear-gradient)"/>
    </g>
    <g id="Grupo_2985" data-name="Grupo 2985" style="mix-blend-mode: overlay;isolation: isolate">
      <path id="Trazado_9174" data-name="Trazado 9174" d="M1684.006,63.221a1.256,1.256,0,0,0,0,.9,2.465,2.465,0,0,0,1.462.868,2.869,2.869,0,0,0,1.485.248,8.279,8.279,0,0,0,1.164-.247c.285-.085.642-.212,1.07-.378.133-.052.263-.114.389-.178,1.306-.662,6.973-2.725,8.2-3.774,1.374-1.171-.137-3.743-4.007-3.207a3.981,3.981,0,0,0-1.236.4l-.257.128c-.106.053-.211.111-.31.172-.553.341-1.045.669-1.453.974C1688.887,60.343,1684.113,62.805,1684.006,63.221Z" fill="#fff"/>
      <path id="Trazado_9175" data-name="Trazado 9175" d="M1709.194,50.918c71.922-26.485,129.368-34.088,198.688-37.421,37.774-1.817,67.425-.114,87.542,5.214,14.786,3.917,24.418,9.792,28.344,17.666,7.676,15.4-3.1,24.331-12.875,26.112a18.172,18.172,0,0,1-5.761.183,13.829,13.829,0,0,1-2.74-.66c-6.344-2.258-7.667-8.707-.467-14.114,6.446-4.846,7.753-15.861-16.479-22.446-.555-.153-1.12-.3-1.684-.446-33.1-8.539-81.855-8.144-152.447-.923-72.26,9.774-111.14,25.8-120.114,30.071-2.336.717-3.368.691-5.21-.054C1704.35,53.434,1704.459,52.6,1709.194,50.918Z" fill="url(#linear-gradient)"/>
    </g>
    <g id="Grupo_2986" data-name="Grupo 2986" style="mix-blend-mode: overlay;isolation: isolate">
      <path id="Trazado_9176" data-name="Trazado 9176" d="M1705.01,18.917a1.258,1.258,0,0,0,0,.9,2.462,2.462,0,0,0,1.462.869,2.855,2.855,0,0,0,1.485.247,8.263,8.263,0,0,0,1.163-.246q.428-.129,1.07-.379c.133-.052.263-.114.389-.178,1.306-.661,6.973-2.725,8.2-3.773,1.374-1.172-.137-3.743-4.008-3.208a4.024,4.024,0,0,0-1.236.4l-.256.129c-.107.053-.212.11-.311.172-.553.34-1.044.668-1.452.973C1709.891,16.038,1705.117,18.5,1705.01,18.917Z" fill="#fff"/>
      <path id="Trazado_9177" data-name="Trazado 9177" d="M1730.2,6.613c71.922-26.485,129.369-34.088,198.688-37.42,37.774-1.817,67.425-.114,87.542,5.214,14.786,3.916,24.418,9.792,28.344,17.666,7.676,15.4-3.1,24.33-12.875,26.112a18.23,18.23,0,0,1-5.761.183,13.931,13.931,0,0,1-2.74-.661c-6.343-2.258-7.666-8.706-.467-14.114,6.446-4.845,7.753-15.86-16.478-22.446-.555-.153-1.12-.3-1.685-.446-33.1-8.539-81.854-8.143-152.447-.923-72.259,9.774-111.14,25.8-120.114,30.071-2.336.718-3.367.692-5.21-.053C1725.355,9.129,1725.463,8.291,1730.2,6.613Z" fill="url(#linear-gradient)"/>
    </g>
    <g id="Grupo_2987" data-name="Grupo 2987" style="mix-blend-mode: overlay;isolation: isolate">
      <path id="Trazado_9178" data-name="Trazado 9178" d="M1726.079-23.141a1.249,1.249,0,0,0,0,.9,2.457,2.457,0,0,0,1.461.868,2.869,2.869,0,0,0,1.485.248,8.277,8.277,0,0,0,1.164-.247c.285-.085.642-.212,1.07-.378.133-.052.263-.114.389-.178,1.306-.662,6.973-2.725,8.2-3.774,1.374-1.171-.137-3.743-4.007-3.207a3.981,3.981,0,0,0-1.236.395l-.257.128c-.106.053-.211.111-.31.172-.553.34-1.045.669-1.452.974C1730.96-26.019,1726.186-23.557,1726.079-23.141Z" fill="url(#linear-gradient)"/>
      <path id="Trazado_9179" data-name="Trazado 9179" d="M1751.267-35.444c71.922-26.486,129.369-34.088,198.688-37.421,37.774-1.817,67.425-.114,87.542,5.214,14.786,3.917,24.418,9.792,28.344,17.666,7.676,15.4-3.1,24.331-12.875,26.112a18.173,18.173,0,0,1-5.761.183,13.9,13.9,0,0,1-2.74-.66c-6.344-2.258-7.667-8.707-.467-14.114,6.446-4.846,7.753-15.861-16.479-22.446-.555-.153-1.12-.3-1.684-.446-33.1-8.539-81.854-8.144-152.447-.924-72.26,9.775-111.14,25.8-120.114,30.072-2.336.717-3.368.691-5.21-.054C1746.423-32.928,1746.532-33.766,1751.267-35.444Z" fill="url(#linear-gradient)"/>
    </g>
    <g id="Grupo_2988" data-name="Grupo 2988" style="mix-blend-mode: overlay;isolation: isolate">
      <path id="Trazado_9180" data-name="Trazado 9180" d="M1718.579-17.051a1.258,1.258,0,0,0,0-.9,2.462,2.462,0,0,0-1.462-.869,2.867,2.867,0,0,0-1.485-.248,8.4,8.4,0,0,0-1.163.247q-.429.129-1.07.379c-.133.052-.263.114-.389.177-1.306.662-6.973,2.726-8.2,3.774-1.374,1.172.137,3.743,4.008,3.208a4.051,4.051,0,0,0,1.236-.4l.256-.129c.107-.053.212-.111.311-.172.553-.34,1.044-.668,1.452-.973C1713.7-14.172,1718.472-16.635,1718.579-17.051Z" fill="url(#linear-gradient-8)"/>
      <path id="Trazado_9181" data-name="Trazado 9181" d="M1693.391-4.747c-71.922,26.485-129.369,34.088-198.689,37.42-37.773,1.817-67.424.114-87.542-5.214-14.785-3.916-24.417-9.792-28.344-17.666-7.675-15.4,3.1-24.33,12.875-26.112a18.237,18.237,0,0,1,5.762-.183,13.931,13.931,0,0,1,2.74.661c6.343,2.258,7.666,8.706.467,14.114-6.446,4.845-7.753,15.86,16.478,22.446.555.152,1.12.3,1.685.446,33.1,8.539,81.854,8.143,152.447.923,72.259-9.774,111.14-25.8,120.114-30.072,2.336-.717,3.367-.691,5.21.054C1698.234-7.263,1698.125-6.425,1693.391-4.747Z" fill="url(#linear-gradient-8)"/>
    </g>
    <g id="Grupo_2989" data-name="Grupo 2989" style="mix-blend-mode: overlay;isolation: isolate">
      <path id="Trazado_9182" data-name="Trazado 9182" d="M1729.845-63.152a1.254,1.254,0,0,0,0,.9,2.465,2.465,0,0,0,1.462.869,2.857,2.857,0,0,0,1.485.247,8.314,8.314,0,0,0,1.164-.246q.428-.129,1.069-.379c.134-.052.264-.114.39-.178,1.306-.661,6.973-2.725,8.2-3.773,1.374-1.172-.137-3.743-4.008-3.208a4.01,4.01,0,0,0-1.235.395l-.257.129c-.106.053-.211.11-.31.172-.553.34-1.045.668-1.453.973C1734.726-66.031,1729.952-63.568,1729.845-63.152Z" fill="url(#linear-gradient)"/>
      <path id="Trazado_9183" data-name="Trazado 9183" d="M1755.033-75.456c71.922-26.485,129.368-34.088,198.688-37.42,37.774-1.817,67.425-.114,87.542,5.214,14.786,3.916,24.417,9.792,28.344,17.666,7.675,15.4-3.1,24.33-12.875,26.112a18.231,18.231,0,0,1-5.761.183,13.9,13.9,0,0,1-2.74-.661c-6.344-2.258-7.667-8.706-.468-14.114,6.447-4.845,7.754-15.86-16.478-22.446-.555-.153-1.12-.3-1.685-.446-33.1-8.539-81.854-8.143-152.446-.923-72.26,9.774-111.14,25.8-120.114,30.071-2.337.718-3.368.692-5.21-.053C1750.189-72.94,1750.3-73.778,1755.033-75.456Z" fill="url(#linear-gradient)"/>
    </g>
    <g id="Grupo_2990" data-name="Grupo 2990" style="mix-blend-mode: overlay;isolation: isolate">
      <path id="Trazado_9184" data-name="Trazado 9184" d="M1722.344-57.062a1.256,1.256,0,0,0,0-.9,2.47,2.47,0,0,0-1.462-.869,2.877,2.877,0,0,0-1.485-.247,8.3,8.3,0,0,0-1.164.247c-.285.085-.642.212-1.069.378-.134.052-.263.114-.389.178-1.306.662-6.974,2.725-8.2,3.774-1.374,1.171.137,3.743,4.008,3.207a4,4,0,0,0,1.236-.4l.256-.128c.106-.053.211-.111.311-.172.553-.341,1.044-.669,1.452-.974C1717.463-54.184,1722.238-56.646,1722.344-57.062Z" fill="url(#linear-gradient-8)"/>
      <path id="Trazado_9185" data-name="Trazado 9185" d="M1697.157-44.759c-71.922,26.485-129.369,34.088-198.689,37.421-37.774,1.817-67.424.114-87.542-5.214-14.786-3.917-24.417-9.792-28.344-17.666-7.675-15.4,3.1-24.331,12.875-26.112a18.173,18.173,0,0,1,5.761-.183,13.855,13.855,0,0,1,2.741.66c6.343,2.258,7.666,8.707.467,14.114-6.447,4.846-7.753,15.861,16.478,22.446.555.153,1.12.3,1.685.446,33.1,8.539,81.854,8.143,152.446.923,72.26-9.774,111.14-25.8,120.115-30.071,2.336-.717,3.367-.691,5.209.054C1702-47.275,1701.891-46.437,1697.157-44.759Z" fill="url(#linear-gradient-8)"/>
    </g>
    <g id="Grupo_2991" data-name="Grupo 2991" style="mix-blend-mode: overlay;isolation: isolate">
      <path id="Trazado_9186" data-name="Trazado 9186" d="M1695.876,25.163a1.247,1.247,0,0,0,0-.9,2.458,2.458,0,0,0-1.461-.869,2.857,2.857,0,0,0-1.485-.247,8.278,8.278,0,0,0-1.164.246q-.428.129-1.07.379c-.133.052-.263.114-.389.178-1.306.661-6.973,2.725-8.2,3.773-1.374,1.172.137,3.743,4.007,3.208a4.006,4.006,0,0,0,1.236-.4l.257-.129c.106-.053.211-.11.31-.172.553-.34,1.045-.668,1.452-.973C1690.995,28.042,1695.769,25.579,1695.876,25.163Z" fill="#fff"/>
      <path id="Trazado_9187" data-name="Trazado 9187" d="M1670.688,37.467C1598.766,63.952,1541.319,71.555,1472,74.887c-37.774,1.817-67.425.114-87.542-5.214-14.786-3.916-24.418-9.792-28.344-17.666-7.676-15.4,3.1-24.33,12.875-26.112a18.231,18.231,0,0,1,5.761-.183,13.9,13.9,0,0,1,2.74.661c6.344,2.258,7.667,8.706.467,14.114-6.446,4.845-7.753,15.86,16.479,22.446.555.153,1.12.3,1.684.446,33.1,8.539,81.854,8.143,152.447.923,72.26-9.774,111.14-25.8,120.114-30.071,2.336-.718,3.368-.692,5.21.053C1675.532,34.951,1675.423,35.789,1670.688,37.467Z" fill="url(#linear-gradient-8)"/>
    </g>
    <g id="Grupo_2992" data-name="Grupo 2992" style="mix-blend-mode: overlay;isolation: isolate">
      <path id="Trazado_9188" data-name="Trazado 9188" d="M1674.051,69a1.249,1.249,0,0,0,0-.9,2.457,2.457,0,0,0-1.461-.868,2.869,2.869,0,0,0-1.485-.248,8.244,8.244,0,0,0-1.164.247q-.427.129-1.07.379a4.125,4.125,0,0,0-.389.177c-1.306.662-6.973,2.726-8.2,3.774-1.374,1.171.137,3.743,4.007,3.208a4.035,4.035,0,0,0,1.236-.395l.257-.129c.106-.053.211-.111.31-.172.553-.34,1.044-.669,1.452-.973C1669.17,71.874,1673.944,69.412,1674.051,69Z" fill="#fff"/>
      <path id="Trazado_9189" data-name="Trazado 9189" d="M1648.863,81.3c-71.922,26.485-129.369,34.088-198.688,37.42-37.774,1.817-67.425.114-87.542-5.214-14.786-3.917-24.418-9.792-28.344-17.666-7.676-15.4,3.1-24.33,12.875-26.112a18.173,18.173,0,0,1,5.761-.183,13.9,13.9,0,0,1,2.74.661c6.344,2.257,7.667,8.706.467,14.114-6.446,4.845-7.753,15.86,16.478,22.446.556.152,1.121.3,1.685.446,33.1,8.539,81.854,8.143,152.447.923,72.259-9.774,111.14-25.8,120.114-30.072,2.336-.717,3.368-.691,5.21.054C1653.707,78.784,1653.6,79.622,1648.863,81.3Z" fill="url(#linear-gradient-8)"/>
    </g>
    <g id="Grupo_2993" data-name="Grupo 2993" style="mix-blend-mode: overlay;isolation: isolate">
      <path id="Trazado_9190" data-name="Trazado 9190" d="M1652.982,111.054a1.257,1.257,0,0,0,0-.9,2.464,2.464,0,0,0-1.462-.869,2.878,2.878,0,0,0-1.485-.247,8.311,8.311,0,0,0-1.164.246q-.428.129-1.069.379c-.134.052-.264.114-.39.178-1.306.662-6.973,2.725-8.2,3.773-1.374,1.172.137,3.743,4.008,3.208a4.01,4.01,0,0,0,1.235-.395l.257-.128c.106-.054.211-.111.31-.172.554-.341,1.045-.669,1.453-.974C1648.1,113.932,1652.876,111.469,1652.982,111.054Z" fill="#fff"/>
      <path id="Trazado_9191" data-name="Trazado 9191" d="M1627.8,123.357c-71.923,26.485-129.369,34.088-198.689,37.42-37.774,1.817-67.424.114-87.542-5.214-14.786-3.916-24.417-9.792-28.344-17.666-7.675-15.4,3.1-24.33,12.875-26.112a18.2,18.2,0,0,1,5.761-.182,13.827,13.827,0,0,1,2.74.66c6.344,2.258,7.667,8.706.468,14.114-6.447,4.846-7.754,15.86,16.478,22.446.555.153,1.12.3,1.685.446,33.1,8.539,81.854,8.143,152.446.923,72.26-9.774,111.14-25.8,120.114-30.071,2.337-.718,3.368-.692,5.21.054C1632.638,120.841,1632.529,121.679,1627.8,123.357Z" fill="url(#linear-gradient-8)"/>
    </g>
    <g id="Grupo_2994" data-name="Grupo 2994" style="mix-blend-mode: overlay;isolation: isolate">
      <path id="Trazado_9192" data-name="Trazado 9192" d="M1626.259,155.906a1.253,1.253,0,0,0,0-.9,2.464,2.464,0,0,0-1.462-.869,2.869,2.869,0,0,0-1.485-.248,8.453,8.453,0,0,0-1.164.247q-.428.129-1.069.379c-.134.052-.264.114-.389.177-1.307.662-6.974,2.726-8.2,3.774-1.374,1.172.137,3.743,4.008,3.208a4.052,4.052,0,0,0,1.236-.4l.256-.129c.106-.053.211-.111.311-.172.553-.34,1.044-.668,1.452-.973C1621.378,158.785,1626.153,156.322,1626.259,155.906Z" fill="#fff"/>
      <path id="Trazado_9193" data-name="Trazado 9193" d="M1601.072,168.21C1529.15,194.7,1471.7,202.3,1402.383,205.63c-37.774,1.817-67.424.114-87.542-5.214-14.786-3.916-24.417-9.792-28.344-17.666-7.675-15.4,3.105-24.33,12.875-26.112a18.232,18.232,0,0,1,5.761-.183,13.9,13.9,0,0,1,2.74.661c6.344,2.258,7.667,8.706.468,14.114-6.447,4.845-7.754,15.86,16.478,22.446.555.152,1.12.3,1.685.446,33.1,8.539,81.854,8.143,152.446.923,72.26-9.774,111.14-25.8,120.115-30.072,2.336-.717,3.367-.691,5.209.054C1605.915,165.694,1605.806,166.532,1601.072,168.21Z" fill="url(#linear-gradient-8)"/>
    </g>
    <g id="Grupo_2995" data-name="Grupo 2995" style="mix-blend-mode: overlay;isolation: isolate">
      <path id="Trazado_9194" data-name="Trazado 9194" d="M1605.191,197.964a1.261,1.261,0,0,0,0-.9,2.466,2.466,0,0,0-1.462-.869,2.876,2.876,0,0,0-1.485-.247,8.259,8.259,0,0,0-1.163.247c-.286.085-.643.212-1.07.378-.133.052-.263.114-.389.178-1.306.662-6.973,2.725-8.2,3.774-1.374,1.171.137,3.743,4.008,3.207a4,4,0,0,0,1.236-.395l.256-.128c.107-.053.212-.111.311-.172.553-.341,1.044-.669,1.452-.974C1600.309,200.842,1605.084,198.38,1605.191,197.964Z" fill="#fff"/>
      <path id="Trazado_9195" data-name="Trazado 9195" d="M1580,210.267c-71.922,26.485-129.369,34.088-198.688,37.421-37.774,1.817-67.425.114-87.543-5.214-14.785-3.917-24.417-9.792-28.344-17.666-7.675-15.4,3.1-24.331,12.875-26.112a18.178,18.178,0,0,1,5.762-.183,13.863,13.863,0,0,1,2.74.66c6.343,2.258,7.666,8.707.467,14.114-6.446,4.846-7.753,15.861,16.478,22.446.555.153,1.12.3,1.685.446,33.1,8.539,81.854,8.143,152.447.923,72.259-9.774,111.14-25.8,120.114-30.071,2.336-.717,3.367-.691,5.21.054C1584.846,207.751,1584.737,208.589,1580,210.267Z" fill="url(#linear-gradient-8)"/>
    </g>
  </g>
</svg>
