<?xml version="1.0" standalone="no"?>
<!DOCTYPE svg PUBLIC "-//W3C//DTD SVG 20010904//EN"
 "http://www.w3.org/TR/2001/REC-SVG-20010904/DTD/svg10.dtd">
 <svg xmlns="http://www.w3.org/2000/svg" xmlns:xlink="http://www.w3.org/1999/xlink" width="143.838" height="52.851" viewBox="0 0 143.838 52.851">
  <defs>
    <linearGradient id="linear-gradient" x1="0.5" y1="0.986" x2="0.5" y2="-0.629" gradientUnits="objectBoundingBox">
      <stop offset="0" stop-color="#fff"/>
      <stop offset="0.038" stop-color="#fff" stop-opacity="0.871"/>
      <stop offset="0.099" stop-color="#fff" stop-opacity="0.69"/>
      <stop offset="0.166" stop-color="#fff" stop-opacity="0.525"/>
      <stop offset="0.237" stop-color="#fff" stop-opacity="0.384"/>
      <stop offset="0.313" stop-color="#fff" stop-opacity="0.263"/>
      <stop offset="0.397" stop-color="#fff" stop-opacity="0.169"/>
      <stop offset="0.49" stop-color="#fff" stop-opacity="0.094"/>
      <stop offset="0.598" stop-color="#fff" stop-opacity="0.039"/>
      <stop offset="0.736" stop-color="#fff" stop-opacity="0.008"/>
      <stop offset="1" stop-color="#fff" stop-opacity="0"/>
    </linearGradient>
    <linearGradient id="linear-gradient-2" x1="0.5" y1="0.986" x2="0.5" y2="-0.629" xlink:href="#linear-gradient"/>
    <linearGradient id="linear-gradient-3" x1="0.5" y1="0.984" x2="0.5" y2="-0.628" xlink:href="#linear-gradient"/>
    <linearGradient id="linear-gradient-4" x1="0.5" y1="0.982" x2="0.5" y2="-0.627" xlink:href="#linear-gradient"/>
    <linearGradient id="linear-gradient-5" x1="-0.478" y1="3.413" x2="-0.478" y2="2.493" gradientUnits="objectBoundingBox">
      <stop offset="0" stop-color="#fff" stop-opacity="0"/>
      <stop offset="0.27" stop-color="#fff" stop-opacity="0.008"/>
      <stop offset="0.394" stop-color="#fff" stop-opacity="0.039"/>
      <stop offset="0.487" stop-color="#fff" stop-opacity="0.086"/>
      <stop offset="0.566" stop-color="#fff" stop-opacity="0.161"/>
      <stop offset="0.636" stop-color="#fff" stop-opacity="0.251"/>
      <stop offset="0.699" stop-color="#fff" stop-opacity="0.365"/>
      <stop offset="0.756" stop-color="#fff" stop-opacity="0.502"/>
      <stop offset="0.81" stop-color="#fff" stop-opacity="0.659"/>
      <stop offset="0.859" stop-color="#fff" stop-opacity="0.835"/>
      <stop offset="0.899" stop-color="#fff"/>
    </linearGradient>
    <linearGradient id="linear-gradient-6" x1="358.299" y1="788.518" x2="359.299" y2="788.518" xlink:href="#linear-gradient"/>
    <linearGradient id="linear-gradient-7" x1="364.049" y1="37.113" x2="364.049" y2="36.193" xlink:href="#linear-gradient-5"/>
    <linearGradient id="linear-gradient-8" x1="269.911" y1="-253.947" x2="270.911" y2="-253.947" xlink:href="#linear-gradient"/>
  </defs>
  <g id="Group_2874" data-name="Group 2874" transform="translate(-1144.745 -1370.798)">
    <g id="Group_2853" data-name="Group 2853">
      <path id="Path_8867" data-name="Path 8867" d="M1208.613,1379.45a5.675,5.675,0,0,0-9.689,4.017v2.21a5.674,5.674,0,1,0,11.349,0v-2.21A5.488,5.488,0,0,0,1208.613,1379.45Zm.42,6.227a4.434,4.434,0,0,1-8.868,0v-2.21a4.434,4.434,0,1,1,8.868,0Zm-.42-6.227a5.675,5.675,0,0,0-9.689,4.017v2.21a5.674,5.674,0,1,0,11.349,0v-2.21A5.488,5.488,0,0,0,1208.613,1379.45Zm.42,6.227a4.434,4.434,0,0,1-8.868,0v-2.21a4.434,4.434,0,1,1,8.868,0Zm4.47-11.117a12.587,12.587,0,0,0-21.491,8.907v2.21a12.587,12.587,0,1,0,25.174,0v-2.21A12.188,12.188,0,0,0,1213.5,1374.56Zm2.442,11.117a11.346,11.346,0,1,1-22.692,0v-2.21a11.346,11.346,0,1,1,22.692,0ZM1204.6,1377.8a5.659,5.659,0,0,0-5.678,5.672v2.21a5.674,5.674,0,1,0,11.349,0v-2.21a5.659,5.659,0,0,0-5.671-5.672Zm4.431,7.882a4.434,4.434,0,0,1-8.868,0v-2.21a4.434,4.434,0,1,1,8.868,0Zm-.42-6.227a5.675,5.675,0,0,0-9.689,4.017v2.21a5.674,5.674,0,1,0,11.349,0v-2.21A5.488,5.488,0,0,0,1208.613,1379.45Zm.42,6.227a4.434,4.434,0,0,1-8.868,0v-2.21a4.434,4.434,0,1,1,8.868,0Zm-.42-6.227a5.675,5.675,0,0,0-9.689,4.017v2.21a5.674,5.674,0,1,0,11.349,0v-2.21A5.488,5.488,0,0,0,1208.613,1379.45Zm.42,6.227a4.434,4.434,0,0,1-8.868,0v-2.21a4.434,4.434,0,1,1,8.868,0Z" fill="#fff"/>
      <path id="Path_8868" data-name="Path 8868" d="M1245.176,1372.078a4,4,0,0,0-2.873-1.2c-.045,0-.085.006-.124.006a4.1,4.1,0,0,0-2.833,1.275,4.243,4.243,0,0,0-.708,1l-3.111,6.221a1.943,1.943,0,0,1-3.473,0l-3.111-6.221a4.444,4.444,0,0,0-.737-1.054.418.418,0,0,0-.051-.051,4.091,4.091,0,0,0-6.952,2.907v19.23a4.077,4.077,0,0,0,8.154,0v-4.725l.147.294.289.578a4.469,4.469,0,0,0,7.995,0l.288-.578.148-.294v4.725a4.077,4.077,0,0,0,8.153,0v-19.23A3.988,3.988,0,0,0,1245.176,1372.078Zm-.04,22.109a2.836,2.836,0,0,1-5.671,0v-8.267a.4.4,0,0,0-.765-.181l-1.734,3.462-.289.578a3.227,3.227,0,0,1-5.774,0l-.289-.578-1.728-3.462a.4.4,0,0,0-.765.181v8.267a2.853,2.853,0,0,1-2.838,2.833,2.854,2.854,0,0,1-2.839-2.833v-19.23a2.865,2.865,0,0,1,2.839-2.839,2.792,2.792,0,0,1,2.011.827,3.183,3.183,0,0,1,.538.765l3.117,6.221a3.178,3.178,0,0,0,5.688,0l3.111-6.221a2.791,2.791,0,0,1,.5-.7,2.828,2.828,0,0,1,1.966-.889,2.844,2.844,0,0,1,2.923,2.833Z" fill="#fff"/>
      <path id="Path_8869" data-name="Path 8869" d="M1189.315,1372.05a3.986,3.986,0,0,0-2.879-1.2h-11.824a4.076,4.076,0,0,0,0,8.153h1.359a.48.48,0,0,1,.476.482v14.7a4.077,4.077,0,0,0,8.154,0v-14.7a.482.482,0,0,1,.481-.482h1.354a4.067,4.067,0,0,0,2.879-6.952Zm-.878,4.878a2.73,2.73,0,0,1-2,.833h-1.354a1.722,1.722,0,0,0-1.722,1.723v14.7a2.836,2.836,0,0,1-5.672,0v-14.7a1.721,1.721,0,0,0-1.717-1.723h-1.359a2.836,2.836,0,0,1,0-5.671h11.824a2.861,2.861,0,0,1,2.839,2.838A2.743,2.743,0,0,1,1188.437,1376.928Z" fill="#fff"/>
      <path id="Path_8870" data-name="Path 8870" d="M1254.2,1370.8a4.083,4.083,0,0,0-4.074,4.079v19.31a4.077,4.077,0,0,0,8.154,0v-19.31A4.085,4.085,0,0,0,1254.2,1370.8Zm2.839,23.389a2.836,2.836,0,1,1-5.672,0v-19.31a2.836,2.836,0,0,1,5.672,0Z" fill="#fff"/>
    </g>
    <g id="Group_2854" data-name="Group 2854">
      <path id="Path_8871" data-name="Path 8871" d="M1193.254,1383.466a11.345,11.345,0,1,1,22.691,0v2.209a11.345,11.345,0,1,1-22.691,0Zm17.019,0a5.673,5.673,0,1,0-11.346,0v2.209a5.673,5.673,0,1,0,11.346,0Z" fill="url(#linear-gradient)"/>
      <path id="Path_8872" data-name="Path 8872" d="M1228.119,1394.185a2.837,2.837,0,0,1-5.673,0v-19.228a2.856,2.856,0,0,1,2.836-2.837,2.8,2.8,0,0,1,2.014.823,3.359,3.359,0,0,1,.539.765l3.111,6.222a3.181,3.181,0,0,0,5.691,0l3.111-6.222a2.931,2.931,0,0,1,.5-.7,2.834,2.834,0,0,1,1.965-.892,2.857,2.857,0,0,1,2.926,2.836v19.228a2.837,2.837,0,0,1-5.673,0v-8.267a.4.4,0,0,0-.765-.181l-1.731,3.463-.29.578a3.228,3.228,0,0,1-5.775,0l-.289-.578-1.731-3.463a.4.4,0,0,0-.765.181Z" fill="url(#linear-gradient-2)"/>
      <path id="Path_8873" data-name="Path 8873" d="M1177.689,1394.185v-14.7a1.718,1.718,0,0,0-1.719-1.719h-1.356a2.837,2.837,0,0,1,0-5.674h11.823a2.837,2.837,0,0,1,0,5.674h-1.356a1.719,1.719,0,0,0-1.719,1.719v14.7a2.836,2.836,0,0,1-2.836,2.836h0A2.837,2.837,0,0,1,1177.689,1394.185Z" fill="url(#linear-gradient-3)"/>
      <rect id="Rectangle_15499" data-name="Rectangle 15499" width="5.673" height="24.983" rx="2.837" transform="translate(1251.368 1372.038)" fill="url(#linear-gradient-4)"/>
    </g>
    <g id="Group_2869" data-name="Group 2869">
      <g id="Group_2855" data-name="Group 2855">
        <path id="Path_8874" data-name="Path 8874" d="M1184.565,1408.214a2.331,2.331,0,0,1,0-4.66,2.23,2.23,0,0,1,1.764.85.1.1,0,0,1,.021.081.105.105,0,0,1-.046.07l-.276.178a.1.1,0,0,1-.136-.022,1.684,1.684,0,0,0-1.327-.625,1.8,1.8,0,0,0,0,3.589,1.685,1.685,0,0,0,1.327-.625.1.1,0,0,1,.08-.038.105.105,0,0,1,.057.017l.277.185a.1.1,0,0,1,.023.15A2.249,2.249,0,0,1,1184.565,1408.214Z" fill="#fff"/>
        <path id="Path_8875" data-name="Path 8875" d="M1184.565,1403.657a2.125,2.125,0,0,1,1.683.811l-.276.178a1.8,1.8,0,0,0-1.407-.663,1.9,1.9,0,0,0,0,3.8,1.8,1.8,0,0,0,1.407-.664l.276.185a2.145,2.145,0,0,1-1.683.81,2.227,2.227,0,0,1,0-4.453m0-.207a2.434,2.434,0,0,0,0,4.867,2.354,2.354,0,0,0,1.845-.888.211.211,0,0,0,.043-.161.208.208,0,0,0-.09-.14l-.276-.185a.212.212,0,0,0-.115-.034.207.207,0,0,0-.16.075,1.583,1.583,0,0,1-1.247.588,1.692,1.692,0,0,1,0-3.383,1.583,1.583,0,0,1,1.247.588.2.2,0,0,0,.16.076.21.21,0,0,0,.112-.033l.276-.178a.207.207,0,0,0,.092-.14.2.2,0,0,0-.042-.162,2.334,2.334,0,0,0-1.845-.89Z" fill="#fff"/>
      </g>
      <g id="Group_2856" data-name="Group 2856">
        <rect id="Rectangle_15500" data-name="Rectangle 15500" width="0.539" height="4.506" rx="0.103" transform="translate(1188.327 1403.627)" fill="#fff"/>
        <path id="Path_8876" data-name="Path 8876" d="M1188.762,1403.731v4.3h-.332v-4.3h.332m0-.207h-.332a.207.207,0,0,0-.207.207v4.3a.207.207,0,0,0,.207.206h.332a.206.206,0,0,0,.206-.206v-4.3a.207.207,0,0,0-.206-.207Z" fill="#fff"/>
      </g>
      <g id="Group_2857" data-name="Group 2857">
        <path id="Path_8877" data-name="Path 8877" d="M1191.219,1408.134a.1.1,0,0,1-.1-.1v-4.3a.1.1,0,0,1,.1-.1h1.37a1.236,1.236,0,0,1,1.381,1.216,1.018,1.018,0,0,1-.5.9,1.126,1.126,0,0,1,.72,1.1c0,.786-.593,1.3-1.51,1.3Zm1.462-.532c.365,0,.978-.1.978-.763s-.613-.775-.978-.775h-1.033v1.538Zm-.092-2.064c.523,0,.849-.267.849-.695s-.318-.677-.849-.677h-.941v1.372Z" fill="#fff"/>
        <path id="Path_8878" data-name="Path 8878" d="M1192.589,1403.731a1.135,1.135,0,0,1,1.278,1.112.933.933,0,0,1-.639.9v.019a1.062,1.062,0,0,1,.86,1.075c0,.786-.614,1.192-1.407,1.192h-1.462v-4.3h1.37m-1.044,1.91h1.044c.608,0,.952-.332.952-.8s-.344-.781-.952-.781h-1.044v1.579m0,2.064h1.136c.608,0,1.081-.258,1.081-.866s-.473-.878-1.081-.878h-1.136v1.744m1.044-4.181h-1.37a.207.207,0,0,0-.207.207v4.3a.207.207,0,0,0,.207.206h1.462a1.422,1.422,0,0,0,1.614-1.4,1.23,1.23,0,0,0-.625-1.114,1.114,1.114,0,0,0,.4-.882,1.333,1.333,0,0,0-1.484-1.319Zm-.838.745h.838c.474,0,.745.209.745.574s-.278.591-.745.591h-.838v-1.165Zm0,1.9h.93c.4,0,.874.117.874.672s-.475.659-.874.659h-.93v-1.331Z" fill="#fff"/>
      </g>
      <g id="Group_2858" data-name="Group 2858">
        <path id="Path_8879" data-name="Path 8879" d="M1196.3,1408.134a.1.1,0,0,1-.1-.1v-4.3a.1.1,0,0,1,.1-.1h2.316a.1.1,0,0,1,.1.1v.331a.1.1,0,0,1-.1.1h-1.887v1.372h1.746a.1.1,0,0,1,.1.1v.326a.1.1,0,0,1-.1.1h-1.746v1.532h1.942a.1.1,0,0,1,.1.1v.326a.1.1,0,0,1-.1.1Z" fill="#fff"/>
        <path id="Path_8880" data-name="Path 8880" d="M1198.616,1403.731v.331h-1.99v1.579h1.849v.326h-1.849v1.738h2.045v.326H1196.3v-4.3h2.316m0-.207H1196.3a.207.207,0,0,0-.207.207v4.3a.207.207,0,0,0,.207.206h2.371a.207.207,0,0,0,.207-.206v-.326a.207.207,0,0,0-.207-.207h-1.839v-1.325h1.643a.206.206,0,0,0,.206-.206v-.326a.207.207,0,0,0-.206-.207h-1.643v-1.165h1.784a.207.207,0,0,0,.207-.207v-.331a.207.207,0,0,0-.207-.207Z" fill="#fff"/>
      </g>
      <g id="Group_2859" data-name="Group 2859">
        <path id="Path_8881" data-name="Path 8881" d="M1203.518,1408.134a.1.1,0,0,1-.087-.049l-1.092-1.759c-.063.005-.13.008-.2.008h-.769v1.7a.1.1,0,0,1-.1.1h-.325a.1.1,0,0,1-.1-.1v-4.3a.1.1,0,0,1,.1-.1h1.2c1.007,0,1.608.507,1.608,1.357a1.242,1.242,0,0,1-.855,1.231l1.091,1.761a.1.1,0,0,1-.088.158Zm-1.375-2.332c.713,0,1.076-.275,1.076-.818s-.363-.818-1.076-.818h-.769v1.636Z" fill="#fff"/>
        <path id="Path_8882" data-name="Path 8882" d="M1202.143,1403.731c.939,0,1.5.46,1.5,1.253a1.145,1.145,0,0,1-.909,1.173l1.161,1.874h-.381l-1.124-1.812c-.079.006-.165.012-.251.012h-.873v1.8h-.325v-4.3h1.2m-.873,2.174h.873c.755,0,1.179-.313,1.179-.921s-.424-.922-1.179-.922h-.873v1.843m.873-2.381h-1.2a.207.207,0,0,0-.207.207v4.3a.207.207,0,0,0,.207.206h.325a.207.207,0,0,0,.207-.206v-1.594h.666c.047,0,.1,0,.141,0l1.059,1.707a.207.207,0,0,0,.175.1h.381a.206.206,0,0,0,.176-.315l-1.027-1.657a1.331,1.331,0,0,0,.806-1.281c0-.9-.656-1.46-1.711-1.46Zm-.666.745h.666c.972,0,.972.538.972.715s0,.714-.972.714h-.666v-1.429Z" fill="#fff"/>
      </g>
      <g id="Group_2860" data-name="Group 2860">
        <path id="Path_8883" data-name="Path 8883" d="M1210.018,1408.134a.1.1,0,0,1-.1-.1v-3.347l-1.555,2.311a.107.107,0,0,1-.086.046h-.154a.107.107,0,0,1-.086-.046l-1.555-2.311v3.347a.1.1,0,0,1-.1.1h-.326a.1.1,0,0,1-.1-.1v-4.3a.1.1,0,0,1,.1-.1h.326a.1.1,0,0,1,.085.046l1.739,2.564,1.733-2.564a.1.1,0,0,1,.085-.046h.326a.1.1,0,0,1,.1.1v4.3a.1.1,0,0,1-.1.1Z" fill="#fff"/>
        <path id="Path_8884" data-name="Path 8884" d="M1210.344,1403.731v4.3h-.326v-3.686l-1.744,2.592h-.154l-1.744-2.592v3.686h-.326v-4.3h.326l1.824,2.69,1.818-2.69h.326m0-.207h-.326a.206.206,0,0,0-.171.091l-1.647,2.437-1.653-2.437a.207.207,0,0,0-.171-.091h-.326a.207.207,0,0,0-.207.207v4.3a.207.207,0,0,0,.207.206h.326a.206.206,0,0,0,.206-.206v-3.008l1.367,2.03a.205.205,0,0,0,.171.091h.154a.2.2,0,0,0,.171-.091l1.367-2.03v3.008a.206.206,0,0,0,.206.206h.326a.207.207,0,0,0,.207-.206v-4.3a.207.207,0,0,0-.207-.207Z" fill="#fff"/>
      </g>
      <g id="Group_2861" data-name="Group 2861">
        <path id="Path_8885" data-name="Path 8885" d="M1215.7,1408.134a.1.1,0,0,1-.1-.067l-.424-1.137h-1.816l-.423,1.137a.1.1,0,0,1-.1.067h-.35a.1.1,0,0,1-.1-.14l1.6-4.3a.1.1,0,0,1,.1-.068h.35a.1.1,0,0,1,.1.068l1.6,4.3a.1.1,0,0,1-.011.095.1.1,0,0,1-.085.045Zm-.72-1.742-.7-1.893-.71,1.893Z" fill="#fff"/>
        <path id="Path_8886" data-name="Path 8886" d="M1214.448,1403.731l1.6,4.3h-.351l-.448-1.2h-1.959l-.449,1.2h-.35l1.6-4.3h.35m-1.032,2.764h1.714l-.854-2.291-.86,2.291m1.032-2.971h-.35a.206.206,0,0,0-.193.135l-1.6,4.3a.21.21,0,0,0,.024.19.207.207,0,0,0,.17.089h.35a.207.207,0,0,0,.194-.134l.4-1.07h1.672l.4,1.07a.205.205,0,0,0,.193.134h.351a.207.207,0,0,0,.193-.279l-1.6-4.3a.206.206,0,0,0-.194-.135Zm-.733,2.764.561-1.494.557,1.494Z" fill="#fff"/>
      </g>
      <g id="Group_2862" data-name="Group 2862">
        <path id="Path_8887" data-name="Path 8887" d="M1220.776,1408.134a.106.106,0,0,1-.088-.049l-1.091-1.759c-.064.005-.13.008-.2.008h-.769v1.7a.1.1,0,0,1-.1.1h-.325a.1.1,0,0,1-.1-.1v-4.3a.1.1,0,0,1,.1-.1h1.2c1.007,0,1.609.507,1.609,1.357a1.242,1.242,0,0,1-.855,1.231l1.091,1.761a.1.1,0,0,1-.088.158Zm-1.376-2.332c.714,0,1.076-.275,1.076-.818s-.362-.818-1.076-.818h-.769v1.636Z" fill="#fff"/>
        <path id="Path_8888" data-name="Path 8888" d="M1219.4,1403.731c.94,0,1.505.46,1.505,1.253a1.145,1.145,0,0,1-.909,1.173l1.161,1.874h-.381l-1.124-1.812c-.08.006-.166.012-.252.012h-.872v1.8h-.325v-4.3h1.2m-.872,2.174h.872c.756,0,1.18-.313,1.18-.921s-.424-.922-1.18-.922h-.872v1.843m.872-2.381h-1.2a.207.207,0,0,0-.207.207v4.3a.206.206,0,0,0,.207.206h.325a.207.207,0,0,0,.207-.206v-1.594h.665c.048,0,.1,0,.142,0l1.059,1.707a.207.207,0,0,0,.175.1h.381a.206.206,0,0,0,.176-.315l-1.027-1.657a1.331,1.331,0,0,0,.806-1.281c0-.9-.656-1.46-1.712-1.46Zm-.665.745h.665c.973,0,.973.538.973.715s0,.714-.973.714h-.665v-1.429Z" fill="#fff"/>
      </g>
      <g id="Group_2863" data-name="Group 2863">
        <path id="Path_8889" data-name="Path 8889" d="M1225.661,1408.134a.105.105,0,0,1-.075-.032l-1.843-1.916v1.845a.1.1,0,0,1-.1.1h-.332a.1.1,0,0,1-.1-.1v-4.3a.1.1,0,0,1,.1-.1h.332a.1.1,0,0,1,.1.1v1.8l1.687-1.865a.107.107,0,0,1,.077-.034h.436a.1.1,0,0,1,.095.062.105.105,0,0,1-.018.111l-1.852,2.054,2.028,2.1a.1.1,0,0,1-.075.175Z" fill="#fff"/>
        <path id="Path_8890" data-name="Path 8890" d="M1225.943,1403.731l-1.916,2.125,2.094,2.175h-.46l-2.021-2.1v2.1h-.332v-4.3h.332v2.064l1.867-2.064h.436m0-.207h-.436a.207.207,0,0,0-.153.068l-1.508,1.666v-1.527a.206.206,0,0,0-.206-.207h-.332a.207.207,0,0,0-.207.207v4.3a.207.207,0,0,0,.207.206h.332a.206.206,0,0,0,.206-.206v-1.588l1.666,1.731a.206.206,0,0,0,.149.063h.46a.207.207,0,0,0,.149-.35l-1.961-2.036,1.788-1.982a.207.207,0,0,0-.154-.345Zm0,.414h0Z" fill="#fff"/>
      </g>
      <g id="Group_2864" data-name="Group 2864">
        <path id="Path_8891" data-name="Path 8891" d="M1228.272,1408.134a.1.1,0,0,1-.1-.1v-4.3a.1.1,0,0,1,.1-.1h2.316a.1.1,0,0,1,.1.1v.331a.1.1,0,0,1-.1.1H1228.7v1.372h1.745a.1.1,0,0,1,.1.1v.326a.1.1,0,0,1-.1.1H1228.7v1.532h1.942a.1.1,0,0,1,.1.1v.326a.1.1,0,0,1-.1.1Z" fill="#fff"/>
        <path id="Path_8892" data-name="Path 8892" d="M1230.588,1403.731v.331h-1.99v1.579h1.848v.326H1228.6v1.738h2.045v.326h-2.371v-4.3h2.316m0-.207h-2.316a.207.207,0,0,0-.207.207v4.3a.207.207,0,0,0,.207.206h2.371a.207.207,0,0,0,.207-.206v-.326a.207.207,0,0,0-.207-.207H1228.8v-1.325h1.642a.206.206,0,0,0,.207-.206v-.326a.207.207,0,0,0-.207-.207H1228.8v-1.165h1.784a.207.207,0,0,0,.207-.207v-.331a.207.207,0,0,0-.207-.207Z" fill="#fff"/>
      </g>
      <g id="Group_2865" data-name="Group 2865">
        <path id="Path_8893" data-name="Path 8893" d="M1233.906,1408.134a.1.1,0,0,1-.1-.1v-3.865h-1.07a.1.1,0,0,1-.1-.1v-.331a.1.1,0,0,1,.1-.1h2.679a.1.1,0,0,1,.1.1v.331a.1.1,0,0,1-.1.1h-1.076v3.865a.1.1,0,0,1-.1.1Z" fill="#fff"/>
        <path id="Path_8894" data-name="Path 8894" d="M1235.411,1403.731v.331h-1.18v3.969h-.325v-3.969h-1.174v-.331h2.679m0-.207h-2.679a.207.207,0,0,0-.206.207v.331a.206.206,0,0,0,.206.207h.967v3.762a.206.206,0,0,0,.207.206h.325a.207.207,0,0,0,.207-.206v-3.762h.973a.206.206,0,0,0,.206-.207v-.331a.206.206,0,0,0-.206-.207Z" fill="#fff"/>
      </g>
      <g id="Group_2866" data-name="Group 2866">
        <rect id="Rectangle_15501" data-name="Rectangle 15501" width="0.538" height="4.506" rx="0.103" transform="translate(1237.581 1403.627)" fill="#fff"/>
        <path id="Path_8895" data-name="Path 8895" d="M1238.016,1403.731v4.3h-.332v-4.3h.332m0-.207h-.332a.206.206,0,0,0-.206.207v4.3a.206.206,0,0,0,.206.206h.332a.207.207,0,0,0,.207-.206v-4.3a.207.207,0,0,0-.207-.207Z" fill="#fff"/>
      </g>
      <g id="Group_2867" data-name="Group 2867">
        <path id="Path_8896" data-name="Path 8896" d="M1243.416,1408.134a.106.106,0,0,1-.085-.044l-2.429-3.472v3.413a.1.1,0,0,1-.1.1h-.325a.1.1,0,0,1-.1-.1v-4.3a.1.1,0,0,1,.1-.1h.325a.1.1,0,0,1,.085.045l2.428,3.472v-3.413a.1.1,0,0,1,.1-.1h.325a.1.1,0,0,1,.1.1v4.3a.1.1,0,0,1-.1.1Z" fill="#fff"/>
        <path id="Path_8897" data-name="Path 8897" d="M1243.741,1403.731v4.3h-.325l-2.617-3.741v3.741h-.325v-4.3h.325l2.617,3.741v-3.741h.325m0-.207h-.325a.207.207,0,0,0-.207.207v3.084l-2.241-3.2a.2.2,0,0,0-.169-.088h-.325a.207.207,0,0,0-.207.207v4.3a.206.206,0,0,0,.207.206h.325a.207.207,0,0,0,.207-.206v-3.085l2.24,3.2a.208.208,0,0,0,.17.088h.325a.206.206,0,0,0,.207-.206v-4.3a.207.207,0,0,0-.207-.207Z" fill="#fff"/>
      </g>
      <g id="Group_2868" data-name="Group 2868">
        <path id="Path_8898" data-name="Path 8898" d="M1248.19,1408.214a2.331,2.331,0,0,1,0-4.66,2.232,2.232,0,0,1,1.764.85.106.106,0,0,1,.021.081.109.109,0,0,1-.046.07l-.277.178a.1.1,0,0,1-.056.016.1.1,0,0,1-.08-.038,1.707,1.707,0,0,0-1.326-.625,1.8,1.8,0,0,0,0,3.589,1.487,1.487,0,0,0,1.551-1.537h-1.435a.1.1,0,0,1-.1-.1v-.325a.1.1,0,0,1,.1-.1h1.868a.1.1,0,0,1,.1.1v2.322a.1.1,0,0,1-.1.1h-.215a.1.1,0,0,1-.1-.094l-.053-.594A1.9,1.9,0,0,1,1248.19,1408.214Z" fill="#fff"/>
        <path id="Path_8899" data-name="Path 8899" d="M1248.19,1403.657a2.128,2.128,0,0,1,1.683.811l-.277.178a1.805,1.805,0,0,0-1.406-.663,1.9,1.9,0,0,0,0,3.8,1.616,1.616,0,0,0,1.658-1.745h-1.542v-.325h1.868v2.322h-.215l-.08-.909a1.78,1.78,0,0,1-1.689.988,2.227,2.227,0,0,1,0-4.453m0-.207a2.434,2.434,0,0,0,0,4.867,2.045,2.045,0,0,0,1.533-.611l.03.343a.206.206,0,0,0,.206.188h.215a.206.206,0,0,0,.206-.206v-2.322a.207.207,0,0,0-.206-.207h-1.868a.207.207,0,0,0-.206.207v.325a.207.207,0,0,0,.206.207h1.321a1.375,1.375,0,0,1-1.437,1.331,1.692,1.692,0,0,1,0-3.383,1.6,1.6,0,0,1,1.246.588.206.206,0,0,0,.272.043l.277-.178a.21.21,0,0,0,.092-.14.208.208,0,0,0-.042-.162,2.335,2.335,0,0,0-1.845-.89Z" fill="#fff"/>
      </g>
    </g>
    <g id="Group_2871" data-name="Group 2871">
      <g id="Group_2870" data-name="Group 2870">
        <path id="Path_8900" data-name="Path 8900" d="M1288.287,1384.2c1.794,15.741-7.9,27.809-25.524,39.451-3.927-5.723-2.918-4.173-6.567-9.532,11.954-7.893,18.374-17.152,18.311-26.287a7.257,7.257,0,0,0,7.5,4.719A7.4,7.4,0,0,0,1288.287,1384.2Z" fill="url(#linear-gradient-5)"/>
      </g>
      <path id="Path_8901" data-name="Path 8901" d="M1281.22,1384.672a1.514,1.514,0,1,1-1.333,1.676,1.515,1.515,0,0,1,1.333-1.676" fill="#fff"/>
      <path id="Path_8902" data-name="Path 8902" d="M1287,1386.076a5.605,5.605,0,1,1-5.7-5.5,5.611,5.611,0,0,1,5.7,5.5" fill="url(#linear-gradient-6)"/>
      <path id="Path_8903" data-name="Path 8903" d="M1288.538,1385.36a7.2,7.2,0,0,0-9.91-5.825c-.2.085-.4.175-.6.277s-.379.21-.561.329-.351.244-.521.38a7.179,7.179,0,0,0-2.7,6.47,7.457,7.457,0,0,0,.255,1.247,7.082,7.082,0,0,0,1.037,2.125c.131.175.261.34.4.5.068.079.141.164.215.238s.147.153.227.232a7.193,7.193,0,0,0,12.108-4.017A7.281,7.281,0,0,0,1288.538,1385.36Zm-7.791-4.822a5.677,5.677,0,1,1-5,6.283A5.68,5.68,0,0,1,1280.747,1380.538Z" fill="#fff"/>
    </g>
    <g id="Group_2873" data-name="Group 2873">
      <g id="Group_2872" data-name="Group 2872">
        <path id="Path_8904" data-name="Path 8904" d="M1145.042,1384.2c-1.794,15.741,7.9,27.809,25.523,39.451,3.928-5.723,2.919-4.173,6.568-9.532-11.954-7.893-18.375-17.152-18.312-26.287a7.255,7.255,0,0,1-7.5,4.719A7.4,7.4,0,0,1,1145.042,1384.2Z" fill="url(#linear-gradient-7)"/>
      </g>
      <path id="Path_8905" data-name="Path 8905" d="M1152.109,1384.672a1.514,1.514,0,1,1-1.676,1.333,1.515,1.515,0,0,1,1.676-1.333" fill="#fff"/>
      <path id="Path_8906" data-name="Path 8906" d="M1146.333,1386.076a5.6,5.6,0,1,1,5.5,5.7,5.611,5.611,0,0,1-5.5-5.7" fill="url(#linear-gradient-8)"/>
      <path id="Path_8907" data-name="Path 8907" d="M1144.836,1387.32a7.193,7.193,0,0,0,12.108,4.017c.08-.079.153-.153.227-.232s.147-.159.215-.238c.142-.164.272-.329.4-.5a7.056,7.056,0,0,0,1.036-2.125,7.457,7.457,0,0,0,.255-1.247,7.177,7.177,0,0,0-2.7-6.47c-.17-.136-.34-.261-.522-.38s-.368-.227-.56-.329-.391-.192-.595-.277a7.2,7.2,0,0,0-9.91,5.825A7.281,7.281,0,0,0,1144.836,1387.32Zm12.743-.5a5.677,5.677,0,1,1-5-6.283A5.687,5.687,0,0,1,1157.579,1386.821Z" fill="#fff"/>
    </g>
  </g>
</svg>
