<?xml version="1.0" standalone="no"?>
<!DOCTYPE svg PUBLIC "-//W3C//DTD SVG 20010904//EN"
 "http://www.w3.org/TR/2001/REC-SVG-20010904/DTD/svg10.dtd">
<svg xmlns="http://www.w3.org/2000/svg" width="39.804" height="41.614" viewBox="0 0 39.804 41.614">
  <g id="Group_3030" data-name="Group 3030" transform="translate(-1797.963 -509.167)">
    <path id="Path_9296" data-name="Path 9296" d="M1824.463,530.615a.905.905,0,0,0,1.279-1.281l-7.237-7.237a.9.9,0,0,0-.82-.246l-.018,0c-.023.005-.045.01-.068.017l-.023.008-.06.022-.022.011a.579.579,0,0,0-.057.027l-.021.013a.617.617,0,0,0-.055.033l-.023.017a.521.521,0,0,0-.047.035c-.017.014-.033.029-.049.045l-.016.014-7.237,7.237a.9.9,0,0,0,1.279,1.279l5.692-5.692v24.955a.9.9,0,1,0,1.809,0V524.921Z" fill="#fff"/>
    <path id="Path_9297" data-name="Path 9297" d="M1797.963,529.07a19.925,19.925,0,0,0,13.269,18.764.9.9,0,0,0,.6-1.706,18.091,18.091,0,1,1,12.063,0,.905.905,0,0,0,.6,1.707,19.9,19.9,0,1,0-26.536-18.766Z" fill="#fff"/>
  </g>
</svg>
