<?xml version="1.0" standalone="no"?>
<!DOCTYPE svg PUBLIC "-//W3C//DTD SVG 20010904//EN"
 "http://www.w3.org/TR/2001/REC-SVG-20010904/DTD/svg10.dtd">
 <svg id="Group_2840" data-name="Group 2840" xmlns="http://www.w3.org/2000/svg" width="13.638" height="13.638" viewBox="0 0 13.638 13.638">
  <path id="Path_8654" data-name="Path 8654" d="M1409.646,1446.042c1.821,0,2.037.007,2.756.039a3.8,3.8,0,0,1,1.266.235,2.258,2.258,0,0,1,1.294,1.294,3.783,3.783,0,0,1,.235,1.267c.033.719.04.934.04,2.755s-.007,2.037-.04,2.756a3.771,3.771,0,0,1-.235,1.266,2.258,2.258,0,0,1-1.294,1.294,3.749,3.749,0,0,1-1.266.235c-.719.033-.935.04-2.756.04s-2.036-.007-2.755-.04a3.757,3.757,0,0,1-1.267-.235,2.258,2.258,0,0,1-1.294-1.294,3.8,3.8,0,0,1-.235-1.266c-.032-.719-.039-.935-.039-2.756s.007-2.036.039-2.755a3.812,3.812,0,0,1,.235-1.267,2.258,2.258,0,0,1,1.294-1.294,3.808,3.808,0,0,1,1.267-.235c.719-.032.934-.039,2.755-.039m0-1.229c-1.852,0-2.084.008-2.811.041a4.994,4.994,0,0,0-1.656.317,3.487,3.487,0,0,0-1.994,1.994,4.993,4.993,0,0,0-.317,1.656c-.033.727-.041.959-.041,2.811s.008,2.084.041,2.812a4.986,4.986,0,0,0,.317,1.655,3.48,3.48,0,0,0,1.994,1.994,5,5,0,0,0,1.656.317c.727.034.959.041,2.811.041s2.084-.007,2.812-.041a5,5,0,0,0,1.655-.317,3.48,3.48,0,0,0,1.994-1.994,4.99,4.99,0,0,0,.317-1.655c.033-.728.041-.96.041-2.812s-.008-2.084-.041-2.811a5,5,0,0,0-.317-1.656,3.488,3.488,0,0,0-1.994-1.994,4.993,4.993,0,0,0-1.655-.317c-.728-.033-.96-.041-2.812-.041" transform="translate(-1402.827 -1444.813)" fill="#fff"/>
  <path id="Path_8655" data-name="Path 8655" d="M1409.646,1448.13a3.5,3.5,0,1,0,3.5,3.5,3.5,3.5,0,0,0-3.5-3.5m0,5.775a2.273,2.273,0,1,1,2.273-2.273,2.273,2.273,0,0,1-2.273,2.273" transform="translate(-1402.827 -1444.813)" fill="#fff"/>
  <path id="Path_8656" data-name="Path 8656" d="M1414.1,1447.992a.818.818,0,1,1-.819-.818.819.819,0,0,1,.819.818" transform="translate(-1402.827 -1444.813)" fill="#fff"/>
</svg>
