<?xml version="1.0" standalone="no"?>
<!DOCTYPE svg PUBLIC "-//W3C//DTD SVG 20010904//EN"
 "http://www.w3.org/TR/2001/REC-SVG-20010904/DTD/svg10.dtd">
<svg xmlns="http://www.w3.org/2000/svg" xmlns:xlink="http://www.w3.org/1999/xlink" width="117.495" height="58.184" viewBox="0 0 117.495 58.184">
  <defs>
    <linearGradient id="linear-gradient" x1="-7.299" y1="31.172" x2="-7.299" y2="29.866" gradientUnits="objectBoundingBox">
      <stop offset="0.003" stop-color="#b2b2b2"/>
      <stop offset="0.826" stop-color="#dbdbdb"/>
      <stop offset="1" stop-color="#e5e5e5"/>
    </linearGradient>
    <linearGradient id="linear-gradient-2" x1="-544.684" y1="328.839" x2="-544.103" y2="328.839" gradientUnits="objectBoundingBox">
      <stop offset="0.003" stop-color="#989898"/>
      <stop offset="1" stop-color="#f1f1f1"/>
    </linearGradient>
    <linearGradient id="linear-gradient-3" x1="0.596" y1="12.392" x2="1.561" y2="12.392" xlink:href="#linear-gradient"/>
    <linearGradient id="linear-gradient-4" x1="-79.772" y1="-90.236" x2="-78.772" y2="-90.236" xlink:href="#linear-gradient"/>
  </defs>
  <path id="Path_8169" data-name="Path 8169" d="M2490.093,73.123a1.246,1.246,0,0,1-.523-.091,1.54,1.54,0,0,1-.757-.87,15.106,15.106,0,0,1-.65-2.883l-.054-.3a48.935,48.935,0,0,1-.708-5.149.382.382,0,0,0-.388-.351.368.368,0,0,0-.327.19,9.066,9.066,0,0,1-2.649,2.878,8.755,8.755,0,0,1-1.96,1.085,5.01,5.01,0,0,1-1.784.35,4.234,4.234,0,0,1-1.573-.3c-1.561-.637-3.058-2.232-4.451-4.741-.221-.4-.433-.822-.632-1.265a.441.441,0,0,0-.847.169v.029a22.594,22.594,0,0,0,.545,5.789c.51,1.966.5,3.327-.047,4.159a1.964,1.964,0,0,1-1.4.859,1.4,1.4,0,0,1-.21.014,5.136,5.136,0,0,1-.839-.094,6.708,6.708,0,0,1-2.8-1.007,6.051,6.051,0,0,1-1.2-1.378c-1.359-1.926-3.394-6.613-6.046-13.928q-.552-1.524-.983-2.7-.149.719-.315,1.539c-1.521,7.468-2.781,12.064-3.853,14.051a5.013,5.013,0,0,1-.985,1.408,5.876,5.876,0,0,1-2.649,1.076,4.577,4.577,0,0,1-.869.114,1.352,1.352,0,0,1-.166-.009c-1.775-.244-2.517-1.911-2.208-4.954a22.436,22.436,0,0,0-.364-5.79c-.214-1.258-.521-2.677-.915-4.216a84.247,84.247,0,0,0-4.628-13.14,38.906,38.906,0,0,0-3.209-6,1.434,1.434,0,0,1-.107-1.511,1.778,1.778,0,0,1,1.572-.894,2.057,2.057,0,0,1,.794.162l.043.018a13.291,13.291,0,0,1,5.429,5.051,69.183,69.183,0,0,1,5.849,16.85l.013.059a.2.2,0,0,0,.206.167.2.2,0,0,0,.213-.189l.685-6.207a44.429,44.429,0,0,1,.819-5.219l.012-.042a12.594,12.594,0,0,1,.887-2.482A8.777,8.777,0,0,1,2457.4,41.7a4.513,4.513,0,0,1,2.539-.875,2.273,2.273,0,0,1,.309.02c1.289.177,2.3,1.505,2.772,3.642.013.06.189.633.411,1.359.521,1.7,1.394,4.559,1.881,6.326l1.67,6.224a.2.2,0,0,0,.2.157.206.206,0,0,0,.215-.2,62.672,62.672,0,0,1,3.188-16.939,10.979,10.979,0,0,1,4.646-5.2l.043-.02a1.9,1.9,0,0,1,.818-.183,2.02,2.02,0,0,1,1.7.927,1.414,1.414,0,0,1,.068,1.425,57.712,57.712,0,0,0-2.25,5.39c.094-.019.206-.048.332-.082a7.6,7.6,0,0,1,2.074-.292,9.381,9.381,0,0,1,1.42.115,10.642,10.642,0,0,1,4.453,2.055l.06.048a.594.594,0,0,0,.376.139.6.6,0,0,0,.474-.233.566.566,0,0,0,.1-.5c-.576-2.295-1.273-4.583-2.07-6.8a.179.179,0,0,1,.009-.143.177.177,0,0,1,.11-.092l.613-.182a26.251,26.251,0,0,1,3.921-.635c.129-.012.258-.018.382-.018,1.435,0,2.495.834,3.151,2.479a8.737,8.737,0,0,1,.374,1.216c.6,2.519,1.135,5.194,1.579,7.952.158,1.812.256,2.646.313,3.028.047-.062.106-.14.177-.237a34.75,34.75,0,0,0,3.58-6.6,26.273,26.273,0,0,0,1.674-5.151c.474-3.443.764-5.372.887-5.892a1.864,1.864,0,0,1,.928-1.4,1.283,1.283,0,0,1,.315-.133,1.372,1.372,0,0,1,.337-.042c.821,0,1.744.714,2.82,2.183a6.806,6.806,0,0,1,.962,1.64,5.985,5.985,0,0,1,.189,3.728,31.423,31.423,0,0,1-3.359,6.8,53.026,53.026,0,0,1-5.177,7.29l-1.178,1.33c1.476,1.688,2.879,3.238,4.175,4.615a33.027,33.027,0,0,1,1-5.834,11.381,11.381,0,0,1,2.34-4.143,6.852,6.852,0,0,1,3.687-1.471,3.99,3.99,0,0,1,.615-.049,4.769,4.769,0,0,1,3.028,1.219,5.475,5.475,0,0,1,1.794,2.833l.2.853a.19.19,0,0,1,0,.034c.106,2.5-1.876,5.074-5.89,7.642a1.475,1.475,0,0,0-.674,1.373,17.4,17.4,0,0,0,.427,2.855,2.439,2.439,0,0,0,2.586,1.929,5.238,5.238,0,0,0,.774-.061c1.738-.273,3.109-2.176,4.074-5.654a72.792,72.792,0,0,0,1.708-7.2c.03-.582.08-1.052.138-1.6.047-.439.1-.935.156-1.608.266-3.134.256-3.448.251-3.635a1.311,1.311,0,0,1,.387-.853,1.167,1.167,0,0,1,.715-.445,3.555,3.555,0,0,1,.534-.043c1.514,0,2.568,1.084,3.132,3.223.3,1.159.236,1.837-.1,5.093l-.1.95-.007.172a.042.042,0,0,0,.035.011.251.251,0,0,0,.046,0,9.635,9.635,0,0,0,2.427-1.355c5.166-3.319,7.345-7.037,6.479-11.052a5.6,5.6,0,0,0-2.28-2.639,7.277,7.277,0,0,0-4.4-1.271c-.239,0-.486.008-.736.023-.28.017-.565.048-.846.091-1.839.282-6.4,2.536-6.429,3.568-.043,1.293-.439,2.006-1.175,2.119a1.423,1.423,0,0,1-.21.015,1.84,1.84,0,0,1-.228-.015,4.724,4.724,0,0,1-1.911-.526,2.2,2.2,0,0,1-.946-1.252,3.071,3.071,0,0,1,.5-2.269c.828-1.428,5.446-4.372,9.149-5.036a18.522,18.522,0,0,1,2.769-.2,14.727,14.727,0,0,1,6.057,1.1,10.012,10.012,0,0,1,4.854,5.158,7.219,7.219,0,0,1,.374,1.067,10.3,10.3,0,0,1-.78,6.673c-1.205,2.846-4.09,5.6-8.575,8.187-1.176.641-1.707.948-1.933,1.091a10.409,10.409,0,0,0,1.821,1.19,12.365,12.365,0,0,0,2.772,1.336,4.155,4.155,0,0,0,.881.1,3.912,3.912,0,0,0,.6-.046c1.484-.228,2.882-1.3,4.155-3.177.728-1.147,1.275-1.714,1.718-1.782l.027,0a1.021,1.021,0,0,1,1.133.748,4.425,4.425,0,0,1-.559,2.6c-1.5,3.3-3.75,5.2-6.7,5.651a3.813,3.813,0,0,1-.575.041,9.529,9.529,0,0,1-2.539-.44,16.976,16.976,0,0,1-3.552-1.454l-.331-.179a17.5,17.5,0,0,0-4.265-1.866,15.217,15.217,0,0,1-2.022,4.461,9.726,9.726,0,0,1-5.811,4.231c-.219.053-.453.1-.716.141a9.546,9.546,0,0,1-1.481.113c-.116,0-.233,0-.351,0a8.006,8.006,0,0,1-2.655-.489.169.169,0,0,1-.03-.015l-.408-.248a6.892,6.892,0,0,1-1.588-1.327,12.891,12.891,0,0,1-1.584-2.088c-1.951-1.766-4.384-4.044-7.235-6.776-.021,10.664-.051,11.247-.068,11.562,0,.044,0,.083-.006.144a1.4,1.4,0,0,1-.8,1.092,5.534,5.534,0,0,1-.544.242c-.167.059-.311.1-.442.137A5.8,5.8,0,0,1,2490.093,73.123Zm-10.84-25.3a1.908,1.908,0,0,0-1.949,1.845c0,.386,0,.81.008,1.273a38.108,38.108,0,0,0,.42,5.962,13.748,13.748,0,0,0,1.343,3.92c.5.808.808,1.3.926,1.467a1.826,1.826,0,0,0,1.5.745,1.327,1.327,0,0,0,.725-.18c.815-.574,1.051-1.306,1.439-3.527a13.649,13.649,0,0,0,.149-4.1,10.777,10.777,0,0,0-.522-2.483,14.351,14.351,0,0,0-1.915-3.358c-.223-.312-.437-.564-.61-.766l-.12-.141c-.033-.04-.069-.079-.107-.118A1.778,1.778,0,0,0,2479.253,47.823Zm28.06,4.246c-.925.009-1.838.867-2.714,2.549a14.6,14.6,0,0,0-1.3,3.966.29.29,0,0,0,.06.246.3.3,0,0,0,.229.11.289.289,0,0,0,.152-.043c2.945-1.751,4.537-3.231,4.734-4.4a4.314,4.314,0,0,0,.07-1.2c-.1-.839-.485-1.231-1.213-1.231v-.181Z" transform="translate(-2430.904 -24.768)" fill="url(#linear-gradient)"/>
  <path id="Path_8171" data-name="Path 8171" d="M2532.1,71.563a.728.728,0,0,1-.724-.379.477.477,0,0,1,.118-.53,10.841,10.841,0,0,1,1.715-1.059c.255-.139.474-.259.608-.341a1.2,1.2,0,0,1,.116-.065c.137-.068.252-.12.342-.155a2.3,2.3,0,0,1,.352-.1.36.36,0,0,1,.081-.009.628.628,0,0,1,.263.069c.2.067.306.14.335.215h0a.55.55,0,0,1-.044.225c-.015.046-.122.245-.879.9-.075.064-.51.349-.828.556-.257.168-.479.313-.56.372-.031.022-.062.043-.094.062l-.087.054a1.14,1.14,0,0,1-.353.146,1.741,1.741,0,0,1-.361.04Z" transform="translate(-2430.904 -24.768)" fill="url(#linear-gradient-2)"/>
  <path id="Path_8173" data-name="Path 8173" d="M2472.778,82.952c-2.627,0-5.363-.042-8.361-.127-11.794-.335-20.636-1.825-26.28-4.426-4.177-1.926-6.556-4.458-7.071-7.526a8.7,8.7,0,0,1,1.338-6.754,7.151,7.151,0,0,1,4.668-2.851,5.09,5.09,0,0,1,.687-.048,3.777,3.777,0,0,1,1.018.13,2.987,2.987,0,0,1,.738.314,2.122,2.122,0,0,1,1.068,1.775,4.323,4.323,0,0,1-2.137,3.432,4.58,4.58,0,0,0-1.991,4.029c.132,1.453,1.134,3.582,5.155,5.478.158.075.319.149.481.221,7.331,3.3,18.172,4.841,34.119,4.841,3.8,0,8.025-.089,12.543-.265,24.513-1.94,37.867-7.727,39.374-8.412a2.735,2.735,0,0,1,.7-.123,1.2,1.2,0,0,1,.725.266c.123.084.151.139.149.156-.006.04-.1.26-1.354.673A159.609,159.609,0,0,1,2472.778,82.952Z" transform="translate(-2430.904 -24.768)" fill="url(#linear-gradient-3)"/>
  <path id="Path_8177" data-name="Path 8177" d="M2543.36,41.495a3.771,3.771,0,0,1-.857-.094,3.2,3.2,0,0,1-.685-.241,1.986,1.986,0,0,1-1.187-1.582,2.905,2.905,0,0,1,1.415-2.453,3.063,3.063,0,0,0,1.305-2.87c-.167-1.252-1.216-3.074-5.27-4.652-.146-.058-.3-.115-.446-.17-6.448-2.4-15.348-3.523-28.01-3.523-3.971,0-8.266.108-13.132.33-21.036,1.739-31.889,6.405-33.125,6.963a2.353,2.353,0,0,1-.6.1,1.283,1.283,0,0,1-.656-.2c-.128-.071-.147-.11-.148-.112h0c.009,0,.1-.165,1.053-.473,16.261-5.5,30.626-7.747,49.585-7.747,1.531,0,3.094.013,4.777.039,10.293.162,18.171,1.256,23.415,3.254,3.882,1.479,6.28,3.449,7.125,5.855a5.958,5.958,0,0,1-.22,5.189,5.163,5.163,0,0,1-3.707,2.346A4.736,4.736,0,0,1,2543.36,41.495Z" transform="translate(-2430.904 -24.768)" fill="url(#linear-gradient-4)"/>
</svg>
