<?xml version="1.0" standalone="no"?>
<!DOCTYPE svg PUBLIC "-//W3C//DTD SVG 20010904//EN"
 "http://www.w3.org/TR/2001/REC-SVG-20010904/DTD/svg10.dtd">
 <svg xmlns="http://www.w3.org/2000/svg" width="19.806" height="4.971" viewBox="0 0 19.806 4.971">
  <path id="Path_9295" data-name="Path 9295" d="M1817.352,424.109a27.841,27.841,0,0,1,8.56,1.34,1.835,1.835,0,0,1,1.17,2.3,1.79,1.79,0,0,1-2.255,1.19,24.336,24.336,0,0,0-7.475-1.169h-.036a45.4,45.4,0,0,0-7.6,1.224,1.79,1.79,0,0,1-2.263-1.175,1.835,1.835,0,0,1,1.154-2.3,27.834,27.834,0,0,1,8.709-1.4Z" transform="translate(-1807.361 -424.109)" fill="#fff"/>
</svg>
