<?xml version="1.0" standalone="no"?>
<!DOCTYPE svg PUBLIC "-//W3C//DTD SVG 20010904//EN"
 "http://www.w3.org/TR/2001/REC-SVG-20010904/DTD/svg10.dtd">
<svg xmlns="http://www.w3.org/2000/svg" xmlns:xlink="http://www.w3.org/1999/xlink" width="214.093" height="44.976" viewBox="0 0 214.093 44.976">
  <defs>
    <linearGradient id="linear-gradient" y1="0.5" x2="1" y2="0.5" gradientUnits="objectBoundingBox">
      <stop offset="0" stop-color="gray" stop-opacity="0"/>
      <stop offset="1" stop-color="#989898"/>
    </linearGradient>
  </defs>
  <g id="Group_2758" data-name="Group 2758" transform="translate(-2051.66 -543.934)">
    <rect id="Rectangle_15479" data-name="Rectangle 15479" width="214.093" height="44.976" rx="22.488" transform="translate(2051.66 543.934)" opacity="0.7" fill="url(#linear-gradient)" style="mix-blend-mode: multiply;isolation: isolate"/>
    <g id="Group_2755" data-name="Group 2755">
      <g id="Group_2754" data-name="Group 2754">
        <path id="Path_8321" data-name="Path 8321" d="M2111.125,568.226h-3.738l-.855,2.3h-.668l3.058-8.2h.668l3.059,8.2h-.668Zm-.234-.633-1.629-4.371-1.64,4.371Z" fill="#fff"/>
        <path id="Path_8322" data-name="Path 8322" d="M2118.932,568.976l.562.293a3.112,3.112,0,1,1,0-3.433l-.562.3a2.43,2.43,0,0,0-2.016-1.078,2.491,2.491,0,0,0,0,4.981A2.418,2.418,0,0,0,2118.932,568.976Z" fill="#fff"/>
        <path id="Path_8323" data-name="Path 8323" d="M2125.894,568.976l.563.293a3.112,3.112,0,1,1,0-3.433l-.563.3a2.431,2.431,0,0,0-2.016-1.078,2.491,2.491,0,0,0,0,4.981A2.419,2.419,0,0,0,2125.894,568.976Z" fill="#fff"/>
        <path id="Path_8324" data-name="Path 8324" d="M2133.5,567.875h-5.109a2.464,2.464,0,0,0,4.313,1.312l.539.34a3.091,3.091,0,0,1-5.5-1.969,3,3,0,0,1,2.929-3.117C2132.341,564.441,2133.607,565.812,2133.5,567.875Zm-5.109-.633h4.465a2.251,2.251,0,0,0-2.18-2.18A2.333,2.333,0,0,0,2128.392,567.242Z" fill="#fff"/>
        <path id="Path_8325" data-name="Path 8325" d="M2140.851,562.32v8.2h-.621V569.41a2.725,2.725,0,0,1-2.344,1.265,3.121,3.121,0,0,1,0-6.234,2.7,2.7,0,0,1,2.344,1.266V562.32Zm-.621,5.238a2.342,2.342,0,1,0-2.344,2.485A2.38,2.38,0,0,0,2140.23,567.558Z" fill="#fff"/>
        <path id="Path_8326" data-name="Path 8326" d="M2148.422,567.875h-5.109a2.463,2.463,0,0,0,4.312,1.312l.54.34a3.092,3.092,0,0,1-5.5-1.969,3,3,0,0,1,2.93-3.117C2147.262,564.441,2148.528,565.812,2148.422,567.875Zm-5.109-.633h4.465a2.251,2.251,0,0,0-2.18-2.18A2.333,2.333,0,0,0,2143.313,567.242Z" fill="#fff"/>
        <path id="Path_8327" data-name="Path 8327" d="M2152.994,564.441v.727c-1.312,0-2.109.832-2.109,2.332v3.023h-.633v-5.941h.633v1.277A2.39,2.39,0,0,1,2152.994,564.441Z" fill="#fff"/>
        <path id="Path_8328" data-name="Path 8328" d="M2163.144,568.976l.563.293a3.112,3.112,0,1,1,0-3.433l-.563.3a2.431,2.431,0,0,0-2.016-1.078,2.491,2.491,0,0,0,0,4.981A2.419,2.419,0,0,0,2163.144,568.976Z" fill="#fff"/>
        <path id="Path_8329" data-name="Path 8329" d="M2171.161,567.558a3.082,3.082,0,1,1-3.082-3.117A3.093,3.093,0,0,1,2171.161,567.558Zm-.621,0a2.461,2.461,0,1,0-2.461,2.485A2.476,2.476,0,0,0,2170.54,567.558Z" fill="#fff"/>
        <path id="Path_8330" data-name="Path 8330" d="M2181.135,566.808v3.715h-.633v-3.715a1.545,1.545,0,0,0-1.5-1.746,1.675,1.675,0,0,0-1.628,1.852v3.609h-.633v-3.715a1.546,1.546,0,0,0-1.5-1.746,1.669,1.669,0,0,0-1.629,1.852v3.609h-.633v-5.941h.633v.9a1.828,1.828,0,0,1,1.629-1.043,2,2,0,0,1,1.886,1.207,2.136,2.136,0,0,1,1.875-1.207A2.177,2.177,0,0,1,2181.135,566.808Z" fill="#fff"/>
        <path id="Path_8331" data-name="Path 8331" d="M2189.118,567.558a3.082,3.082,0,1,1-3.082-3.117A3.094,3.094,0,0,1,2189.118,567.558Zm-.621,0a2.461,2.461,0,1,0-2.461,2.485A2.476,2.476,0,0,0,2188.5,567.558Z" fill="#fff"/>
        <path id="Path_8332" data-name="Path 8332" d="M2199.421,568.226h-3.738l-.856,2.3h-.668l3.059-8.2h.668l3.058,8.2h-.668Zm-.234-.633-1.629-4.371-1.641,4.371Z" fill="#fff"/>
        <path id="Path_8333" data-name="Path 8333" d="M2208.586,567.558a3,3,0,0,1-2.964,3.117,2.722,2.722,0,0,1-2.344-1.265v1.113h-.633v-8.2h.633v3.387a2.7,2.7,0,0,1,2.344-1.266A3,3,0,0,1,2208.586,567.558Zm-.632,0a2.342,2.342,0,1,0-2.332,2.485A2.37,2.37,0,0,0,2207.954,567.558Z" fill="#fff"/>
        <path id="Path_8334" data-name="Path 8334" d="M2216.158,567.558a3.082,3.082,0,1,1-3.082-3.117A3.093,3.093,0,0,1,2216.158,567.558Zm-.621,0a2.461,2.461,0,1,0-2.461,2.485A2.476,2.476,0,0,0,2215.537,567.558Z" fill="#fff"/>
        <path id="Path_8335" data-name="Path 8335" d="M2223.5,564.582v5.32a2.881,2.881,0,0,1-3.012,2.988,3.181,3.181,0,0,1-2.555-1.148l.528-.352a2.444,2.444,0,0,0,2.027.879,2.241,2.241,0,0,0,2.379-2.367v-.867a2.622,2.622,0,0,1-2.332,1.324,2.959,2.959,0,1,1,0-5.918,2.6,2.6,0,0,1,2.332,1.324v-1.183Zm-.633,2.812a2.338,2.338,0,1,0-2.332,2.332A2.3,2.3,0,0,0,2222.863,567.394Z" fill="#fff"/>
        <path id="Path_8336" data-name="Path 8336" d="M2230.071,570.523h-.621v-.914a2.4,2.4,0,0,1-2.074,1.066,1.872,1.872,0,0,1-2.063-1.769c0-1.863,2.262-1.84,3.95-1.84.058,0,.129.012.187.012v-.4a1.442,1.442,0,0,0-1.547-1.617,2.6,2.6,0,0,0-1.687.645l-.5-.387a3.177,3.177,0,0,1,2.191-.879,2.044,2.044,0,0,1,2.168,2.238Zm-.621-1.793V567.7h-.2c-1.371,0-3.293-.129-3.293,1.207,0,.773.727,1.137,1.418,1.137A2.061,2.061,0,0,0,2229.45,568.73Z" fill="#fff"/>
        <path id="Path_8337" data-name="Path 8337" d="M2237.819,562.32v8.2h-.621V569.41a2.722,2.722,0,0,1-2.343,1.265,3.121,3.121,0,0,1,0-6.234,2.7,2.7,0,0,1,2.343,1.266V562.32Zm-.621,5.238a2.342,2.342,0,1,0-2.343,2.485A2.379,2.379,0,0,0,2237.2,567.558Z" fill="#fff"/>
        <path id="Path_8338" data-name="Path 8338" d="M2245.8,567.558a3.082,3.082,0,1,1-3.082-3.117A3.093,3.093,0,0,1,2245.8,567.558Zm-.621,0a2.461,2.461,0,1,0-2.461,2.485A2.476,2.476,0,0,0,2245.18,567.558Z" fill="#fff"/>
      </g>
    </g>
    <g id="Rectangle_15480" data-name="Rectangle 15480" transform="translate(2051.66 543.934)" fill="none" stroke="#ff0" stroke-miterlimit="10" stroke-width="1">
      <rect width="214.093" height="44.976" rx="22.488" stroke="none"/>
      <rect x="0.5" y="0.5" width="213.093" height="43.976" rx="21.988" fill="none"/>
    </g>
    <g id="Ellipse_208" data-name="Ellipse 208" transform="translate(2058.42 550.033)" fill="none" stroke="#fff" stroke-linecap="round" stroke-linejoin="round" stroke-width="1">
      <circle cx="16.389" cy="16.389" r="16.389" stroke="none"/>
      <circle cx="16.389" cy="16.389" r="15.889" fill="none"/>
    </g>
    <g id="Group_2757" data-name="Group 2757">
      <g id="Group_2756" data-name="Group 2756">
        <path id="Path_8339" data-name="Path 8339" d="M2086.329,567.9a1.453,1.453,0,0,0-.192-.437,1.3,1.3,0,0,0-.348-.355,1.581,1.581,0,0,0-.435-.209,1.743,1.743,0,0,0-.94-.014l-.055.015c-.021.006-.041.012-.059.019l-.153.051c-.045.015-.091.031-.131.047l-.618.262-.117.056-.053.028c-.1.05-.2.1-.294.154-.112.06-.221.124-.343.2-.04.023-.078.047-.116.07l-.1.06c-.043.027-.087.054-.126.081l-.161.1c-.036.023-.072.047-.112.075l-.051.035c-.08.053-.159.11-.241.169l-.082.059c-.406.3-.816.625-1.216.975-.368.319-.739.666-1.134,1.06-.183.183-.363.37-.539.558s-.351.379-.523.573-.339.392-.5.593l-.046.052a.221.221,0,0,1-.052.028.169.169,0,0,1-.085,0l-.036-.014-.094-.081a1.422,1.422,0,0,0-.1-.11,1.314,1.314,0,0,0-.237-.184,1.21,1.21,0,0,0-.6-.173,1.365,1.365,0,0,0-.563.111,1.622,1.622,0,0,0-.237.122,1.968,1.968,0,0,0-.207.148,2.058,2.058,0,0,0-.181.169,2.142,2.142,0,0,0-.159.187l-.282.366a.676.676,0,0,1-.051.061l-.117.136c-.158.175-.327.345-.5.5a6.941,6.941,0,0,1-.552.45,4.546,4.546,0,0,1-.587.369,3.089,3.089,0,0,1-.31.141.4.4,0,0,1-.061.021l-.252.074c-.075.021-.151.04-.224.058l-.489.113c-.222.046-.458.086-.72.12-.113.016-.227.026-.356.039l-.185.012c-.038,0-.077.005-.115.006l-.065,0a6.373,6.373,0,0,1-.72-.014,5.422,5.422,0,0,1-1.4-.289,6.175,6.175,0,0,1-1.3-.657l-.1-.062-.276.38.089.072c.1.082.207.164.312.239s.217.151.332.224a6.065,6.065,0,0,0,.707.376,5.728,5.728,0,0,0,1.553.432,7.125,7.125,0,0,0,.944.062c.216,0,.436-.009.655-.028.265-.021.53-.053.79-.1l.491-.091c.095-.02.19-.04.282-.063l.068-.016c.042-.009.083-.019.132-.032l.117-.034c.035-.01.07-.021.093-.03a3.756,3.756,0,0,0,.4-.166,5.212,5.212,0,0,0,.714-.421,7.323,7.323,0,0,0,.643-.5c.2-.177.4-.366.584-.566l.13-.145c.031-.034.06-.069.1-.114l.281-.357a.988.988,0,0,1,.39-.315.418.418,0,0,1,.179-.039.257.257,0,0,1,.122.034.371.371,0,0,1,.069.057.2.2,0,0,1,.027.031l.081.093a1.175,1.175,0,0,0,.565.325,1.126,1.126,0,0,0,.955-.21l.076-.065.043-.043.083-.1c.157-.193.318-.382.481-.57.31-.358.649-.729,1.01-1.1.331-.344.681-.685,1.068-1.043.183-.167.368-.333.559-.494.167-.145.349-.294.571-.469l.066-.052c.076-.058.151-.116.228-.172l.3-.221c.04-.029.081-.057.123-.085l.082-.056c.031-.021.061-.042.093-.062l.1-.066c.069-.044.138-.089.212-.133s.169-.1.254-.15l.061-.034.094-.052.558-.272c.033-.016.066-.029.1-.043l.214-.083a1.123,1.123,0,0,1,.28-.052,1.075,1.075,0,0,1,.283.025.887.887,0,0,1,.258.1.7.7,0,0,1,.2.174.858.858,0,0,1,.132.248,1.42,1.42,0,0,1,.065.308,2.828,2.828,0,0,1-.025.694l-.016.113.46.089.028-.11a3.535,3.535,0,0,0,.079-.4,2.7,2.7,0,0,0,.028-.423A1.919,1.919,0,0,0,2086.329,567.9Z" fill="#fff"/>
        <path id="Path_8340" data-name="Path 8340" d="M2078.42,555.935c.239.047.469.1.685.154a5.066,5.066,0,0,1,.644.2l.062.026a.736.736,0,0,1,.087.039l.153.078c.03.015.058.034.081.048l.165.121a1.224,1.224,0,0,1,.2.206l.026.033.016.022.126.208a6.208,6.208,0,0,1,.278.621l.053.132c.072.179.144.358.218.537.047.112.1.224.146.339l2.325,5.081-1.281.48a.508.508,0,0,0-.273.275.509.509,0,0,0,.278.661.506.506,0,0,0,.192.038.512.512,0,0,0,.2-.04l1.715-.721.028-.013a.466.466,0,0,0,.2-.625l-2.595-5.117-.164-.328c-.05-.1-.1-.2-.146-.306-.079-.167-.154-.336-.23-.506l-.067-.149a6.681,6.681,0,0,0-.334-.669l-.066-.106c-.013-.021-.027-.042-.044-.066l-.052-.071a.616.616,0,0,0-.05-.064l-.021-.026a1.914,1.914,0,0,0-.306-.3l-.12-.085c-.016-.011-.033-.023-.056-.037l-.04-.023c-.046-.027-.091-.053-.137-.075l-.169-.079c-.045-.02-.09-.037-.136-.053l-.053-.02a5.517,5.517,0,0,0-.727-.2c-.23-.049-.472-.094-.718-.131s-.477-.072-.716-.1l-.118-.015-.072.471.116.02C2077.953,555.847,2078.187,555.888,2078.42,555.935Z" fill="#fff"/>
        <path id="Path_8341" data-name="Path 8341" d="M2076.691,560.437l.223.121c.021.011.042.02.059.027.039.017.077.032.114.046.076.029.151.054.228.076l.435,1.612.531-1.519a1.99,1.99,0,0,0,.483-.114,2.3,2.3,0,0,0,.781-.51,2.8,2.8,0,0,0,.53-.709l.051-.1-.39-.247-.067.088a2.288,2.288,0,0,1-.516.494,1.635,1.635,0,0,1-.6.266,1.292,1.292,0,0,1-.607-.034,1.761,1.761,0,0,1-.3-.113c-.049-.024-.1-.049-.143-.076-.022-.013-.044-.026-.064-.04l0,0a.545.545,0,0,0-.955-.009.545.545,0,0,0,.208.742Z" fill="#fff"/>
        <path id="Path_8342" data-name="Path 8342" d="M2068.068,572.2l2.026.357.092-.469-1.726-.37,1.529-5.71c.068-.251.135-.508.2-.763.053-.223.1-.447.15-.669l.025-.116c.054-.245.106-.476.174-.693a2.616,2.616,0,0,1,.116-.3,1.658,1.658,0,0,1,.155-.252,1.591,1.591,0,0,1,.2-.212,2.283,2.283,0,0,1,.263-.194,4.951,4.951,0,0,1,.624-.332c.2-.093.428-.186.689-.287.235-.091.473-.176.734-.27a.5.5,0,0,0,.278-.27.508.508,0,0,0,.005-.388.506.506,0,0,0-.659-.283c-.243.1-.488.2-.729.3-.275.118-.515.228-.732.337a5.758,5.758,0,0,0-.725.423,3.339,3.339,0,0,0-.358.285,2.611,2.611,0,0,0-.315.358,2.505,2.505,0,0,0-.235.418,3.23,3.23,0,0,0-.147.423c-.07.255-.116.506-.163.76l-.025.143c-.039.218-.078.433-.121.649-.049.249-.1.494-.162.745l-1.346,5.9-.038.165a.276.276,0,0,0,.224.319Z" fill="#fff"/>
        <path id="Path_8343" data-name="Path 8343" d="M2073.049,566.712c-.03.013-.059.026-.088.041l-.061.03c-.028.014-.056.029-.078.042a2.263,2.263,0,0,0-.206.133,2.767,2.767,0,0,0-.654.676l-.061.093.365.285.075-.082a2.192,2.192,0,0,1,.595-.448,1.307,1.307,0,0,1,.647-.161,1.619,1.619,0,0,1,.651.168,2.159,2.159,0,0,1,.3.174l.1.074a.573.573,0,0,1,.045.036c.022.017.043.034.062.052l.047.044a.455.455,0,0,0,.066.059.5.5,0,0,0,.3.1.544.544,0,0,0,.071-.005.51.51,0,0,0,.434-.573.511.511,0,0,0-.208-.344l-.114-.078c-.036-.024-.073-.046-.107-.066l-.044-.025v-.012l-.153-1.784-.754,1.46a2.337,2.337,0,0,0-.738-.029A1.922,1.922,0,0,0,2073.049,566.712Z" fill="#fff"/>
      </g>
    </g>
  </g>
</svg>
