<?xml version="1.0" standalone="no"?>
<!DOCTYPE svg PUBLIC "-//W3C//DTD SVG 20010904//EN"
 "http://www.w3.org/TR/2001/REC-SVG-20010904/DTD/svg10.dtd">
 <svg xmlns="http://www.w3.org/2000/svg" xmlns:xlink="http://www.w3.org/1999/xlink" width="179.868" height="76.597" viewBox="0 0 179.868 76.597">
  <defs>
    <linearGradient id="linear-gradient" x1="0.5" y1="0.763" x2="0.5" y2="0.249" gradientUnits="objectBoundingBox">
      <stop offset="0" stop-color="#989898"/>
      <stop offset="0.52" stop-color="gray" stop-opacity="0"/>
      <stop offset="1" stop-color="#939393" stop-opacity="0.898"/>
    </linearGradient>
    <linearGradient id="linear-gradient-2" x1="0.362" y1="0.512" x2="0.362" y2="1.723" gradientUnits="objectBoundingBox">
      <stop offset="0" stop-color="#0000a8"/>
      <stop offset="1" stop-color="#000052"/>
    </linearGradient>
    <linearGradient id="linear-gradient-3" x1="14.464" y1="27.371" x2="14.464" y2="28.582" gradientUnits="objectBoundingBox">
      <stop offset="0" stop-color="#9c0000"/>
      <stop offset="1" stop-color="red"/>
    </linearGradient>
  </defs>
  <g id="Group_2749" data-name="Group 2749" transform="translate(-2068.772 -429.674)">
    <path id="Path_8317" data-name="Path 8317" d="M2211.539,430.693a37.155,37.155,0,0,0-24.308,8,44.8,44.8,0,0,1-27.739,9.87h-1.572a44.8,44.8,0,0,1-27.739-9.87,37.3,37.3,0,1,0,.307,58.308,43.638,43.638,0,0,1,27.43-9.625h1.576A43.639,43.639,0,0,1,2186.925,497a37.3,37.3,0,1,0,24.614-66.311Z" fill-rule="evenodd" opacity="0.7" fill="url(#linear-gradient)" style="mix-blend-mode: multiply;isolation: isolate"/>
    <g id="Path_8318" data-name="Path 8318" fill="none" stroke-linecap="round" stroke-linejoin="round" fill-rule="evenodd">
      <path d="M2211.539,430.693a37.155,37.155,0,0,0-24.308,8,44.8,44.8,0,0,1-27.739,9.87h-1.572a44.8,44.8,0,0,1-27.739-9.87,37.3,37.3,0,1,0,.307,58.308,43.638,43.638,0,0,1,27.43-9.625h1.576A43.639,43.639,0,0,1,2186.925,497a37.3,37.3,0,1,0,24.614-66.311Z" stroke="none"/>
      <path d="M 2107.071044921875 430.6741943359375 C 2106.6728515625 430.6741943359375 2106.274169921875 430.680419921875 2105.873046875 430.6929931640625 C 2086.62109375 431.2959899902344 2070.8349609375 446.7269897460938 2069.824951171875 465.9620056152344 C 2068.697021484375 487.4739990234375 2085.805908203125 505.27099609375 2107.071044921875 505.27099609375 C 2115.94091796875 505.27099609375 2124.0859375 502.1749877929688 2130.488037109375 497.0039978027344 C 2138.2451171875 490.739013671875 2147.947021484375 487.3789978027344 2157.91796875 487.3789978027344 L 2159.493896484375 487.3789978027344 C 2169.466064453125 487.3789978027344 2179.16796875 490.739013671875 2186.925048828125 497.0039978027344 C 2193.325927734375 502.1749877929688 2201.471923828125 505.27099609375 2210.341064453125 505.27099609375 C 2231.60693359375 505.27099609375 2248.716064453125 487.4739990234375 2247.5869140625 465.9620056152344 C 2246.577880859375 446.7269897460938 2230.791015625 431.2959899902344 2211.5390625 430.6929931640625 C 2211.138427734375 430.6804504394531 2210.73876953125 430.6741943359375 2210.341064453125 430.6741943359375 C 2201.6123046875 430.674072265625 2193.58544921875 433.6728820800781 2187.23095703125 438.6960144042969 C 2179.302978515625 444.9630126953125 2169.59912109375 448.5660095214844 2159.491943359375 448.5660095214844 L 2157.919921875 448.5660095214844 C 2147.81298828125 448.5660095214844 2138.10888671875 444.9630126953125 2130.180908203125 438.6960144042969 C 2123.827880859375 433.6731872558594 2115.799072265625 430.6741943359375 2107.071044921875 430.6741943359375 M 2107.071044921875 429.6741943359375 C 2111.454833984375 429.6741943359375 2115.75439453125 430.4092102050781 2119.850341796875 431.8588562011719 C 2123.808837890625 433.2599182128906 2127.493408203125 435.2963562011719 2130.801025390625 437.9115905761719 C 2134.704345703125 440.9970703125 2139.001220703125 443.3955383300781 2143.57177734375 445.0401916503906 C 2148.229736328125 446.7162170410156 2153.05712890625 447.5660095214844 2157.919921875 447.5660095214844 L 2159.491943359375 447.5660095214844 C 2164.35498046875 447.5660095214844 2169.182373046875 446.7162170410156 2173.840087890625 445.0401916503906 C 2178.41064453125 443.3955383300781 2182.70751953125 440.9971008300781 2186.61083984375 437.9114990234375 C 2189.91943359375 435.2962036132812 2193.603759765625 433.2597961425781 2197.561767578125 431.8588562011719 C 2201.657470703125 430.4092102050781 2205.956787109375 429.6741943359375 2210.34033203125 429.6741943359375 C 2210.7490234375 429.6742248535156 2211.16259765625 429.6807250976562 2211.5703125 429.6934814453125 C 2221.13427734375 429.9930419921875 2230.2021484375 433.8754577636719 2237.103271484375 440.6256103515625 C 2244.006591796875 447.3778076171875 2248.08447265625 456.357177734375 2248.58544921875 465.9096374511719 C 2248.86767578125 471.2860717773438 2248.058349609375 476.533203125 2246.179931640625 481.5051879882812 C 2244.373046875 486.2881469726562 2241.663818359375 490.6029663085938 2238.12744140625 494.3298034667969 C 2234.5859375 498.0621643066406 2230.411376953125 500.9987182617188 2225.719970703125 503.0579528808594 C 2220.862548828125 505.1899719238281 2215.6884765625 506.27099609375 2210.341064453125 506.27099609375 C 2205.88671875 506.27099609375 2201.522216796875 505.5128173828125 2197.36865234375 504.0174865722656 C 2193.354736328125 502.5723876953125 2189.629638671875 500.4744262695312 2186.296630859375 497.7818908691406 C 2182.53759765625 494.745849609375 2178.302734375 492.39208984375 2173.7099609375 490.7860717773438 C 2169.142578125 489.1888427734375 2164.359619140625 488.3789978027344 2159.493896484375 488.3789978027344 L 2157.91796875 488.3789978027344 C 2153.052978515625 488.3789978027344 2148.270263671875 489.1888427734375 2143.702880859375 490.7860717773438 C 2139.110107421875 492.3921203613281 2134.87548828125 494.7458801269531 2131.116455078125 497.7819519042969 C 2127.78271484375 500.4745483398438 2124.057373046875 502.572509765625 2120.043701171875 504.0174865722656 C 2115.890380859375 505.5128173828125 2111.525634765625 506.27099609375 2107.071044921875 506.27099609375 C 2101.72412109375 506.27099609375 2096.55029296875 505.1900329589844 2091.693115234375 503.0581665039062 C 2087.001953125 500.9990844726562 2082.82763671875 498.0627136230469 2079.2861328125 494.3305969238281 C 2075.74951171875 490.6037292480469 2073.039794921875 486.288818359375 2071.232666015625 481.5057373046875 C 2069.35400390625 476.5335998535156 2068.54443359375 471.2863159179688 2068.826416015625 465.9096374511719 C 2069.327880859375 456.3570556640625 2073.406005859375 447.377685546875 2080.30908203125 440.6256103515625 C 2087.210205078125 433.8754577636719 2096.27783203125 429.9930419921875 2105.841796875 429.6934814453125 C 2106.250244140625 429.6806945800781 2106.663818359375 429.6741943359375 2107.071044921875 429.6741943359375 Z" stroke="none" fill="#ff0"/>
    </g>
  </g>
  <g id="Group_2751" data-name="Group 2751" transform="translate(-2068.772 -429.674)">
    <g id="Ellipse_200" data-name="Ellipse 200" transform="translate(2077.871 439.31)" stroke="#fff" stroke-miterlimit="10" stroke-width="1" fill="url(#linear-gradient-2)">
      <circle cx="29.054" cy="29.054" r="29.054" stroke="none"/>
      <circle cx="29.054" cy="29.054" r="28.554" fill="none"/>
    </g>
    <path id="Path_8319" data-name="Path 8319" d="M2112.007,454V457.5s-2.582-.259-3.228.732c-.356.54-.144,2.124-.175,3.261h3.426c-.291,1.331-.5,2.232-.712,3.385h-2.733v10.883h-4.746c0-3.356,0-7.27,0-10.842h-2.019V461.5h2c.1-2.5.14-4.984,1.384-6.246,1.4-1.422,2.731-1.252,6.806-1.252" fill="#fff"/>
    <g id="Group_2750" data-name="Group 2750">
      <circle id="Ellipse_201" data-name="Ellipse 201" cx="1.921" cy="1.921" r="1.921" transform="translate(2104.96 484.994)" fill="#fff"/>
      <circle id="Ellipse_202" data-name="Ellipse 202" cx="1.921" cy="1.921" r="1.921" transform="translate(2098.652 484.98)" fill="#fff"/>
      <circle id="Ellipse_203" data-name="Ellipse 203" cx="1.921" cy="1.921" r="1.921" transform="translate(2111.355 485.009)" fill="#fff"/>
    </g>
  </g>
  <g id="Group_2753" data-name="Group 2753" transform="translate(-2068.772 -429.674)">
    <g id="Ellipse_204" data-name="Ellipse 204" transform="translate(2181.612 439.31)" stroke="#fff" stroke-miterlimit="10" stroke-width="1" fill="url(#linear-gradient-3)">
      <circle cx="29.054" cy="29.054" r="29.054" stroke="none"/>
      <circle cx="29.054" cy="29.054" r="28.554" fill="none"/>
    </g>
    <path id="Path_8320" data-name="Path 8320" d="M2219.945,460.263v3.8h-1.558v-3.8h-3.9v-1.556h3.9V454.9h1.558v3.809h3.9v1.556Zm-10.786-3.855a3.994,3.994,0,0,1,2.2,3.635,4.227,4.227,0,0,1-1.932,3.279c-1.063.815-1.266,1.158-1.266,1.85,0,.592,1.139,1.6,1.734,2.01a4.447,4.447,0,0,1,2.252,4.2c0,2.336-2.252,4.944-6.42,4.944-3.655,0-6.837-1.748-6.837-4.083,0-2.372,2.911-4.663,6.567-4.663.4,0,.763-.014,1.141-.014a2.507,2.507,0,0,1-.9-1.795,2.667,2.667,0,0,1,.332-1.225c-.2.014-.4-.018-.61-.018a4.774,4.774,0,0,1-5.013-4.769c0-2.544,2.777-4.885,5.728-4.885h6.582l-1.471,1.532Zm-3.009,11.781c-2.527-.024-4.791,1.515-4.791,3.364,0,1.886,1.825,3.267,4.35,3.267,3.552,0,4.791-1.285,4.791-3.171a2.761,2.761,0,0,0-.082-.668c-.278-1.065-1.259-1.6-2.632-2.531a5.507,5.507,0,0,0-1.636-.261m2.837-8.117c-.293-2.185-1.978-3.941-3.674-3.992s-2.833,1.626-2.539,3.813,1.905,4,3.6,4.051,2.906-1.683,2.613-3.872" fill="#fff" fill-rule="evenodd"/>
    <g id="Group_2752" data-name="Group 2752">
      <circle id="Ellipse_205" data-name="Ellipse 205" cx="1.921" cy="1.921" r="1.921" transform="translate(2208.701 484.994)" fill="#fff"/>
      <circle id="Ellipse_206" data-name="Ellipse 206" cx="1.921" cy="1.921" r="1.921" transform="translate(2202.393 484.98)" fill="#fff"/>
      <circle id="Ellipse_207" data-name="Ellipse 207" cx="1.921" cy="1.921" r="1.921" transform="translate(2215.096 485.009)" fill="#fff"/>
    </g>
  </g>
</svg>

