<?xml version="1.0" standalone="no"?>
<!DOCTYPE svg PUBLIC "-//W3C//DTD SVG 20010904//EN"
 "http://www.w3.org/TR/2001/REC-SVG-20010904/DTD/svg10.dtd">
<svg xmlns="http://www.w3.org/2000/svg" width="220.228" height="53.458" viewBox="0 0 220.228 53.458">
  <g id="Group_2833" data-name="Group 2833" transform="translate(-1185.08 -565.776)">
    <g id="Group_2832" data-name="Group 2832">
      <g id="Group_2829" data-name="Group 2829">
        <rect id="Rectangle_15494" data-name="Rectangle 15494" width="198.832" height="34.579" rx="17.29" transform="translate(1185.08 584.654)" fill="#ff0"/>
      </g>
      <g id="Group_2830" data-name="Group 2830">
        <path id="Path_8639" data-name="Path 8639" d="M1224.507,598.62l-3.095,9.229h-2.366l-1.693-4.969-1.693,4.969h-2.367l-3.112-9.229h3.149l1.365,5.17,1.729-5.17h1.857l1.73,5.17,1.365-5.17Z" fill="#f50"/>
        <path id="Path_8640" data-name="Path 8640" d="M1240.291,598.62l-3.095,9.229h-2.366l-1.693-4.969-1.693,4.969h-2.366l-3.113-9.229h3.149l1.366,5.17,1.729-5.17h1.856l1.73,5.17,1.365-5.17Z" fill="#f50"/>
        <path id="Path_8641" data-name="Path 8641" d="M1256.075,598.62l-3.095,9.229h-2.366l-1.693-4.969-1.693,4.969h-2.366l-3.113-9.229h3.149l1.366,5.17,1.729-5.17h1.857l1.729,5.17,1.365-5.17Z" fill="#f50"/>
        <path id="Path_8642" data-name="Path 8642" d="M1260.446,606.447a1.639,1.639,0,1,1-1.638-1.638A1.644,1.644,0,0,1,1260.446,606.447Z" fill="#f50"/>
        <path id="Path_8643" data-name="Path 8643" d="M1278.687,595.107l-3.95,12.742h-2.84l-2.148-7.627-2.148,7.627h-2.858l-3.932-12.742h3.258l2.2,8.373,2.367-8.373h2.22l2.349,8.373,2.2-8.373Z" fill="#f50"/>
        <path id="Path_8644" data-name="Path 8644" d="M1293.015,601.478a6.481,6.481,0,1,1-6.48-6.59A6.347,6.347,0,0,1,1293.015,601.478Zm-3.131,0a3.358,3.358,0,1,0-3.349,3.6A3.347,3.347,0,0,0,1289.884,601.478Z" fill="#f50"/>
        <path id="Path_8645" data-name="Path 8645" d="M1302.992,607.849l-4.041-5.825v5.825h-3.113V595.107h3.113v5.661l3.9-5.661h3.477l-4.406,6.17,4.715,6.572Z" fill="#f50"/>
        <path id="Path_8646" data-name="Path 8646" d="M1317.011,604.919v2.93H1309V595.107h7.846v2.949h-4.733v1.966h4.15v2.785h-4.15v2.112Z" fill="#f50"/>
        <path id="Path_8647" data-name="Path 8647" d="M1327.151,607.849l-2.148-4.26h-1.966v4.26h-3.113V595.107h4.9c3.241,0,4.9,1.856,4.9,4.405a3.711,3.711,0,0,1-1.966,3.368l2.712,4.969Zm-4.114-6.881h1.784c.91,0,1.748-.364,1.748-1.456,0-.946-.71-1.456-1.748-1.456h-1.784Z" fill="#f50"/>
        <path id="Path_8648" data-name="Path 8648" d="M1335.745,606.447a1.638,1.638,0,1,1-1.639-1.638A1.644,1.644,0,0,1,1335.745,606.447Z" fill="#f50"/>
        <path id="Path_8649" data-name="Path 8649" d="M1348.561,603.244c0,2.421-1.566,4.842-4.424,4.842a3.149,3.149,0,0,1-2.6-1.129v4.405h-2.968V598.62h2.968v.91a3.149,3.149,0,0,1,2.6-1.129C1346.995,598.4,1348.561,600.822,1348.561,603.244Zm-2.986,0a1.975,1.975,0,1,0-1.984,1.966A1.873,1.873,0,0,0,1345.575,603.244Z" fill="#f50"/>
        <path id="Path_8650" data-name="Path 8650" d="M1360.1,604.136h-6.663a2.18,2.18,0,0,0,2.312,1.565,2.5,2.5,0,0,0,1.894-.8l2.075,1.238a4.616,4.616,0,0,1-3.969,1.948c-3.112,0-5.188-1.966-5.188-4.842a4.768,4.768,0,0,1,4.77-4.843C1358.064,598.4,1360.467,600.258,1360.1,604.136Zm-2.676-1.784a1.858,1.858,0,0,0-2-1.566,1.992,1.992,0,0,0-1.985,1.566Z" fill="#f50"/>
      </g>
      <g id="Group_2831" data-name="Group 2831">
        <circle id="Ellipse_214" data-name="Ellipse 214" cx="3.781" cy="3.781" r="3.781" transform="translate(1394.072 595.401)" fill="none" stroke="#ff0" stroke-linecap="round" stroke-linejoin="round" stroke-width="2"/>
        <line id="Line_17" data-name="Line 17" x2="3.721" y2="4.812" transform="translate(1400.185 602.283)" fill="none" stroke="#ff0" stroke-linecap="round" stroke-linejoin="round" stroke-width="2"/>
      </g>
    </g>
  </g>
</svg>
