<?xml version="1.0" standalone="no"?>
<!DOCTYPE svg PUBLIC "-//W3C//DTD SVG 20010904//EN"
 "http://www.w3.org/TR/2001/REC-SVG-20010904/DTD/svg10.dtd">
<svg xmlns="http://www.w3.org/2000/svg" xmlns:xlink="http://www.w3.org/1999/xlink" width="206.957" height="379.976" viewBox="0 0 206.957 379.976">
  <defs>
    <linearGradient id="linear-gradient" x1="0.5" x2="0.5" y2="1" gradientUnits="objectBoundingBox">
      <stop offset="0" stop-color="gray" stop-opacity="0"/>
      <stop offset="1" stop-color="#989898"/>
    </linearGradient>
    <clipPath id="clip-path">
      <circle id="Ellipse_196" data-name="Ellipse 196" cx="60.98" cy="60.98" r="60.98" transform="translate(2513.845 307.592)" fill="none"/>
    </clipPath>
    <linearGradient id="linear-gradient-2" x1="169.797" y1="1.398" x2="169.797" y2="-1.19" gradientUnits="objectBoundingBox">
      <stop offset="0" stop-color="#ff9200"/>
      <stop offset="0.341" stop-color="#ff5a00"/>
      <stop offset="0.541" stop-color="#ef4214"/>
      <stop offset="0.961" stop-color="#c70547"/>
      <stop offset="1" stop-color="#c4004d"/>
    </linearGradient>
  </defs>
  <g id="Rectangle_15475" data-name="Rectangle 15475" transform="translate(1 1)" fill="none" stroke="#ff0" stroke-linecap="round" stroke-linejoin="round" stroke-width="1">
    <rect width="204.957" height="65.023" rx="32.267" stroke="none"/>
    <rect x="-0.5" y="-0.5" width="205.957" height="66.023" rx="32.767" fill="none"/>
  </g>
  <g id="Group_2652" data-name="Group 2652" transform="translate(-2471.346 -201.625)">
    <g id="Path_8015" data-name="Path 8015" fill="none" stroke-linecap="round" stroke-linejoin="round">
      <path d="M2654.912,564.185l-61.178,14.263a82.438,82.438,0,0,1-37.36.019l-61.611-14.3a28.185,28.185,0,0,1-22.275-27.559V376.988a30.283,30.283,0,0,1,30.283-30.283h144.108a30.283,30.283,0,0,1,30.283,30.283V536.632A28.184,28.184,0,0,1,2654.912,564.185Z" stroke="none"/>
      <path d="M 2575.012451171875 580.6017456054688 C 2581.293701171875 580.6017456054688 2587.576416015625 579.8836669921875 2593.73388671875 578.447998046875 L 2654.912109375 564.1849975585938 C 2667.89404296875 561.3889770507812 2677.162109375 549.9110107421875 2677.162109375 536.6320190429688 L 2677.162109375 376.9880065917969 C 2677.162109375 360.2630004882812 2663.60400390625 346.7049865722656 2646.87890625 346.7049865722656 L 2573.669921875 346.7049865722656 L 2502.77099609375 346.7049865722656 C 2486.0458984375 346.7049865722656 2472.488037109375 360.2630004882812 2472.488037109375 376.9880065917969 L 2472.488037109375 536.6099853515625 C 2472.488037109375 549.8989868164062 2481.77001953125 561.3829956054688 2494.762939453125 564.1690063476562 L 2556.3740234375 578.4669799804688 C 2562.506103515625 579.890380859375 2568.758544921875 580.6017456054688 2575.012451171875 580.6017456054688 M 2575.012451171875 581.6017456054688 C 2568.67138671875 581.6017456054688 2562.324462890625 580.8748168945312 2556.14794921875 579.4411010742188 L 2494.5439453125 565.144775390625 C 2491.244873046875 564.4363403320312 2488.126220703125 563.1784057617188 2485.273193359375 561.4057006835938 C 2482.4931640625 559.6782836914062 2480.037841796875 557.5084838867188 2477.975341796875 554.9567260742188 C 2475.912841796875 552.4049682617188 2474.306396484375 549.549072265625 2473.2001953125 546.4685668945312 C 2472.064208984375 543.304443359375 2471.488037109375 539.9874877929688 2471.488037109375 536.6099853515625 L 2471.488037109375 376.9880065917969 C 2471.488037109375 372.7652282714844 2472.315185546875 368.6682434082031 2473.94677734375 364.8108825683594 C 2475.5224609375 361.0856018066406 2477.77783203125 357.7401733398438 2480.650390625 354.8675231933594 C 2483.523193359375 351.994873046875 2486.86865234375 349.7393798828125 2490.59375 348.1637573242188 C 2494.451171875 346.5322265625 2498.548095703125 345.7049865722656 2502.77099609375 345.7049865722656 L 2573.669921875 345.7049865722656 L 2646.87890625 345.7049865722656 C 2651.101806640625 345.7049865722656 2655.19873046875 346.5322265625 2659.05615234375 348.1637573242188 C 2662.781494140625 349.7393798828125 2666.126953125 351.994873046875 2668.99951171875 354.8675231933594 C 2671.872314453125 357.7401733398438 2674.127685546875 361.0856018066406 2675.703369140625 364.8108520507812 C 2677.3349609375 368.6682434082031 2678.162109375 372.7652282714844 2678.162109375 376.9880065917969 L 2678.162109375 536.6320190429688 C 2678.162109375 540.007080078125 2677.5869140625 543.3217163085938 2676.452392578125 546.4837646484375 C 2675.347900390625 549.5625 2673.7431640625 552.4169311523438 2671.683349609375 554.9678955078125 C 2669.623291015625 557.5188598632812 2667.1708984375 559.6885375976562 2664.393798828125 561.4166870117188 C 2661.543701171875 563.1902465820312 2658.427490234375 564.4498901367188 2655.130859375 565.1608276367188 L 2593.9609375 579.421875 C 2587.75732421875 580.8683471679688 2581.382080078125 581.6017456054688 2575.012451171875 581.6017456054688 Z" stroke="none" fill="#ff0"/>
    </g>
    <path id="Path_8016" data-name="Path 8016" d="M2654.912,564.185l-61.178,14.263a82.438,82.438,0,0,1-37.36.019l-61.611-14.3a28.185,28.185,0,0,1-22.275-27.559V376.988a30.283,30.283,0,0,1,30.283-30.283h144.108a30.283,30.283,0,0,1,30.283,30.283V536.632A28.184,28.184,0,0,1,2654.912,564.185Z" opacity="0.7" fill="url(#linear-gradient)" style="mix-blend-mode: multiply;isolation: isolate"/>
    <g id="Group_2626" data-name="Group 2626">
      <path id="Path_8017" data-name="Path 8017" d="M2511.7,459.009v1.748h3.1v2.115h-3.1v3.206h-2.246v-9.2h5.728v2.128Z" fill="#fff"/>
      <path id="Path_8018" data-name="Path 8018" d="M2523.33,463.963v2.115h-5.781v-9.2h5.662v2.128h-3.416v1.419h3v2.011h-3v1.524Z" fill="#fff"/>
      <path id="Path_8019" data-name="Path 8019" d="M2530.91,466.078,2529.359,463h-1.419v3.074h-2.246v-9.2h3.534c2.338,0,3.534,1.34,3.534,3.18a2.676,2.676,0,0,1-1.419,2.43l1.958,3.587Zm-2.97-4.967h1.288c.657,0,1.261-.262,1.261-1.05,0-.683-.512-1.052-1.261-1.052h-1.288Z" fill="#fff"/>
      <path id="Path_8020" data-name="Path 8020" d="M2543.089,456.881v9.2h-1.971l-3.587-5.361v5.361h-2.26v-9.2h1.971l3.587,5.36v-5.36Z" fill="#fff"/>
      <path id="Path_8021" data-name="Path 8021" d="M2551.444,464.37h-3.482l-.538,1.708h-2.365l3.311-9.2h2.653l3.311,9.2h-2.351Zm-.539-1.708-1.208-3.823-1.209,3.823Z" fill="#fff"/>
      <path id="Path_8022" data-name="Path 8022" d="M2564.123,456.881v9.2h-1.971l-3.587-5.361v5.361h-2.26v-9.2h1.971l3.587,5.36v-5.36Z" fill="#fff"/>
      <path id="Path_8023" data-name="Path 8023" d="M2574.856,461.48c0,2.811-1.814,4.6-4.888,4.6h-3.218v-9.2h3.218C2573.042,456.881,2574.856,458.681,2574.856,461.48Zm-2.247,0a2.378,2.378,0,0,0-2.641-2.471h-.959v4.954h.959A2.387,2.387,0,0,0,2572.609,461.48Z" fill="#fff"/>
      <path id="Path_8024" data-name="Path 8024" d="M2586.181,461.48a4.678,4.678,0,1,1-4.678-4.756A4.582,4.582,0,0,1,2586.181,461.48Zm-2.26,0a2.424,2.424,0,1,0-2.418,2.6A2.416,2.416,0,0,0,2583.921,461.48Z" fill="#fff"/>
      <path id="Path_8025" data-name="Path 8025" d="M2600.028,460.179c0,2.168-1.655,3.179-3.652,3.179h-1.183v2.72h-2.246v-9.2h3.429C2598.662,456.881,2600.028,458.2,2600.028,460.179Zm-2.286,0c0-.71-.5-1.17-1.366-1.17h-1.183v2.339h1.183C2597.19,461.348,2597.742,460.98,2597.742,460.179Z" fill="#fff"/>
      <path id="Path_8026" data-name="Path 8026" d="M2607.477,466.078l-1.55-3.074h-1.419v3.074h-2.247v-9.2h3.534c2.339,0,3.535,1.34,3.535,3.18a2.678,2.678,0,0,1-1.419,2.43l1.957,3.587Zm-2.969-4.967h1.287c.657,0,1.262-.262,1.262-1.05,0-.683-.513-1.052-1.262-1.052h-1.287Z" fill="#fff"/>
      <path id="Path_8027" data-name="Path 8027" d="M2617.567,464.37h-3.482l-.538,1.708h-2.365l3.311-9.2h2.653l3.312,9.2h-2.352Zm-.539-1.708-1.208-3.823-1.209,3.823Z" fill="#fff"/>
      <path id="Path_8028" data-name="Path 8028" d="M2630.534,461.48c0,2.811-1.813,4.6-4.888,4.6h-3.218v-9.2h3.218C2628.721,456.881,2630.534,458.681,2630.534,461.48Zm-2.246,0a2.379,2.379,0,0,0-2.642-2.471h-.958v4.954h.958A2.388,2.388,0,0,0,2628.288,461.48Z" fill="#fff"/>
      <path id="Path_8029" data-name="Path 8029" d="M2638.167,464.37h-3.481l-.539,1.708h-2.365l3.311-9.2h2.654l3.311,9.2h-2.352Zm-.539-1.708-1.208-3.823-1.209,3.823Z" fill="#fff"/>
    </g>
    <g id="Group_2628" data-name="Group 2628">
      <g id="Group_2627" data-name="Group 2627">
        <path id="Path_8030" data-name="Path 8030" d="M2523.025,479.139v.821h-3.57v-6.312h3.481v.82h-2.571v1.813h2.372v.82h-2.372v2.038Z" fill="#ff0"/>
        <path id="Path_8031" data-name="Path 8031" d="M2527.794,479.96l-1.118-1.65-1.119,1.65h-1l1.6-2.353-1.524-2.219h1.011l1.028,1.614,1.045-1.614h1.011l-1.534,2.227,1.606,2.345Z" fill="#ff0"/>
        <path id="Path_8032" data-name="Path 8032" d="M2535.222,477.678a2.3,2.3,0,0,1-2.272,2.4,2.022,2.022,0,0,1-1.669-.757v2.38h-.821v-6.312h.821v.64a2.045,2.045,0,0,1,1.669-.748A2.3,2.3,0,0,1,2535.222,477.678Zm-.839,0a1.5,1.5,0,0,0-1.514-1.623,1.619,1.619,0,0,0,0,3.238A1.49,1.49,0,0,0,2534.383,477.678Z" fill="#ff0"/>
        <path id="Path_8033" data-name="Path 8033" d="M2541.262,478.03h-3.634a1.477,1.477,0,0,0,1.578,1.263,1.51,1.51,0,0,0,1.2-.514l.677.433a2.257,2.257,0,0,1-1.876.865,2.4,2.4,0,0,1-.135-4.8A2.273,2.273,0,0,1,2541.262,478.03Zm-.829-.7a1.325,1.325,0,0,0-1.362-1.272,1.416,1.416,0,0,0-1.443,1.272Z" fill="#ff0"/>
        <path id="Path_8034" data-name="Path 8034" d="M2547.581,473.648v6.312h-.821v-.64a2,2,0,0,1-1.659.757,2.4,2.4,0,0,1,0-4.8,2.024,2.024,0,0,1,1.659.748v-2.38Zm-.821,4.03a1.521,1.521,0,0,0-1.578-1.623,1.623,1.623,0,0,0,0,3.238A1.514,1.514,0,0,0,2546.76,477.678Z" fill="#ff0"/>
        <path id="Path_8035" data-name="Path 8035" d="M2549.6,474.108a.468.468,0,1,1,.937,0,.468.468,0,0,1-.937,0Zm.053,1.28h.83v4.572h-.83Z" fill="#ff0"/>
        <path id="Path_8036" data-name="Path 8036" d="M2556.793,478.03h-3.634a1.477,1.477,0,0,0,1.578,1.263,1.513,1.513,0,0,0,1.2-.514l.676.433a2.257,2.257,0,0,1-1.876.865,2.4,2.4,0,0,1-.135-4.8A2.273,2.273,0,0,1,2556.793,478.03Zm-.829-.7a1.325,1.325,0,0,0-1.362-1.272,1.416,1.416,0,0,0-1.443,1.272Z" fill="#ff0"/>
        <path id="Path_8037" data-name="Path 8037" d="M2562.607,477.1v2.859h-.82v-2.624c0-.641-.271-1.281-1.128-1.281a1.227,1.227,0,0,0-1.217,1.281v2.624h-.821v-4.572h.821v.64a1.631,1.631,0,0,1,1.416-.748A1.772,1.772,0,0,1,2562.607,477.1Z" fill="#ff0"/>
        <path id="Path_8038" data-name="Path 8038" d="M2565.807,476.172v2c0,.65.008,1.082.721,1.082a3.132,3.132,0,0,0,.334-.018v.722a1.965,1.965,0,0,1-.442.045c-.992,0-1.434-.532-1.434-1.533v-2.3h-.713v-.784h.713v-.956h.821v.956h1.055v.784Z" fill="#ff0"/>
        <path id="Path_8039" data-name="Path 8039" d="M2572.947,478.03h-3.634a1.478,1.478,0,0,0,1.578,1.263,1.51,1.51,0,0,0,1.2-.514l.677.433a2.257,2.257,0,0,1-1.876.865,2.4,2.4,0,0,1-.135-4.8A2.273,2.273,0,0,1,2572.947,478.03Zm-.829-.7a1.324,1.324,0,0,0-1.362-1.272,1.416,1.416,0,0,0-1.443,1.272Z" fill="#ff0"/>
        <path id="Path_8040" data-name="Path 8040" d="M2582.448,475.713a2.07,2.07,0,0,1-2.281,2.056h-1.109v2.191h-.9v-6.312h2.011A2.076,2.076,0,0,1,2582.448,475.713Zm-.928,0a1.216,1.216,0,0,0-1.353-1.245h-1.109v2.48h1.109A1.209,1.209,0,0,0,2581.52,475.713Z" fill="#ff0"/>
        <path id="Path_8041" data-name="Path 8041" d="M2586.639,475.28v.929c-1.353-.162-1.524.865-1.524,1.7v2.047h-.821v-4.572h.821v.794A1.682,1.682,0,0,1,2586.639,475.28Z" fill="#ff0"/>
        <path id="Path_8042" data-name="Path 8042" d="M2592.788,477.678a2.4,2.4,0,1,1-2.4-2.4A2.369,2.369,0,0,1,2592.788,477.678Zm-.839,0a1.557,1.557,0,1,0-1.56,1.615A1.543,1.543,0,0,0,2591.949,477.678Z" fill="#ff0"/>
        <path id="Path_8043" data-name="Path 8043" d="M2595.779,475.388h1.055v.784h-1.055v3.788h-.82v-3.788h-.731v-.784h.731c0-.956.315-1.849,1.569-1.849a1.645,1.645,0,0,1,.306.018v.677c-.054,0-.153-.009-.216-.009C2595.878,474.225,2595.789,474.7,2595.779,475.388Z" fill="#ff0"/>
        <path id="Path_8044" data-name="Path 8044" d="M2602.74,478.03H2599.1a1.478,1.478,0,0,0,1.579,1.263,1.512,1.512,0,0,0,1.2-.514l.676.433a2.257,2.257,0,0,1-1.875.865,2.4,2.4,0,0,1-.136-4.8A2.274,2.274,0,0,1,2602.74,478.03Zm-.83-.7a1.323,1.323,0,0,0-1.362-1.272,1.417,1.417,0,0,0-1.443,1.272Z" fill="#ff0"/>
        <path id="Path_8045" data-name="Path 8045" d="M2607.8,478.589c0,.812-.577,1.488-1.794,1.488a1.734,1.734,0,0,1-1.84-1.046l.8-.27c.072.234.316.559,1.055.559.595,0,.929-.244.929-.649,0-.533-.767-.533-1.4-.677-.857-.189-1.226-.6-1.226-1.281a1.7,1.7,0,0,1,3.246-.378l-.766.207a.84.84,0,0,0-.866-.523c-.451,0-.785.253-.785.632,0,.514.632.55,1.155.658C2607.427,477.543,2607.8,477.9,2607.8,478.589Z" fill="#ff0"/>
        <path id="Path_8046" data-name="Path 8046" d="M2609.5,474.108a.469.469,0,1,1,.938,0,.469.469,0,0,1-.938,0Zm.054,1.28h.83v4.572h-.83Z" fill="#ff0"/>
        <path id="Path_8047" data-name="Path 8047" d="M2616.982,477.678a2.4,2.4,0,1,1-2.4-2.4A2.369,2.369,0,0,1,2616.982,477.678Zm-.838,0a1.557,1.557,0,1,0-1.56,1.615A1.544,1.544,0,0,0,2616.144,477.678Z" fill="#ff0"/>
        <path id="Path_8048" data-name="Path 8048" d="M2622.77,477.1v2.859h-.821v-2.624c0-.641-.271-1.281-1.128-1.281a1.228,1.228,0,0,0-1.217,1.281v2.624h-.821v-4.572h.821v.64a1.632,1.632,0,0,1,1.416-.748A1.772,1.772,0,0,1,2622.77,477.1Z" fill="#ff0"/>
        <path id="Path_8049" data-name="Path 8049" d="M2628.511,477.2v2.759h-.82v-.631a1.792,1.792,0,0,1-1.5.748,1.47,1.47,0,0,1-1.624-1.343c0-1.434,1.741-1.47,2.381-1.47h.74c0-.7-.145-1.236-1.091-1.236a2.148,2.148,0,0,0-1.182.406l-.577-.442a2.857,2.857,0,0,1,1.921-.712C2628.079,475.28,2628.511,476.109,2628.511,477.2Zm-.82.7h-.316c-.848,0-1.957-.009-1.957.793,0,.352.226.713.956.713a1.432,1.432,0,0,0,1.317-.758Z" fill="#ff0"/>
        <path id="Path_8050" data-name="Path 8050" d="M2631.4,473.648v6.312h-.82v-6.312Z" fill="#ff0"/>
      </g>
    </g>
    <g id="Group_2631" data-name="Group 2631">
      <g id="Group_2629" data-name="Group 2629">
        <path id="Path_8051" data-name="Path 8051" d="M2575.121,496.793a17.8,17.8,0,1,0,17.8,17.8A17.817,17.817,0,0,0,2575.121,496.793Z" fill="none" stroke="#fff" stroke-linecap="round" stroke-linejoin="round" stroke-width="1"/>
      </g>
      <g id="Group_2630" data-name="Group 2630">
        <path id="Path_8052" data-name="Path 8052" d="M2575.233,514.364a5.53,5.53,0,1,0,5.53,5.53A5.53,5.53,0,0,0,2575.233,514.364Zm1.9,7.926-1.9-1.187-1.9,1.187.669-2.131-1.843-1.494h2.313l.759-1.908.76,1.908h2.312l-1.843,1.494Z" fill="#fff"/>
        <path id="Path_8053" data-name="Path 8053" d="M2570.932,508.22v2.458a.613.613,0,0,0,.246.491l2.458,1.843a.611.611,0,0,0,.368.123h2.458a.616.616,0,0,0,.369-.123l2.458-1.843a.615.615,0,0,0,.245-.491V508.22a1.229,1.229,0,0,0,0-2.458h-8.6a1.229,1.229,0,0,0,0,2.458Zm6.145,0v1.843a.615.615,0,1,1-1.229,0V508.22Zm-2.458,0v1.843a.615.615,0,1,1-1.229,0V508.22Z" fill="#fff"/>
      </g>
    </g>
    <g id="Group_2636" data-name="Group 2636">
      <g id="Group_2632" data-name="Group 2632">
        <path id="Path_8054" data-name="Path 8054" d="M2518.984,496.793a17.8,17.8,0,1,0,17.8,17.8A17.817,17.817,0,0,0,2518.984,496.793Z" fill="none" stroke="#fff" stroke-linecap="round" stroke-linejoin="round" stroke-width="1"/>
      </g>
      <g id="Group_2635" data-name="Group 2635">
        <g id="Group_2633" data-name="Group 2633">
          <path id="Path_8055" data-name="Path 8055" d="M2514.98,514.751a.483.483,0,0,0,.064.04.958.958,0,0,0,1.27-.289l1.993-2.906,2.26-.23-2.55,4.416a1.512,1.512,0,0,0-.2.7l-6.075,6.384a1.151,1.151,0,0,0,.041,1.628,1.105,1.105,0,0,0,.218.165,1.153,1.153,0,0,0,1.41-.2l5.79-6.087,1.4,2.044-1.68,2.53a1.153,1.153,0,0,0,.324,1.6l.061.039a1.152,1.152,0,0,0,1.534-.363l2.109-3.179a1.148,1.148,0,0,0-.011-1.289l-2-2.907,1.685-2.918.3,1.708a.964.964,0,0,0,.374.606l2.74,2.025a.939.939,0,0,0,.092.059.959.959,0,0,0,1.049-1.6l-2.431-1.8-.659-3.754a1.551,1.551,0,0,0-.025-.588,1.149,1.149,0,0,0-1.613-1.34l-4.789.485a.956.956,0,0,0-.695.412l-2.246,3.276A.961.961,0,0,0,2514.98,514.751Z" fill="#fff"/>
          <circle id="Ellipse_195" data-name="Ellipse 195" cx="2.384" cy="2.384" r="2.384" transform="translate(2523.311 505.175)" fill="#fff"/>
        </g>
        <g id="Group_2634" data-name="Group 2634">
          <path id="Path_8056" data-name="Path 8056" d="M2511.973,515.985a.2.2,0,0,1-.262-.1l-.081-.178a.2.2,0,0,1,.1-.261l.155-.071-.717-3.028-1.874.859a.789.789,0,0,0-.388,1.044l2.135,4.653a.79.79,0,0,0,1.045.387l1.874-.86-1.83-2.517Z" fill="#fff"/>
          <path id="Path_8057" data-name="Path 8057" d="M2515.266,516.963l-.518-1.127.035-.012.358-.166a.54.54,0,0,0,.266-.718l-.653-1.422a.542.542,0,0,0-.717-.266l-.358.165c-.013.005-.021.012-.032.017l-.517-1.126a.887.887,0,0,0-1.176-.436l-.565.259.739,3.127.216-.1a.2.2,0,0,1,.26.1l.081.178a.2.2,0,0,1-.1.261l-.213.1,1.888,2.6.566-.26A.883.883,0,0,0,2515.266,516.963Zm-.606-1.407c-.012,0-.024,0-.036.008l-.852-1.856a.215.215,0,0,1,.03-.022l.358-.164a.246.246,0,0,1,.326.121l.653,1.422a.247.247,0,0,1-.121.328Z" fill="#fff"/>
        </g>
      </g>
    </g>
    <g id="Group_2639" data-name="Group 2639">
      <g id="Group_2637" data-name="Group 2637">
        <path id="Path_8058" data-name="Path 8058" d="M2632.774,496.793a17.8,17.8,0,1,0,17.8,17.8A17.817,17.817,0,0,0,2632.774,496.793Z" fill="none" stroke="#fff" stroke-linecap="round" stroke-linejoin="round" stroke-width="1"/>
      </g>
      <g id="Group_2638" data-name="Group 2638">
        <path id="Path_8059" data-name="Path 8059" d="M2632.513,510.008v5.181h3.121a.5.5,0,0,0,.5-.5h0a.5.5,0,0,0-.5-.5h-2.122v-4.182a.5.5,0,0,0-.5-.5h0A.5.5,0,0,0,2632.513,510.008Z" fill="#fff"/>
        <path id="Path_8060" data-name="Path 8060" d="M2642.265,514.064a8.634,8.634,0,0,0-17.148-1.434h-1.387l2.391,4.12,2.461-4.12h-1.433a6.638,6.638,0,1,1,7.924,7.909v2.036A8.663,8.663,0,0,0,2642.265,514.064Z" fill="#fff"/>
        <path id="Path_8061" data-name="Path 8061" d="M2625.2,521.672l.635-.675a9.944,9.944,0,0,0,.85-1.013,1.375,1.375,0,0,0,.23-.786,1.308,1.308,0,0,0-.434-1.04,1.767,1.767,0,0,0-1.207-.381,1.559,1.559,0,0,0-1.17.454,1.482,1.482,0,0,0-.426,1.113l.007.028h1.063a.879.879,0,0,1,.141-.539.444.444,0,0,1,.385-.213.508.508,0,0,1,.411.159.646.646,0,0,1,.137.431,1,1,0,0,1-.135.448,3.144,3.144,0,0,1-.412.587l-1.5,1.586v.724h3.246v-.874h-1.813Z" fill="#fff"/>
        <path id="Path_8062" data-name="Path 8062" d="M2630.016,517.874h-1.061v-.019l-1.9,3.033.053.669h1.842v1h1.061v-1h.5v-.812h-.5Zm-1.061,2.871h-.933l.806-1.341.1-.141.031,0Z" fill="#fff"/>
        <path id="Path_8063" data-name="Path 8063" d="M2634.074,522.555v-2.021a3.277,3.277,0,0,0-.013-.415,1.469,1.469,0,0,0-.277-.755,1.036,1.036,0,0,0-.848-.377.941.941,0,0,0-.488.13.845.845,0,0,0-.372.366v-1.672h-1.123v4.744h1.123V520c0-.055.1-.1.182-.13a.7.7,0,0,1,.268-.047.439.439,0,0,1,.367.152.914.914,0,0,1,.12.551v2.027h1.061Z" fill="#fff"/>
      </g>
    </g>
    <g id="Group_2647" data-name="Group 2647">
      <g id="Group_2646" data-name="Group 2646">
        <g id="Group_2645" data-name="Group 2645">
          <g id="Group_2644" data-name="Group 2644">
            <path id="Path_8064" data-name="Path 8064" d="M2553,559.248c0,.888-.636,1.76-2.127,1.76a2.2,2.2,0,0,1-2.3-1.385l1.067-.334a1.13,1.13,0,0,0,1.223.75c.57,0,1.026-.22,1.026-.709,0-.571-.643-.611-1.548-.831-1.149-.286-1.532-.864-1.532-1.654a1.781,1.781,0,0,1,2.013-1.744,1.874,1.874,0,0,1,1.947,1.344l-1.075.261a.874.874,0,0,0-.929-.636c-.473,0-.864.245-.864.7,0,.644.725.734,1.255.856C2552.516,557.937,2553,558.328,2553,559.248Z" fill="#fff"/>
            <path id="Path_8065" data-name="Path 8065" d="M2558.538,559.77h-2.347l-.383,1.132h-1.173l2.053-5.7h1.353l2.053,5.7h-1.173Zm-.334-.986-.839-2.469-.84,2.469Z" fill="#fff"/>
            <path id="Path_8066" data-name="Path 8066" d="M2566.223,559.256c0,1.011-.709,1.646-2.029,1.646h-2.143v-5.7h1.931c1.3,0,2.013.619,2.013,1.532a1.261,1.261,0,0,1-.628,1.157v.016A1.394,1.394,0,0,1,2566.223,559.256Zm-3.064-3.1v1.418h.823c.514,0,.905-.2.905-.725s-.424-.693-.905-.693Zm1.94,3.031c0-.53-.408-.733-.905-.733h-1.035v1.5h1.035C2564.724,559.949,2565.1,559.689,2565.1,559.183Z" fill="#fff"/>
            <path id="Path_8067" data-name="Path 8067" d="M2571.708,559.876V560.9h-3.366v-5.7h3.292v1.026h-2.192v1.288h2.005v1.027h-2.005v1.336Z" fill="#fff"/>
            <path id="Path_8068" data-name="Path 8068" d="M2577.144,560.9l-1.174-2.053h-.961V560.9h-1.1v-5.7h1.971a1.915,1.915,0,0,1,2.127,1.866,1.655,1.655,0,0,1-1,1.556l1.4,2.281Zm-2.135-3.006h.871c.571,0,1-.261,1-.831,0-.514-.375-.84-1-.84h-.871Z" fill="#fff"/>
            <path id="Path_8069" data-name="Path 8069" d="M2589.774,555.2v5.7h-1.108v-3.78l-1.7,2.762h-.366l-1.711-2.762v3.78h-1.1v-5.7h1.173l1.817,2.933,1.817-2.933Z" fill="#fff"/>
            <path id="Path_8070" data-name="Path 8070" d="M2595.634,559.77h-2.346l-.384,1.132h-1.173l2.054-5.7h1.352l2.053,5.7h-1.173Zm-.334-.986-.839-2.469-.839,2.469Zm.375-5.435-.791,1.141h-.831l.53-1.141Z" fill="#fff"/>
            <path id="Path_8071" data-name="Path 8071" d="M2603.246,559.248c0,.888-.636,1.76-2.127,1.76a2.2,2.2,0,0,1-2.3-1.385l1.068-.334a1.129,1.129,0,0,0,1.222.75c.571,0,1.027-.22,1.027-.709,0-.571-.644-.611-1.549-.831-1.149-.286-1.531-.864-1.531-1.654a1.78,1.78,0,0,1,2.012-1.744,1.876,1.876,0,0,1,1.948,1.344l-1.076.261a.873.873,0,0,0-.929-.636c-.472,0-.864.245-.864.7,0,.644.726.734,1.255.856C2602.757,557.937,2603.246,558.328,2603.246,559.248Z" fill="#fff"/>
          </g>
        </g>
      </g>
    </g>
    <g id="Group_2648" data-name="Group 2648">
      <path id="Path_8072" data-name="Path 8072" d="M2575.07,573.1a25.673,25.673,0,0,1-7.89-1.235,1.691,1.691,0,0,1-1.078-2.116,1.649,1.649,0,0,1,2.078-1.1,22.4,22.4,0,0,0,6.89,1.077h.032a22.4,22.4,0,0,0,7.008-1.127,1.65,1.65,0,0,1,2.086,1.082,1.691,1.691,0,0,1-1.064,2.123,25.663,25.663,0,0,1-8.026,1.293Z" fill="#fff"/>
    </g>
    <g id="Ellipse_197" data-name="Ellipse 197" transform="translate(2513.845 307.592)" fill="#939393" stroke="#fff" stroke-miterlimit="10" stroke-width="1">
      <circle cx="60.98" cy="60.98" r="60.98" stroke="none"/>
      <circle cx="60.98" cy="60.98" r="60.48" fill="none"/>
    </g>
    <g id="Group_2651" data-name="Group 2651">
      <circle id="Ellipse_198" data-name="Ellipse 198" cx="13.759" cy="13.759" r="13.759" transform="translate(2562.151 414.679)" fill="url(#linear-gradient-2)"/>
      <g id="Group_2650" data-name="Group 2650">
        <path id="Path_8073" data-name="Path 8073" d="M2572.545,434.4l-.013-.008a.861.861,0,0,0-1.121.257l-.024.035a.855.855,0,0,0,.285,1.24l.053.029a.856.856,0,0,0,1.2-.434l.016-.039A.86.86,0,0,0,2572.545,434.4Z" fill="#fff"/>
        <path id="Path_8074" data-name="Path 8074" d="M2570.2,432.346a.86.86,0,0,0-1.124-.246l-.04.023a.856.856,0,0,0-.27,1.242l.036.048a.855.855,0,0,0,1.264.121l.034-.031a.859.859,0,0,0,.109-1.144Z" fill="#fff"/>
        <path id="Path_8075" data-name="Path 8075" d="M2575.779,419.457a8.775,8.775,0,0,0-8.674,8.875,8.672,8.672,0,0,0,.146,1.5.879.879,0,0,0,1.119.681h0a.879.879,0,0,0,.609-1.005,7.018,7.018,0,0,1,13.616-3.315c.033.108.063.216.09.325l-2.482,1.094a4.518,4.518,0,0,0-1.278-2.629,4.306,4.306,0,0,0-2.826-1.155,4.113,4.113,0,0,0-4.415,4.567,4.006,4.006,0,0,0,1.2,3.019,4.892,4.892,0,0,0,3.24,1.148l.093,0,5.229-.053a7.02,7.02,0,0,1-5.923,2.735.879.879,0,1,0-.091,1.755c.182.009.365.013.547.011a8.776,8.776,0,1,0-.2-17.55Zm.412,11.669h-.031a3.518,3.518,0,0,1-2.3-.767,2.638,2.638,0,0,1-.74-1.979,3.134,3.134,0,0,1,.813-2.4,3.1,3.1,0,0,1,2.1-.721l.06,0h.01a2.868,2.868,0,0,1,1.833.753,3.627,3.627,0,0,1,.924,2.668.716.716,0,0,0,1,.648l3.037-1.338a6.986,6.986,0,0,1-.594,3.073Z" fill="#fff"/>
        <g id="Group_2649" data-name="Group 2649">
          <path id="Path_8076" data-name="Path 8076" d="M2591.347,428.631a.93.93,0,0,0-.011-1.093l-1.869-2.519a1.55,1.55,0,0,1-.3-1.057l.3-3.12a.928.928,0,0,0-.556-.942l-2.88-1.248a1.552,1.552,0,0,1-.783-.767l-1.306-2.855a.93.93,0,0,0-.853-.541.7.7,0,0,0-.1,0l-3.113.361c-.056,0-.108.009-.161.009a1.5,1.5,0,0,1-.9-.284l-2.557-1.817a.923.923,0,0,0-.548-.171.9.9,0,0,0-.544.182l-2.524,1.869a1.5,1.5,0,0,1-.9.3c-.052,0-.105,0-.161-.006l-3.12-.3c-.032,0-.068,0-.1,0a.931.931,0,0,0-.842.559l-1.248,2.88a1.547,1.547,0,0,1-.767.783l-2.854,1.307a.928.928,0,0,0-.537.953l.361,3.113a1.534,1.534,0,0,1-.274,1.063l-1.818,2.557a.928.928,0,0,0,.012,1.092l1.869,2.523a1.533,1.533,0,0,1,.295,1.058l-.3,3.119a.932.932,0,0,0,.556.942l2.88,1.248a1.536,1.536,0,0,1,.783.767l1.306,2.855a.929.929,0,0,0,.853.541.7.7,0,0,0,.1,0l3.113-.361c.056,0,.109-.009.161-.009a1.5,1.5,0,0,1,.9.284l2.561,1.817a.905.905,0,0,0,.548.171.921.921,0,0,0,.544-.182l2.52-1.869a1.506,1.506,0,0,1,.9-.3c.053,0,.1,0,.161.006l3.12.3c.036,0,.068,0,.1,0a.93.93,0,0,0,.842-.559l1.248-2.88a1.534,1.534,0,0,1,.767-.783l2.854-1.306a.933.933,0,0,0,.537-.954l-.361-3.113a1.555,1.555,0,0,1,.274-1.063Zm-3.471,2.356a.938.938,0,0,0-.166.648l.278,2.412a1.528,1.528,0,0,1-.884,1.567l-2.207,1.01a.948.948,0,0,0-.469.479l-.965,2.227a1.533,1.533,0,0,1-1.392.921.961.961,0,0,1-.161-.006l-2.412-.228a.776.776,0,0,0-.1-.008.94.94,0,0,0-.548.187l-1.949,1.449a1.531,1.531,0,0,1-1.8.019l-1.979-1.41a.928.928,0,0,0-.552-.175.778.778,0,0,0-.1.009l-2.411.277c-.056.005-.108.009-.16.01a1.534,1.534,0,0,1-1.407-.893l-1.015-2.215a.949.949,0,0,0-.474-.465l-2.231-.965a1.527,1.527,0,0,1-.915-1.557l.232-2.4a.932.932,0,0,0-.179-.644l-1.45-1.95a1.537,1.537,0,0,1-.018-1.8l1.41-1.978a.937.937,0,0,0,.166-.648l-.278-2.411a1.527,1.527,0,0,1,.884-1.572l2.211-1.014a.925.925,0,0,0,.465-.475l.969-2.231a1.534,1.534,0,0,1,1.388-.921c.053,0,.105,0,.161.006l2.42.229c.032,0,.065.007.1.007a.929.929,0,0,0,.544-.187l1.945-1.441a1.536,1.536,0,0,1,1.8-.019l1.979,1.41a.927.927,0,0,0,.552.175.622.622,0,0,0,.1-.009l2.411-.277c.056-.005.108-.009.16-.01a1.544,1.544,0,0,1,1.411.893l1.015,2.211a.9.9,0,0,0,.474.465l2.227.97a1.526,1.526,0,0,1,.916,1.553l-.233,2.408a.935.935,0,0,0,.179.645l1.45,1.949a1.537,1.537,0,0,1,.018,1.8Z" fill="#fff"/>
        </g>
      </g>
    </g>
  </g>
</svg>
