<?xml version="1.0" standalone="no"?>
<!DOCTYPE svg PUBLIC "-//W3C//DTD SVG 20010904//EN"
 "http://www.w3.org/TR/2001/REC-SVG-20010904/DTD/svg10.dtd">
<svg xmlns="http://www.w3.org/2000/svg" xmlns:xlink="http://www.w3.org/1999/xlink" width="578.223" height="466.093" viewBox="0 0 578.223 466.093">
  <defs>
    <linearGradient id="linear-gradient" x1="2.008" y1="-8.024" x2="3.019" y2="-8.024" gradientUnits="objectBoundingBox">
      <stop offset="0" stop-color="#fff" stop-opacity="0"/>
      <stop offset="0.242" stop-color="#fff" stop-opacity="0.227"/>
      <stop offset="0.795" stop-color="#fff" stop-opacity="0.788"/>
      <stop offset="1" stop-color="#fff"/>
    </linearGradient>
    <linearGradient id="linear-gradient-2" x1="1.982" y1="-8.067" x2="2.993" y2="-8.067" xlink:href="#linear-gradient"/>
    <linearGradient id="linear-gradient-3" x1="1.901" y1="-8.214" x2="2.912" y2="-8.214" xlink:href="#linear-gradient"/>
    <linearGradient id="linear-gradient-4" x1="1.931" y1="-7.297" x2="2.942" y2="-7.297" gradientUnits="objectBoundingBox">
      <stop offset="0" stop-color="#fff"/>
      <stop offset="0.205" stop-color="#fff" stop-opacity="0.788"/>
      <stop offset="0.758" stop-color="#fff" stop-opacity="0.227"/>
      <stop offset="1" stop-color="#fff" stop-opacity="0"/>
    </linearGradient>
    <linearGradient id="linear-gradient-5" x1="1.928" y1="-8.171" x2="2.939" y2="-8.171" xlink:href="#linear-gradient"/>
    <linearGradient id="linear-gradient-6" x1="1.957" y1="-7.252" x2="2.969" y2="-7.252" xlink:href="#linear-gradient-4"/>
    <linearGradient id="linear-gradient-7" x1="1.847" y1="-8.287" x2="2.859" y2="-8.287" xlink:href="#linear-gradient"/>
    <linearGradient id="linear-gradient-8" x1="1.877" y1="-7.37" x2="2.888" y2="-7.37" xlink:href="#linear-gradient-4"/>
    <linearGradient id="linear-gradient-9" x1="1.824" y1="-8.311" x2="2.835" y2="-8.311" xlink:href="#linear-gradient"/>
    <linearGradient id="linear-gradient-10" x1="1.853" y1="-7.393" x2="2.864" y2="-7.393" xlink:href="#linear-gradient-4"/>
    <linearGradient id="linear-gradient-11" x1="1.875" y1="-8.244" x2="2.886" y2="-8.244" xlink:href="#linear-gradient"/>
    <linearGradient id="linear-gradient-12" x1="1.904" y1="-7.325" x2="2.915" y2="-7.325" xlink:href="#linear-gradient-4"/>
    <linearGradient id="linear-gradient-13" x1="1.772" y1="-8.369" x2="2.783" y2="-8.369" xlink:href="#linear-gradient"/>
    <linearGradient id="linear-gradient-14" x1="1.802" y1="-7.452" x2="2.813" y2="-7.452" xlink:href="#linear-gradient-4"/>
    <linearGradient id="linear-gradient-15" x1="1.8" y1="-8.326" x2="2.811" y2="-8.326" xlink:href="#linear-gradient"/>
    <linearGradient id="linear-gradient-16" x1="1.829" y1="-7.407" x2="2.84" y2="-7.407" xlink:href="#linear-gradient-4"/>
    <linearGradient id="linear-gradient-17" x1="1.954" y1="-8.128" x2="2.965" y2="-8.128" xlink:href="#linear-gradient"/>
    <linearGradient id="linear-gradient-18" x1="1.983" y1="-7.209" x2="2.994" y2="-7.209" xlink:href="#linear-gradient-4"/>
    <linearGradient id="linear-gradient-19" x1="2.011" y1="-7.153" x2="3.022" y2="-7.153" xlink:href="#linear-gradient-4"/>
    <linearGradient id="linear-gradient-20" x1="2.037" y1="-7.11" x2="3.048" y2="-7.11" xlink:href="#linear-gradient-4"/>
  </defs>
  <g id="Group_2618" data-name="Group 2618" transform="translate(-2288.595 12.744)">
    <g id="Group_2590" data-name="Group 2590" style="mix-blend-mode: overlay;isolation: isolate">
      <path id="Path_7937" data-name="Path 7937" d="M2619.54,60.257a1.165,1.165,0,0,0-.073-.731,1.7,1.7,0,0,0-1.116-.576,1.82,1.82,0,0,0-1.079-.068,5.447,5.447,0,0,0-.809.306q-.294.144-.731.4a2.93,2.93,0,0,0-.263.18c-.875.656-4.742,2.848-5.53,3.813-.881,1.078.413,3.036,3.128,2.251a2.705,2.705,0,0,0,.848-.433l.172-.128c.071-.052.141-.109.207-.168.365-.327.688-.639.953-.924C2616.3,63.042,2619.5,60.6,2619.54,60.257Z" fill="#fff"/>
      <path id="Path_7938" data-name="Path 7938" d="M2602.618,72.549c-49.05,28.057-89.37,39.428-138.516,48.391-26.781,4.885-48.066,6.17-62.86,3.644-10.872-1.858-18.235-5.775-21.7-11.835-6.771-11.853.163-20.1,6.979-22.43a11.52,11.52,0,0,1,4.093-.668,8.818,8.818,0,0,1,2.009.291c4.713,1.267,6.2,6.4,1.523,11.454-4.188,4.528-4.191,13.618,13.642,16.8.408.074.824.145,1.238.212,24.322,3.971,59.051-.746,108.777-12.99,50.7-14.475,77.071-31.034,83.11-35.322a4.093,4.093,0,0,1,3.719-.426C2605.859,70.063,2605.852,70.756,2602.618,72.549Z" fill="url(#linear-gradient)"/>
    </g>
    <g id="Group_2591" data-name="Group 2591" style="mix-blend-mode: overlay;isolation: isolate">
      <path id="Path_7939" data-name="Path 7939" d="M2608.063,96.414a1.167,1.167,0,0,0-.073-.732,1.707,1.707,0,0,0-1.116-.575,1.812,1.812,0,0,0-1.079-.068,5.325,5.325,0,0,0-.809.306c-.2.1-.44.231-.731.4a3.142,3.142,0,0,0-.263.179c-.875.657-4.742,2.849-5.53,3.814-.881,1.078.413,3.036,3.128,2.251a2.7,2.7,0,0,0,.848-.433l.172-.128c.071-.053.141-.109.207-.168.365-.327.688-.639.953-.924C2604.825,99.2,2608.022,96.762,2608.063,96.414Z" fill="#fff"/>
      <path id="Path_7940" data-name="Path 7940" d="M2591.141,108.706c-49.05,28.057-89.37,39.428-138.516,48.391-26.781,4.885-48.066,6.17-62.86,3.644-10.873-1.858-18.236-5.775-21.7-11.835-6.771-11.853.163-20.1,6.979-22.43a11.52,11.52,0,0,1,4.092-.668,8.764,8.764,0,0,1,2.01.291c4.713,1.267,6.2,6.4,1.523,11.454-4.188,4.528-4.191,13.618,13.641,16.8.409.074.825.144,1.239.212,24.322,3.971,59.051-.746,108.777-12.99,50.7-14.475,77.071-31.034,83.11-35.322a4.093,4.093,0,0,1,3.719-.426C2594.382,106.22,2594.375,106.913,2591.141,108.706Z" fill="url(#linear-gradient-2)"/>
    </g>
    <g id="Group_2594" data-name="Group 2594" opacity="0.6">
      <g id="Group_2592" data-name="Group 2592" style="mix-blend-mode: overlay;isolation: isolate">
        <path id="Path_7941" data-name="Path 7941" d="M2568.294,209.46a1.157,1.157,0,0,0-.073-.731,1.7,1.7,0,0,0-1.115-.576,1.824,1.824,0,0,0-1.08-.068,5.536,5.536,0,0,0-.809.306c-.2.095-.44.231-.731.4a2.752,2.752,0,0,0-.262.18c-.876.656-4.743,2.848-5.531,3.813-.881,1.078.413,3.036,3.128,2.251a2.7,2.7,0,0,0,.848-.433l.172-.128c.071-.052.141-.109.207-.168.366-.327.688-.639.953-.924C2565.057,212.245,2568.253,209.808,2568.294,209.46Z" fill="#fff"/>
        <path id="Path_7942" data-name="Path 7942" d="M2551.372,221.752c-49.05,28.057-89.37,39.428-138.516,48.391-26.781,4.885-48.066,6.17-62.859,3.644-10.873-1.858-18.236-5.775-21.7-11.835-6.771-11.853.163-20.1,6.979-22.43a11.521,11.521,0,0,1,4.093-.668,8.81,8.81,0,0,1,2.009.291c4.714,1.267,6.2,6.4,1.523,11.454-4.188,4.528-4.191,13.618,13.642,16.8.409.074.824.145,1.239.212,24.321,3.971,59.051-.746,108.776-12.99,50.7-14.475,77.071-31.034,83.11-35.322a4.093,4.093,0,0,1,3.719-.426C2554.613,219.266,2554.606,219.959,2551.372,221.752Z" fill="url(#linear-gradient-3)"/>
      </g>
      <g id="Group_2593" data-name="Group 2593" style="mix-blend-mode: overlay;isolation: isolate">
        <path id="Path_7943" data-name="Path 7943" d="M2573.957,201.775a1.165,1.165,0,0,0,.073.731,1.7,1.7,0,0,0,1.116.576,1.82,1.82,0,0,0,1.079.068,5.488,5.488,0,0,0,.81-.306q.294-.144.73-.4a2.9,2.9,0,0,0,.263-.18c.875-.657,4.742-2.848,5.53-3.813.881-1.078-.413-3.036-3.128-2.252a2.707,2.707,0,0,0-.848.434l-.172.127c-.071.053-.141.11-.207.168-.365.328-.688.639-.953.924C2577.2,198.99,2574,201.426,2573.957,201.775Z" fill="#fff"/>
        <path id="Path_7944" data-name="Path 7944" d="M2590.88,189.482c49.049-28.056,89.369-39.427,138.515-48.39,26.781-4.885,48.066-6.171,62.86-3.644,10.873,1.857,18.236,5.775,21.7,11.835,6.771,11.853-.163,20.1-6.979,22.43a11.52,11.52,0,0,1-4.092.668,8.827,8.827,0,0,1-2.01-.291c-4.713-1.267-6.2-6.4-1.523-11.454,4.188-4.528,4.191-13.618-13.641-16.8-.409-.075-.824-.145-1.239-.212-24.322-3.972-59.051.746-108.777,12.99-50.7,14.475-77.071,31.034-83.11,35.322a4.092,4.092,0,0,1-3.719.425C2587.638,191.968,2587.645,191.276,2590.88,189.482Z" fill="url(#linear-gradient-4)"/>
      </g>
    </g>
    <g id="Group_2597" data-name="Group 2597" opacity="0.8">
      <g id="Group_2595" data-name="Group 2595" style="mix-blend-mode: overlay;isolation: isolate">
        <path id="Path_7945" data-name="Path 7945" d="M2579.536,171.479a1.167,1.167,0,0,0-.073-.732,1.706,1.706,0,0,0-1.116-.576,1.818,1.818,0,0,0-1.079-.067,5.339,5.339,0,0,0-.809.3q-.294.144-.731.4c-.091.055-.178.117-.263.18-.875.657-4.742,2.849-5.53,3.813-.881,1.078.413,3.037,3.128,2.252a2.7,2.7,0,0,0,.848-.433l.172-.128c.071-.053.141-.109.207-.168.365-.327.688-.639.953-.924C2576.3,174.263,2579.5,171.827,2579.536,171.479Z" fill="#fff"/>
        <path id="Path_7946" data-name="Path 7946" d="M2562.614,183.771c-49.05,28.056-89.37,39.428-138.516,48.39-26.781,4.885-48.066,6.171-62.86,3.644-10.872-1.857-18.235-5.775-21.7-11.834-6.771-11.854.163-20.1,6.979-22.43a11.544,11.544,0,0,1,4.093-.669,8.876,8.876,0,0,1,2.009.291c4.713,1.268,6.2,6.4,1.523,11.455-4.188,4.528-4.191,13.618,13.642,16.8.408.074.824.144,1.239.211,24.321,3.972,59.05-.745,108.776-12.99,50.7-14.475,77.071-31.034,83.11-35.321a4.093,4.093,0,0,1,3.719-.426C2565.855,181.285,2565.848,181.977,2562.614,183.771Z" fill="url(#linear-gradient-5)"/>
      </g>
      <g id="Group_2596" data-name="Group 2596" style="mix-blend-mode: overlay;isolation: isolate">
        <path id="Path_7947" data-name="Path 7947" d="M2585.824,164.1a1.158,1.158,0,0,0,.073.731,1.7,1.7,0,0,0,1.116.576,1.82,1.82,0,0,0,1.079.068,5.474,5.474,0,0,0,.809-.306q.294-.144.731-.4a2.783,2.783,0,0,0,.262-.18c.876-.657,4.743-2.848,5.531-3.813.881-1.078-.413-3.036-3.128-2.252a2.708,2.708,0,0,0-.848.434l-.172.127c-.071.053-.141.11-.207.168-.365.328-.688.639-.953.924C2589.062,161.319,2585.865,163.755,2585.824,164.1Z" fill="#fff"/>
        <path id="Path_7948" data-name="Path 7948" d="M2602.746,151.811c49.05-28.056,89.37-39.427,138.516-48.39,26.781-4.885,48.066-6.171,62.86-3.644,10.872,1.857,18.235,5.775,21.7,11.835,6.771,11.853-.163,20.1-6.979,22.43a11.543,11.543,0,0,1-4.093.668,8.819,8.819,0,0,1-2.009-.291c-4.713-1.267-6.2-6.4-1.523-11.454,4.188-4.528,4.191-13.618-13.642-16.8-.408-.075-.824-.145-1.239-.212-24.321-3.972-59.05.746-108.776,12.99-50.7,14.475-77.071,31.034-83.11,35.322a4.092,4.092,0,0,1-3.719.425C2599.5,154.3,2599.512,153.6,2602.746,151.811Z" fill="url(#linear-gradient-6)"/>
      </g>
    </g>
    <g id="Group_2600" data-name="Group 2600" opacity="0.3">
      <g id="Group_2598" data-name="Group 2598" style="mix-blend-mode: overlay;isolation: isolate">
        <path id="Path_7949" data-name="Path 7949" d="M2549.973,284.036a1.149,1.149,0,0,0-.073-.731,1.7,1.7,0,0,0-1.115-.576,1.823,1.823,0,0,0-1.08-.068,5.529,5.529,0,0,0-.809.306q-.294.144-.731.4a2.749,2.749,0,0,0-.262.18c-.876.656-4.743,2.848-5.531,3.813-.881,1.078.414,3.036,3.128,2.252a2.7,2.7,0,0,0,.848-.434l.172-.127c.071-.053.141-.11.207-.169.366-.327.688-.638.954-.923C2546.736,286.821,2549.932,284.385,2549.973,284.036Z" fill="#fff"/>
        <path id="Path_7950" data-name="Path 7950" d="M2533.051,296.328c-49.05,28.057-89.37,39.428-138.516,48.391-26.78,4.885-48.066,6.17-62.859,3.644-10.873-1.858-18.236-5.775-21.7-11.835-6.771-11.853.163-20.1,6.979-22.43a11.52,11.52,0,0,1,4.093-.668,8.808,8.808,0,0,1,2.009.291c4.714,1.267,6.2,6.4,1.523,11.454-4.188,4.528-4.191,13.618,13.642,16.8.409.075.824.145,1.239.212,24.321,3.971,59.051-.746,108.776-12.99,50.7-14.475,77.071-31.034,83.11-35.322a4.093,4.093,0,0,1,3.719-.426C2536.292,293.842,2536.285,294.535,2533.051,296.328Z" fill="url(#linear-gradient-7)"/>
      </g>
      <g id="Group_2599" data-name="Group 2599" style="mix-blend-mode: overlay;isolation: isolate">
        <path id="Path_7951" data-name="Path 7951" d="M2555.636,276.351a1.165,1.165,0,0,0,.073.731,1.7,1.7,0,0,0,1.116.576,1.823,1.823,0,0,0,1.08.068,5.536,5.536,0,0,0,.809-.306c.2-.1.44-.231.73-.4a2.934,2.934,0,0,0,.263-.18c.875-.657,4.742-2.848,5.53-3.813.881-1.078-.413-3.036-3.128-2.252a2.72,2.72,0,0,0-.848.434l-.172.127c-.071.053-.141.11-.207.169-.365.327-.688.638-.953.923C2558.874,273.566,2555.677,276,2555.636,276.351Z" fill="#fff"/>
        <path id="Path_7952" data-name="Path 7952" d="M2572.559,264.059c49.049-28.057,89.369-39.428,138.515-48.391,26.781-4.885,48.066-6.17,62.86-3.644,10.873,1.858,18.236,5.775,21.7,11.835,6.771,11.853-.162,20.1-6.979,22.43a11.518,11.518,0,0,1-4.092.668,8.827,8.827,0,0,1-2.01-.291c-4.713-1.267-6.2-6.4-1.523-11.454,4.188-4.528,4.192-13.618-13.641-16.8-.409-.075-.824-.145-1.239-.212-24.322-3.971-59.051.746-108.777,12.99-50.7,14.475-77.071,31.034-83.11,35.322a4.092,4.092,0,0,1-3.719.426C2569.317,266.545,2569.324,265.852,2572.559,264.059Z" fill="url(#linear-gradient-8)"/>
      </g>
    </g>
    <g id="Group_2603" data-name="Group 2603" opacity="0.2">
      <g id="Group_2601" data-name="Group 2601" style="mix-blend-mode: overlay;isolation: isolate">
        <path id="Path_7953" data-name="Path 7953" d="M2544.927,316.518a1.165,1.165,0,0,0-.073-.731,1.7,1.7,0,0,0-1.116-.576,1.82,1.82,0,0,0-1.079-.068,5.431,5.431,0,0,0-.809.306q-.3.144-.731.4a2.927,2.927,0,0,0-.263.18c-.875.657-4.742,2.848-5.53,3.813-.881,1.078.413,3.036,3.128,2.252a2.707,2.707,0,0,0,.848-.434l.172-.127c.071-.053.141-.11.207-.169.365-.327.688-.638.953-.923C2541.689,319.3,2544.886,316.867,2544.927,316.518Z" fill="#fff"/>
        <path id="Path_7954" data-name="Path 7954" d="M2528,328.81c-49.05,28.057-89.37,39.428-138.516,48.391-26.781,4.885-48.066,6.17-62.86,3.644-10.873-1.858-18.236-5.775-21.7-11.835-6.771-11.853.163-20.1,6.979-22.43a11.52,11.52,0,0,1,4.092-.668,8.827,8.827,0,0,1,2.01.291c4.713,1.267,6.2,6.4,1.523,11.454-4.188,4.528-4.191,13.618,13.641,16.8.409.075.825.145,1.239.212,24.322,3.971,59.051-.746,108.777-12.99,50.7-14.475,77.071-31.034,83.11-35.322a4.1,4.1,0,0,1,3.719-.426C2531.246,326.324,2531.239,327.017,2528,328.81Z" fill="url(#linear-gradient-9)"/>
      </g>
      <g id="Group_2602" data-name="Group 2602" style="mix-blend-mode: overlay;isolation: isolate">
        <path id="Path_7955" data-name="Path 7955" d="M2550.59,308.833a1.158,1.158,0,0,0,.073.731,1.7,1.7,0,0,0,1.115.576,1.823,1.823,0,0,0,1.08.068,5.532,5.532,0,0,0,.809-.306q.294-.144.731-.4a2.749,2.749,0,0,0,.262-.18c.876-.656,4.743-2.848,5.531-3.813.881-1.078-.413-3.036-3.128-2.252a2.7,2.7,0,0,0-.848.434l-.172.127c-.071.053-.141.11-.207.169-.366.327-.688.638-.953.924C2553.827,306.048,2550.631,308.484,2550.59,308.833Z" fill="#fff"/>
        <path id="Path_7956" data-name="Path 7956" d="M2567.512,296.541c49.05-28.057,89.37-39.428,138.516-48.391,26.781-4.885,48.066-6.17,62.859-3.644,10.873,1.858,18.236,5.775,21.7,11.835,6.771,11.853-.163,20.1-6.979,22.43a11.52,11.52,0,0,1-4.093.668,8.81,8.81,0,0,1-2.009-.291c-4.714-1.267-6.2-6.4-1.523-11.454,4.188-4.528,4.191-13.618-13.642-16.8-.409-.074-.824-.145-1.239-.212-24.321-3.971-59.05.746-108.776,12.99-50.7,14.475-77.071,31.034-83.11,35.322a4.093,4.093,0,0,1-3.719.426C2564.271,299.027,2564.278,298.334,2567.512,296.541Z" fill="url(#linear-gradient-10)"/>
      </g>
    </g>
    <g id="Group_2606" data-name="Group 2606" opacity="0.4">
      <g id="Group_2604" data-name="Group 2604" style="mix-blend-mode: overlay;isolation: isolate">
        <path id="Path_7957" data-name="Path 7957" d="M2561.215,246.055a1.162,1.162,0,0,0-.073-.732,1.7,1.7,0,0,0-1.116-.575,1.811,1.811,0,0,0-1.079-.068,5.274,5.274,0,0,0-.809.306q-.294.143-.731.4c-.091.055-.178.117-.262.18-.876.657-4.743,2.849-5.531,3.813-.881,1.079.413,3.037,3.128,2.252a2.7,2.7,0,0,0,.848-.433l.172-.128c.071-.053.141-.109.207-.168.365-.327.688-.639.953-.924C2557.977,248.839,2561.174,246.4,2561.215,246.055Z" fill="#fff"/>
        <path id="Path_7958" data-name="Path 7958" d="M2544.293,258.347c-49.05,28.056-89.37,39.428-138.516,48.39-26.781,4.885-48.066,6.171-62.86,3.645-10.872-1.858-18.235-5.775-21.7-11.835-6.771-11.854.163-20.1,6.979-22.43a11.545,11.545,0,0,1,4.093-.669,8.817,8.817,0,0,1,2.009.292c4.713,1.267,6.2,6.4,1.523,11.454-4.188,4.528-4.191,13.618,13.642,16.8.408.074.824.144,1.239.211,24.321,3.972,59.05-.745,108.776-12.989,50.7-14.475,77.071-31.034,83.11-35.322a4.093,4.093,0,0,1,3.719-.426C2547.534,255.861,2547.527,256.553,2544.293,258.347Z" fill="url(#linear-gradient-11)"/>
      </g>
      <g id="Group_2605" data-name="Group 2605" style="mix-blend-mode: overlay;isolation: isolate">
        <path id="Path_7959" data-name="Path 7959" d="M2567.5,238.68a1.167,1.167,0,0,0,.073.731,1.7,1.7,0,0,0,1.116.576,1.82,1.82,0,0,0,1.079.068,5.445,5.445,0,0,0,.809-.306q.294-.144.731-.4a2.9,2.9,0,0,0,.263-.18c.875-.657,4.742-2.848,5.53-3.813.881-1.078-.413-3.036-3.128-2.252a2.708,2.708,0,0,0-.848.434l-.172.127c-.071.053-.141.11-.207.169-.365.327-.688.638-.953.923C2570.741,235.9,2567.544,238.331,2567.5,238.68Z" fill="#fff"/>
        <path id="Path_7960" data-name="Path 7960" d="M2584.425,226.388c49.05-28.057,89.37-39.428,138.516-48.391,26.781-4.885,48.066-6.17,62.86-3.644,10.872,1.858,18.235,5.775,21.7,11.835,6.771,11.853-.163,20.1-6.979,22.43a11.52,11.52,0,0,1-4.093.668,8.818,8.818,0,0,1-2.009-.291c-4.713-1.267-6.2-6.4-1.523-11.454,4.188-4.528,4.191-13.618-13.642-16.8-.408-.075-.824-.145-1.239-.212-24.321-3.971-59.05.746-108.776,12.99-50.7,14.475-77.071,31.034-83.11,35.322a4.1,4.1,0,0,1-3.719.426C2581.184,228.874,2581.191,228.181,2584.425,226.388Z" fill="url(#linear-gradient-12)"/>
      </g>
    </g>
    <g id="Group_2609" data-name="Group 2609" opacity="0.05">
      <g id="Group_2607" data-name="Group 2607" style="mix-blend-mode: overlay;isolation: isolate">
        <path id="Path_7961" data-name="Path 7961" d="M2531.362,387.759a1.162,1.162,0,0,0-.073-.732,1.7,1.7,0,0,0-1.116-.576,1.82,1.82,0,0,0-1.079-.068,5.49,5.49,0,0,0-.809.306q-.294.144-.731.4a2.955,2.955,0,0,0-.262.18c-.876.657-4.743,2.848-5.531,3.813-.881,1.078.413,3.037,3.128,2.252a2.705,2.705,0,0,0,.848-.433l.172-.128c.071-.053.141-.11.207-.168.366-.327.688-.639.953-.924C2528.124,390.543,2531.321,388.107,2531.362,387.759Z" fill="#fff"/>
        <path id="Path_7962" data-name="Path 7962" d="M2514.44,400.051c-49.05,28.056-89.37,39.427-138.516,48.39-26.781,4.885-48.066,6.171-62.859,3.644-10.873-1.857-18.236-5.775-21.7-11.835-6.771-11.853.163-20.1,6.979-22.43a11.542,11.542,0,0,1,4.093-.668,8.874,8.874,0,0,1,2.009.291c4.714,1.267,6.2,6.4,1.523,11.455-4.188,4.528-4.191,13.617,13.642,16.8.408.074.824.144,1.239.211,24.321,3.972,59.05-.745,108.776-12.99,50.7-14.475,77.071-31.034,83.11-35.322a4.1,4.1,0,0,1,3.719-.425C2517.681,397.565,2517.674,398.257,2514.44,400.051Z" fill="url(#linear-gradient-13)"/>
      </g>
      <g id="Group_2608" data-name="Group 2608" style="mix-blend-mode: overlay;isolation: isolate">
        <path id="Path_7963" data-name="Path 7963" d="M2537.025,380.073a1.169,1.169,0,0,0,.073.732,1.708,1.708,0,0,0,1.116.575,1.812,1.812,0,0,0,1.079.068,5.336,5.336,0,0,0,.809-.306c.2-.1.44-.231.731-.4a3.1,3.1,0,0,0,.263-.179c.875-.657,4.742-2.849,5.53-3.814.881-1.078-.413-3.036-3.128-2.251a2.7,2.7,0,0,0-.848.433l-.172.128c-.071.053-.141.109-.207.168-.365.327-.688.639-.953.924C2540.263,377.289,2537.066,379.725,2537.025,380.073Z" fill="#fff"/>
        <path id="Path_7964" data-name="Path 7964" d="M2553.947,367.781c49.05-28.057,89.37-39.428,138.516-48.391,26.781-4.885,48.066-6.17,62.86-3.644,10.872,1.858,18.235,5.775,21.7,11.835,6.771,11.853-.163,20.1-6.979,22.43a11.519,11.519,0,0,1-4.093.668,8.762,8.762,0,0,1-2.009-.291c-4.713-1.267-6.2-6.4-1.523-11.454,4.188-4.528,4.191-13.618-13.642-16.8-.408-.074-.824-.144-1.238-.211-24.322-3.972-59.051.745-108.777,12.989-50.7,14.475-77.071,31.034-83.11,35.322a4.093,4.093,0,0,1-3.719.426C2550.706,370.267,2550.713,369.574,2553.947,367.781Z" fill="url(#linear-gradient-14)"/>
      </g>
    </g>
    <g id="Group_2612" data-name="Group 2612" opacity="0.1">
      <g id="Group_2610" data-name="Group 2610" style="mix-blend-mode: overlay;isolation: isolate">
        <path id="Path_7965" data-name="Path 7965" d="M2542.6,349.777a1.164,1.164,0,0,0-.073-.731,1.7,1.7,0,0,0-1.116-.576,1.82,1.82,0,0,0-1.079-.068,5.322,5.322,0,0,0-.809.306c-.2.1-.44.231-.731.4a2.927,2.927,0,0,0-.263.18c-.875.656-4.742,2.848-5.53,3.813-.881,1.078.413,3.036,3.128,2.251a2.7,2.7,0,0,0,.848-.433l.172-.128c.071-.052.141-.109.207-.168.365-.327.688-.639.953-.924C2539.366,352.562,2542.563,350.125,2542.6,349.777Z" fill="#fff"/>
        <path id="Path_7966" data-name="Path 7966" d="M2525.682,362.069c-49.05,28.057-89.37,39.428-138.516,48.391-26.781,4.885-48.066,6.17-62.86,3.644-10.873-1.858-18.236-5.775-21.7-11.835-6.771-11.853.163-20.1,6.979-22.43a11.519,11.519,0,0,1,4.092-.668,8.827,8.827,0,0,1,2.01.291c4.713,1.267,6.2,6.4,1.523,11.454-4.188,4.528-4.191,13.618,13.641,16.8.409.074.825.144,1.239.212,24.322,3.971,59.051-.746,108.777-12.99,50.7-14.475,77.071-31.034,83.11-35.322a4.092,4.092,0,0,1,3.719-.426C2528.923,359.583,2528.916,360.276,2525.682,362.069Z" fill="url(#linear-gradient-15)"/>
      </g>
      <g id="Group_2611" data-name="Group 2611" style="mix-blend-mode: overlay;isolation: isolate">
        <path id="Path_7967" data-name="Path 7967" d="M2548.892,342.4a1.16,1.16,0,0,0,.073.732,1.707,1.707,0,0,0,1.115.575,1.815,1.815,0,0,0,1.08.068,5.423,5.423,0,0,0,.809-.306c.2-.1.44-.231.731-.4a2.939,2.939,0,0,0,.262-.179c.876-.657,4.743-2.849,5.531-3.814.881-1.078-.413-3.036-3.128-2.251a2.7,2.7,0,0,0-.848.433l-.172.128c-.071.053-.141.109-.207.168-.366.327-.688.639-.953.924C2552.129,339.618,2548.933,342.054,2548.892,342.4Z" fill="#fff"/>
        <path id="Path_7968" data-name="Path 7968" d="M2565.814,330.11c49.05-28.057,89.37-39.428,138.516-48.391,26.781-4.885,48.066-6.17,62.859-3.644,10.873,1.858,18.236,5.775,21.7,11.835,6.771,11.853-.163,20.1-6.979,22.43a11.52,11.52,0,0,1-4.093.668,8.754,8.754,0,0,1-2.009-.291c-4.714-1.267-6.2-6.4-1.523-11.454,4.188-4.528,4.191-13.618-13.642-16.8-.409-.074-.824-.144-1.239-.211-24.321-3.972-59.05.745-108.776,12.989-50.7,14.475-77.071,31.034-83.11,35.322a4.093,4.093,0,0,1-3.719.426C2562.573,332.6,2562.58,331.9,2565.814,330.11Z" fill="url(#linear-gradient-16)"/>
      </g>
    </g>
    <g id="Group_2615" data-name="Group 2615">
      <g id="Group_2613" data-name="Group 2613" style="mix-blend-mode: overlay;isolation: isolate">
        <path id="Path_7969" data-name="Path 7969" d="M2591.013,135.322a1.16,1.16,0,0,0-.073-.732,1.707,1.707,0,0,0-1.116-.575,1.811,1.811,0,0,0-1.079-.068,5.377,5.377,0,0,0-.809.306q-.294.143-.731.4a2.938,2.938,0,0,0-.262.179c-.876.657-4.743,2.849-5.531,3.813-.881,1.079.413,3.037,3.128,2.252a2.7,2.7,0,0,0,.848-.433l.172-.128c.071-.053.141-.109.207-.168.366-.327.688-.639.953-.924C2587.775,138.106,2590.972,135.67,2591.013,135.322Z" fill="#fff"/>
        <path id="Path_7970" data-name="Path 7970" d="M2574.091,147.614c-49.05,28.057-89.37,39.428-138.516,48.39-26.781,4.885-48.066,6.171-62.859,3.645-10.873-1.858-18.236-5.775-21.7-11.835-6.771-11.853.163-20.1,6.979-22.43a11.519,11.519,0,0,1,4.093-.668,8.762,8.762,0,0,1,2.009.291c4.714,1.267,6.2,6.4,1.523,11.454-4.188,4.528-4.191,13.618,13.642,16.8.408.074.824.144,1.239.211,24.321,3.972,59.05-.745,108.776-12.989,50.7-14.475,77.071-31.034,83.11-35.322a4.093,4.093,0,0,1,3.719-.426C2577.332,145.128,2577.325,145.821,2574.091,147.614Z" fill="url(#linear-gradient-17)"/>
      </g>
      <g id="Group_2614" data-name="Group 2614" style="mix-blend-mode: overlay;isolation: isolate">
        <path id="Path_7971" data-name="Path 7971" d="M2597.3,127.947a1.165,1.165,0,0,0,.073.731,1.7,1.7,0,0,0,1.116.576,1.82,1.82,0,0,0,1.079.068,5.434,5.434,0,0,0,.809-.306q.294-.144.731-.405a2.9,2.9,0,0,0,.263-.18c.875-.656,4.742-2.848,5.53-3.813.881-1.078-.413-3.036-3.128-2.251a2.7,2.7,0,0,0-.848.433l-.172.128c-.071.052-.141.109-.207.168-.365.327-.688.638-.953.924C2600.539,125.162,2597.342,127.6,2597.3,127.947Z" fill="#fff"/>
        <path id="Path_7972" data-name="Path 7972" d="M2614.223,115.655c49.05-28.057,89.37-39.428,138.516-48.391,26.781-4.885,48.066-6.17,62.86-3.644,10.872,1.858,18.235,5.775,21.7,11.835,6.771,11.853-.163,20.1-6.979,22.43a11.522,11.522,0,0,1-4.093.668,8.818,8.818,0,0,1-2.009-.291c-4.713-1.267-6.2-6.4-1.523-11.454,4.188-4.528,4.191-13.618-13.642-16.8-.408-.074-.824-.145-1.238-.212-24.322-3.971-59.051.746-108.777,12.99-50.7,14.475-77.071,31.034-83.11,35.322a4.093,4.093,0,0,1-3.719.426C2610.982,118.141,2610.989,117.448,2614.223,115.655Z" fill="url(#linear-gradient-18)"/>
      </g>
    </g>
    <g id="Group_2616" data-name="Group 2616" style="mix-blend-mode: overlay;isolation: isolate">
      <path id="Path_7973" data-name="Path 7973" d="M2612.574,89a1.167,1.167,0,0,0,.073.732,1.7,1.7,0,0,0,1.116.576,1.811,1.811,0,0,0,1.079.067,5.327,5.327,0,0,0,.809-.305q.294-.144.731-.4c.091-.055.178-.117.263-.18.875-.657,4.742-2.849,5.53-3.813.881-1.078-.413-3.037-3.128-2.252a2.705,2.705,0,0,0-.848.433l-.172.128c-.071.053-.141.109-.207.168-.365.327-.688.639-.953.924C2615.812,86.219,2612.615,88.655,2612.574,89Z" fill="#fff"/>
      <path id="Path_7974" data-name="Path 7974" d="M2629.5,76.711c49.05-28.056,89.37-39.427,138.516-48.39,26.781-4.885,48.066-6.171,62.86-3.644,10.873,1.857,18.235,5.775,21.7,11.834,6.771,11.854-.163,20.1-6.979,22.43a11.52,11.52,0,0,1-4.092.669,8.875,8.875,0,0,1-2.01-.291c-4.713-1.267-6.2-6.4-1.523-11.455,4.188-4.528,4.191-13.617-13.641-16.8-.409-.074-.825-.144-1.239-.211-24.322-3.972-59.051.745-108.777,12.99-50.7,14.475-77.071,31.034-83.11,35.321a4.093,4.093,0,0,1-3.719.426C2626.255,79.2,2626.262,78.5,2629.5,76.711Z" fill="url(#linear-gradient-19)"/>
    </g>
    <g id="Group_2617" data-name="Group 2617" style="mix-blend-mode: overlay;isolation: isolate">
      <path id="Path_7975" data-name="Path 7975" d="M2624.051,52.846a1.167,1.167,0,0,0,.073.732,1.7,1.7,0,0,0,1.116.576,1.82,1.82,0,0,0,1.079.068,5.433,5.433,0,0,0,.809-.306q.3-.144.731-.4a3.119,3.119,0,0,0,.263-.18c.875-.657,4.742-2.848,5.53-3.813.881-1.078-.413-3.037-3.128-2.252a2.686,2.686,0,0,0-.848.434l-.172.127c-.071.053-.141.11-.207.168-.365.327-.688.639-.953.924C2627.289,50.062,2624.092,52.5,2624.051,52.846Z" fill="#fff"/>
      <path id="Path_7976" data-name="Path 7976" d="M2640.973,40.554c49.05-28.056,89.37-39.427,138.516-48.39,26.781-4.885,48.066-6.171,62.86-3.644,10.873,1.857,18.236,5.775,21.7,11.835,6.771,11.853-.163,20.1-6.979,22.43a11.542,11.542,0,0,1-4.092.668,8.883,8.883,0,0,1-2.01-.291c-4.713-1.267-6.2-6.4-1.523-11.454,4.188-4.528,4.191-13.618-13.641-16.8-.409-.075-.825-.145-1.239-.212-24.322-3.972-59.051.746-108.777,12.99-50.7,14.475-77.071,31.034-83.11,35.322a4.092,4.092,0,0,1-3.719.425C2637.732,43.04,2637.739,42.348,2640.973,40.554Z" fill="url(#linear-gradient-20)"/>
    </g>
  </g>
</svg>
