<?xml version="1.0" standalone="no"?>
<!DOCTYPE svg PUBLIC "-//W3C//DTD SVG 20010904//EN"
 "http://www.w3.org/TR/2001/REC-SVG-20010904/DTD/svg10.dtd">
 <svg xmlns="http://www.w3.org/2000/svg" xmlns:xlink="http://www.w3.org/1999/xlink" width="229.288" height="113.896" viewBox="0 0 229.288 113.896">
  <defs>
    <linearGradient id="linear-gradient" x1="-3.317" y1="17.935" x2="-3.317" y2="16.629" gradientUnits="objectBoundingBox">
      <stop offset="0.003" stop-color="#b2b2b2"/>
      <stop offset="0.826" stop-color="#dbdbdb"/>
      <stop offset="1" stop-color="#e5e5e5"/>
    </linearGradient>
    <linearGradient id="linear-gradient-2" x1="-243.134" y1="218.554" x2="-242.553" y2="218.554" gradientUnits="objectBoundingBox">
      <stop offset="0.003" stop-color="#989898"/>
      <stop offset="1" stop-color="#f1f1f1"/>
    </linearGradient>
    <linearGradient id="linear-gradient-3" x1="0.625" y1="7.732" x2="1.59" y2="7.732" xlink:href="#linear-gradient"/>
    <linearGradient id="linear-gradient-4" x1="-1282.293" y1="771.341" x2="-1281.645" y2="771.341" xlink:href="#linear-gradient-2"/>
    <linearGradient id="linear-gradient-5" x1="-32.199" y1="-57.86" x2="-31.199" y2="-57.86" xlink:href="#linear-gradient"/>
  </defs>
  <path id="Trazado_9196" data-name="Trazado 9196" d="M1736.741,288.865a2.429,2.429,0,0,1-1.017-.178,2.991,2.991,0,0,1-1.473-1.693,29.316,29.316,0,0,1-1.264-5.609l-.106-.589a95.409,95.409,0,0,1-1.377-10.016.744.744,0,0,0-.755-.684.716.716,0,0,0-.636.371,17.638,17.638,0,0,1-5.154,5.6,17,17,0,0,1-3.813,2.11,9.724,9.724,0,0,1-3.469.681,8.227,8.227,0,0,1-3.06-.593c-3.038-1.24-5.951-4.343-8.66-9.223-.429-.772-.843-1.6-1.229-2.462a.859.859,0,0,0-1.648.329v.057a44.048,44.048,0,0,0,1.061,11.262c.993,3.824.963,6.471-.091,8.091a3.825,3.825,0,0,1-2.723,1.671,2.705,2.705,0,0,1-.409.027,9.858,9.858,0,0,1-1.632-.183,13.04,13.04,0,0,1-5.45-1.96,11.874,11.874,0,0,1-2.333-2.679c-2.643-3.748-6.6-12.866-11.761-27.1q-1.074-2.966-1.913-5.247-.288,1.4-.612,2.993c-2.959,14.528-5.411,23.47-7.495,27.334a9.752,9.752,0,0,1-1.917,2.739c-.953.866-2.638,1.551-5.153,2.1a8.954,8.954,0,0,1-1.691.221,2.581,2.581,0,0,1-.323-.018c-3.453-.474-4.9-3.716-4.294-9.637a43.677,43.677,0,0,0-.71-11.263c-.414-2.448-1.013-5.208-1.779-8.2a163.888,163.888,0,0,0-9-25.563,75.839,75.839,0,0,0-6.241-11.665,2.786,2.786,0,0,1-.208-2.939,3.459,3.459,0,0,1,3.057-1.739,4.027,4.027,0,0,1,1.545.315l.083.035c3.875,1.747,7.426,5.052,10.562,9.827a134.609,134.609,0,0,1,11.379,32.778l.025.115a.413.413,0,0,0,.814-.042l1.334-12.076a86.448,86.448,0,0,1,1.592-10.153l.023-.081a24.518,24.518,0,0,1,1.726-4.828,17.127,17.127,0,0,1,2.593-3.361,8.786,8.786,0,0,1,4.941-1.7,4.494,4.494,0,0,1,.6.038c2.506.345,4.471,2.927,5.391,7.084.026.117.368,1.233.8,2.646,1.014,3.316,2.711,8.867,3.66,12.306l3.249,12.107a.388.388,0,0,0,.393.306.4.4,0,0,0,.418-.39,121.918,121.918,0,0,1,6.2-32.952c2.4-4.892,5.438-8.282,9.038-10.118l.083-.04a3.727,3.727,0,0,1,1.592-.355,3.933,3.933,0,0,1,3.3,1.8,2.753,2.753,0,0,1,.132,2.772,112.208,112.208,0,0,0-4.377,10.485c.183-.037.4-.094.646-.159a14.775,14.775,0,0,1,4.034-.568,18.248,18.248,0,0,1,2.764.224,20.7,20.7,0,0,1,8.662,4l.117.094a1.155,1.155,0,0,0,.731.271,1.182,1.182,0,0,0,.923-.454,1.1,1.1,0,0,0,.192-.964c-1.121-4.465-2.476-8.915-4.027-13.226a.353.353,0,0,1,.231-.458l1.193-.354a50.966,50.966,0,0,1,7.627-1.235c.252-.024.5-.036.744-.036,2.792,0,4.854,1.622,6.129,4.823a16.963,16.963,0,0,1,.729,2.366c1.174,4.9,2.207,10.1,3.072,15.469.307,3.525.5,5.148.608,5.892.092-.121.206-.273.345-.462a67.613,67.613,0,0,0,6.965-12.833A51.021,51.021,0,0,0,1753.5,224.1c.922-6.7,1.488-10.451,1.727-11.463.364-1.478.971-2.4,1.8-2.732a2.451,2.451,0,0,1,.612-.259,2.6,2.6,0,0,1,.655-.083c1.6,0,3.393,1.389,5.487,4.247a13.2,13.2,0,0,1,1.871,3.191,11.632,11.632,0,0,1,.368,7.251c-.858,3.037-3.056,7.483-6.535,13.225a103.213,103.213,0,0,1-10.07,14.18l-2.293,2.589c2.873,3.283,5.6,6.3,8.122,8.977.208-2.264.928-8.456,1.942-11.349a22.173,22.173,0,0,1,4.551-8.061c1.438-1.378,3.848-2.337,7.174-2.861a7.668,7.668,0,0,1,1.2-.094,9.28,9.28,0,0,1,5.891,2.371,10.637,10.637,0,0,1,3.489,5.511l.393,1.659a.37.37,0,0,1,.009.066c.206,4.87-3.649,9.872-11.459,14.866a2.87,2.87,0,0,0-1.31,2.672,33.841,33.841,0,0,0,.829,5.553,4.745,4.745,0,0,0,5.031,3.754,10.421,10.421,0,0,0,1.506-.118c3.38-.533,6.048-4.234,7.925-11a141.478,141.478,0,0,0,3.324-14.016c.058-1.132.156-2.046.269-3.1.091-.853.194-1.819.3-3.127.517-6.1.5-6.708.488-7.072a2.55,2.55,0,0,1,.753-1.659,2.271,2.271,0,0,1,1.392-.867,6.831,6.831,0,0,1,1.038-.083c2.946,0,5,2.11,6.093,6.269.594,2.256.459,3.574-.193,9.909l-.189,1.848-.014.334c.013.017.032.021.068.021a.555.555,0,0,0,.088-.007c.412-.063,1.566-.572,4.721-2.637,10.051-6.457,14.291-13.689,12.6-21.5-.406-1.54-1.9-3.273-4.435-5.135a14.165,14.165,0,0,0-8.566-2.471c-.464,0-.946.015-1.432.045-.545.032-1.1.092-1.644.176-3.579.549-12.442,4.934-12.509,6.941-.083,2.515-.853,3.9-2.285,4.122a2.672,2.672,0,0,1-.408.03,3.458,3.458,0,0,1-.443-.03,9.16,9.16,0,0,1-3.718-1.023,4.276,4.276,0,0,1-1.842-2.435,5.984,5.984,0,0,1,.974-4.415c1.611-2.778,10.595-8.505,17.8-9.8a36.16,36.16,0,0,1,5.387-.388c4.673,0,9.078.8,11.782,2.14a19.469,19.469,0,0,1,9.443,10.033,13.85,13.85,0,0,1,.728,2.077c1.006,3.927.5,8.294-1.517,12.981-2.344,5.536-7.957,10.895-16.682,15.926-2.288,1.248-3.32,1.845-3.759,2.123a20.032,20.032,0,0,0,3.542,2.315,24.038,24.038,0,0,0,5.392,2.6,8.118,8.118,0,0,0,1.714.187,7.748,7.748,0,0,0,1.168-.089c2.888-.444,5.607-2.523,8.083-6.182,1.417-2.23,2.482-3.334,3.343-3.466a.316.316,0,0,1,.053,0,1.985,1.985,0,0,1,2.2,1.455c.286,1.085-.069,2.741-1.087,5.063-2.912,6.415-7.295,10.112-13.031,10.993a7.481,7.481,0,0,1-1.118.079,18.567,18.567,0,0,1-4.939-.855,32.943,32.943,0,0,1-6.909-2.829l-.645-.348c-2.085-1.13-6.321-3.427-8.3-3.631a29.584,29.584,0,0,1-3.934,8.68c-3,4.392-6.808,7.162-11.305,8.229-.425.1-.881.194-1.393.276a18.544,18.544,0,0,1-2.88.22c-.227,0-.454,0-.683-.011a15.555,15.555,0,0,1-5.166-.952.3.3,0,0,1-.057-.028l-.794-.482a13.413,13.413,0,0,1-3.09-2.583,25.008,25.008,0,0,1-3.081-4.061c-3.8-3.435-8.528-7.868-14.075-13.183-.041,20.746-.1,21.881-.132,22.494,0,.085-.008.161-.012.28a2.71,2.71,0,0,1-1.566,2.124,10.246,10.246,0,0,1-1.058.47c-.325.116-.6.2-.86.268A11.286,11.286,0,0,1,1736.741,288.865Zm-21.088-49.219a3.714,3.714,0,0,0-3.793,3.588q0,1.127.016,2.477a74.332,74.332,0,0,0,.818,11.6,26.812,26.812,0,0,0,2.613,7.627c.966,1.571,1.571,2.531,1.8,2.853a3.559,3.559,0,0,0,2.914,1.45,2.579,2.579,0,0,0,1.411-.351c1.586-1.117,2.045-2.541,2.8-6.861a26.593,26.593,0,0,0,.289-7.986,20.912,20.912,0,0,0-1.016-4.83,27.836,27.836,0,0,0-3.725-6.534c-.433-.6-.851-1.1-1.187-1.489l-.232-.274c-.066-.079-.135-.155-.21-.23A3.452,3.452,0,0,0,1715.653,239.646Zm54.587,8.26c-1.8.018-3.575,1.687-5.279,4.958a28.464,28.464,0,0,0-2.526,7.717.57.57,0,0,0,.117.478.588.588,0,0,0,.446.214.573.573,0,0,0,.3-.084c5.728-3.407,8.826-6.286,9.208-8.557a8.3,8.3,0,0,0,.136-2.331c-.194-1.633-.943-2.395-2.358-2.395v-.353Z" transform="translate(-1621.24 -194.442)" fill="url(#linear-gradient)"/>
  <path id="Trazado_9198" data-name="Trazado 9198" d="M1818.461,285.83a1.414,1.414,0,0,1-1.409-.739.929.929,0,0,1,.229-1.031,21.317,21.317,0,0,1,3.337-2.059c.495-.271.923-.5,1.182-.664.073-.045.149-.089.226-.127.268-.131.49-.232.666-.3a4.528,4.528,0,0,1,.686-.2.722.722,0,0,1,.156-.017,1.2,1.2,0,0,1,.512.134c.379.129.595.271.651.418h0a1.043,1.043,0,0,1-.085.437c-.029.09-.237.478-1.71,1.755-.145.125-.992.679-1.611,1.083-.5.326-.931.607-1.09.723-.059.043-.12.084-.182.121l-.17.1a2.185,2.185,0,0,1-.685.286,3.443,3.443,0,0,1-.7.078Z" transform="translate(-1621.24 -194.442)" fill="url(#linear-gradient-2)"/>
  <path id="Trazado_9200" data-name="Trazado 9200" d="M1703.057,307.985c-5.112,0-10.433-.081-16.266-.247-22.944-.652-40.145-3.549-51.125-8.61-8.126-3.746-12.754-8.672-13.755-14.641-.858-5.122.042-9.665,2.6-13.139a13.91,13.91,0,0,1,9.08-5.546,9.975,9.975,0,0,1,1.338-.094,7.309,7.309,0,0,1,1.979.254,5.727,5.727,0,0,1,1.436.61,4.127,4.127,0,0,1,2.077,3.454c.091,2.285-1.424,4.718-4.156,6.675a8.915,8.915,0,0,0-3.873,7.839c.257,2.825,2.206,6.968,10.028,10.656.306.146.621.29.936.431,14.26,6.425,35.352,9.418,66.375,9.418,7.4,0,15.612-.174,24.4-.517,47.688-3.773,73.665-15.032,76.6-16.365a5.307,5.307,0,0,1,1.363-.239,2.346,2.346,0,0,1,1.41.518c.239.164.294.27.289.3-.011.078-.19.507-2.634,1.309C1774.076,302.79,1742.758,307.985,1703.057,307.985Z" transform="translate(-1621.24 -194.442)" fill="url(#linear-gradient-3)"/>
  <path id="Trazado_9201" data-name="Trazado 9201" d="M1634.932,266.062a6.922,6.922,0,0,1,1.886.241,5.436,5.436,0,0,1,1.347.571,3.786,3.786,0,0,1,1.906,3.166c.085,2.132-1.414,4.515-4.009,6.374a9.268,9.268,0,0,0-4.018,8.157c.265,2.918,2.255,7.185,10.226,10.943.311.148.627.293.943.435,14.309,6.446,35.446,9.449,66.521,9.449,7.407,0,15.622-.174,24.414-.517l.028,0c47.6-3.766,73.613-14.994,76.677-16.383a4.929,4.929,0,0,1,1.243-.219,2.01,2.01,0,0,1,1.21.456l.018.013a9,9,0,0,1-2.282.976c-37.041,12.721-68.326,17.91-107.984,17.91-5.109,0-10.427-.081-16.257-.247-22.9-.651-40.051-3.537-50.987-8.578-8.014-3.694-12.574-8.532-13.555-14.379-.842-5.025.037-9.476,2.539-12.871a13.552,13.552,0,0,1,8.844-5.4,9.59,9.59,0,0,1,1.29-.09m0-.707a10.215,10.215,0,0,0-1.385.1c-6.112.826-14.008,7.013-11.984,19.093,1.036,6.176,5.8,11.144,13.955,14.9,11.1,5.115,28.471,7.995,51.263,8.643,5.524.157,10.933.247,16.277.247,35.116,0,67.245-3.878,108.213-17.948,3.1-1.018,3.3-1.647,2.434-2.24a2.69,2.69,0,0,0-1.609-.579,5.718,5.718,0,0,0-1.484.259c-6.05,2.755-31.85,12.813-76.491,16.345q-13.041.509-24.387.517c-30.1,0-51.614-2.8-66.231-9.387-.312-.14-.624-.283-.929-.428-13.339-6.289-10.74-14.564-6.1-17.889,5.181-3.712,5.459-8.668,2.055-10.718a6.093,6.093,0,0,0-1.522-.648,7.651,7.651,0,0,0-2.075-.267Z" transform="translate(-1621.24 -194.442)" fill="#fff"/>
  <path id="Trazado_9202" data-name="Trazado 9202" d="M1671.571,216.912a1.084,1.084,0,0,1-.512-.162c-.447-.191-.55-.344-.574-.4h0a.686.686,0,0,1,.035-.23c.19-.157.931-.575,1.482-.885a23.317,23.317,0,0,0,2.005-1.21c.215-.157.477-.329.777-.508a1.608,1.608,0,0,1,.142-.076l.14-.067a1.612,1.612,0,0,1,.544-.158c.1-.008.189-.012.278-.012a1.543,1.543,0,0,1,1.562.81.558.558,0,0,1-.14.645,17.694,17.694,0,0,1-3.092,1.378c-.593.227-1.061.407-1.306.526a1.868,1.868,0,0,1-.178.077q-.33.12-.549.178a3.609,3.609,0,0,1-.563.094A.433.433,0,0,1,1671.571,216.912Z" transform="translate(-1621.24 -194.442)" fill="url(#linear-gradient-4)"/>
  <path id="Trazado_9204" data-name="Trazado 9204" d="M1840.366,227.335a7.311,7.311,0,0,1-1.667-.182,6.2,6.2,0,0,1-1.333-.47,3.865,3.865,0,0,1-2.31-3.078c-.146-1.633.857-3.372,2.754-4.771a5.963,5.963,0,0,0,2.538-5.584c-.325-2.434-2.366-5.98-10.252-9.049-.285-.113-.576-.223-.868-.331-12.543-4.675-29.858-6.853-54.49-6.853-7.725,0-16.081.211-25.547.642-40.922,3.382-62.037,12.459-64.441,13.545a4.555,4.555,0,0,1-1.162.2,2.5,2.5,0,0,1-1.277-.4c-.25-.138-.286-.215-.287-.218h0c.016,0,.192-.32,2.047-.92,31.635-10.705,59.58-15.07,96.462-15.07,2.979,0,6.019.024,9.294.076,20.023.313,35.348,2.443,45.551,6.329,7.552,2.878,12.216,6.71,13.861,11.391,1.372,3.9,1.224,7.4-.428,10.093a10.042,10.042,0,0,1-7.211,4.565A9.143,9.143,0,0,1,1840.366,227.335Z" transform="translate(-1621.24 -194.442)" fill="url(#linear-gradient-5)"/>
  <path id="Trazado_9205" data-name="Trazado 9205" d="M1780.537,195.148c2.973,0,6.011.025,9.285.077,19.981.312,35.266,2.434,45.43,6.306,7.451,2.839,12.045,6.6,13.654,11.177,1.335,3.8,1.2,7.188-.4,9.793a9.69,9.69,0,0,1-6.958,4.4,8.756,8.756,0,0,1-1.185.082,6.916,6.916,0,0,1-1.589-.174,5.808,5.808,0,0,1-1.256-.442,3.475,3.475,0,0,1-2.114-2.792c-.135-1.508.816-3.131,2.612-4.456a6.31,6.31,0,0,0,2.678-5.915c-.337-2.528-2.427-6.2-10.471-9.331-.289-.113-.583-.224-.875-.333-12.584-4.69-29.938-6.875-54.614-6.875-7.73,0-16.092.21-25.563.643h-.026c-40.824,3.374-61.984,12.421-64.518,13.563a4.175,4.175,0,0,1-1.043.178,1.92,1.92,0,0,1-.924-.258,10.6,10.6,0,0,1,1.525-.592,276.134,276.134,0,0,1,49.3-12.026,322.653,322.653,0,0,1,47.042-3.025h0m0-.706c-32.505,0-61.016,3.057-96.57,15.088-2.558.827-2.653,1.324-1.823,1.783a2.846,2.846,0,0,0,1.448.442,4.964,4.964,0,0,0,1.282-.217c4.9-2.22,26.006-10.358,64.337-13.526,9.21-.42,17.7-.641,25.531-.641,23.906,0,41.58,2.064,54.367,6.83.29.107.579.217.863.328,12.411,4.831,11.23,11.364,7.632,14.021-4.018,2.965-3.614,6.867-.389,8.45a6.473,6.473,0,0,0,1.407.5,7.658,7.658,0,0,0,1.749.193,9.535,9.535,0,0,0,1.28-.089c5.2-.7,11.258-5.64,7.925-15.126-1.705-4.849-6.491-8.716-14.068-11.6-10.31-3.927-25.782-6.041-45.671-6.352-3.144-.05-6.237-.077-9.3-.077Z" transform="translate(-1621.24 -194.442)" fill="#fff"/>
</svg>
